<?xml version="1.0" encoding="UTF-8"?>
<svg version="1.1" xmlns="http://www.w3.org/2000/svg" width="450" height="450">
<path d="M0 0 C1.03229736 0.24943359 1.03229736 0.24943359 2.08544922 0.50390625 C18.09580208 4.46886408 32.69863914 11.20818187 46 21 C46.80179688 21.57878906 47.60359375 22.15757813 48.4296875 22.75390625 C58.16194125 30.14084639 67.08329107 39.2131091 74.9375 48.5625 C85.90406165 61.31559425 103.2512304 66.02240195 118.66113281 71.18457031 C143.39095035 79.66435866 164.20255724 96.010064 175.98754883 119.62304688 C187.13718868 143.20445847 188.48833796 169.73712732 179.83203125 194.31640625 C172.21666375 213.61359962 159.14692772 231.37816347 141 242 C139.34758078 242.70123673 137.68391983 243.37819921 136 244 C136.3609375 244.53367187 136.721875 245.06734375 137.09375 245.6171875 C140.72493199 251.44725192 142.21424364 256.14576489 141 263 C139.1911837 268.29508237 135.97636953 271.51181523 131 274 C123.18407489 276.33106538 117.22593249 273.18337574 110 270 C109.97421875 270.71285156 109.9484375 271.42570312 109.921875 272.16015625 C109.45844494 279.98580478 108.36567578 284.88059318 102.4375 290.375 C97.85226582 293.43182279 93.3514737 293.74470346 88 293 C83.29163924 291.23229964 80.0134751 288.65822859 77.5625 284.25 C75.7033009 279.95828049 75.21481075 275.6399123 75 271 C71.80495519 271.49922575 69.17272814 272.36642688 66.25 273.6875 C61.45589888 275.51124468 57.67719168 274.99493122 53 273 C49.41976328 270.72661775 46.76098279 268.25727591 44.5625 264.625 C43.36847914 259.05290264 43.4098729 254.1802542 46 249 C31.28982448 245.57902895 18.10522828 248.89445333 4.0078125 253.2734375 C-3.49734214 255.55077902 -11.12908529 257.17673408 -19 257 C-19.0825 257.886875 -19.165 258.77375 -19.25 259.6875 C-20.31022313 264.37015218 -22.51896626 266.69848551 -26.0625 269.8125 C-32.65364401 272.47700503 -39.20547361 271.5872861 -45.6875 269 C-47.13363419 268.35227582 -48.57477375 267.69251774 -50 267 C-49.95359375 267.556875 -49.9071875 268.11375 -49.859375 268.6875 C-49.57456402 274.70921786 -50.47133183 279.04691532 -54 284 C-57.82051324 288.02001785 -61.16452947 289.84704412 -66.75 290.3125 C-72.5536881 290.22715165 -76.27010991 287.77664388 -80.3125 283.625 C-83.87767587 278.07917087 -84.22091097 273.40641819 -84 267 C-84.59425781 267.28875 -85.18851562 267.5775 -85.80078125 267.875 C-92.21250722 270.74681505 -97.97716356 272.24754828 -105 271 C-109.64802813 268.93420972 -113.06319603 265.73440971 -115 261 C-116.47066081 255.40719501 -116.40214924 251.01336994 -113.5234375 245.9296875 C-110.61788062 242.24931546 -106.84557303 239.62945165 -103 237 C-106.27229886 233.63336459 -109.63285895 230.60032729 -113.3125 227.6875 C-127.9105293 215.79858428 -138.44312361 201.68273303 -147 185 C-147.49242187 184.04480469 -147.98484375 183.08960938 -148.4921875 182.10546875 C-163.4719338 151.07599428 -163.92675451 115.07628246 -152.95947266 82.80615234 C-141.43474995 50.70535344 -117.41327003 24.48242985 -86.78686523 9.64355469 C-59.73472431 -3.0345435 -29.26361346 -7.33214088 0 0 Z " fill="#E3E1E1" transform="translate(216,92)"/>
<path d="M0 0 C3.375 1.75 3.375 1.75 6 4 C6.68835938 4.58523438 7.37671875 5.17046875 8.0859375 5.7734375 C10.43351153 8.50428893 10.76329483 10.33286795 11.25 13.875 C11.39953125 14.88304687 11.5490625 15.89109375 11.703125 16.9296875 C11.99757503 19.97492068 12.05475777 22.94269116 12 26 C12.598125 25.505 13.19625 25.01 13.8125 24.5 C16 23 16 23 19 23 C19 22.01 19 21.02 19 20 C23.50614695 17.74692652 29.13718488 18.29639548 34 19 C38.608635 21.55333811 42.05942217 25.06377289 44 30 C44.23046875 32.21875 44.23046875 32.21875 44.1875 34.5 C44.18105469 35.2528125 44.17460937 36.005625 44.16796875 36.78125 C44.00303563 38.95990143 43.59600906 40.90204811 43 43 C42.34 43 41.68 43 41 43 C40.814375 43.556875 40.62875 44.11375 40.4375 44.6875 C38.60271095 47.63911717 36.35492291 48.9970494 33.4609375 50.8515625 C32.97882813 51.23054688 32.49671875 51.60953125 32 52 C32 52.66 32 53.32 32 54 C34.55656407 55.14304162 34.55656407 55.14304162 38 55 C41.30973451 53.04568057 44.09646551 50.5048262 47 48 C48.64347113 46.72611329 50.28934048 45.45531502 51.9375 44.1875 C56.65137605 40.43262846 60.81718978 36.2680158 64.96875 31.90625 C67 30 67 30 69 30 C69 29.34 69 28.68 69 28 C69.66 28 70.32 28 71 28 C68.83383205 32.75295104 65.51565713 36.193105 62 40 C61.37738281 40.67675781 60.75476563 41.35351562 60.11328125 42.05078125 C54.04207991 48.39290841 47.31755642 53.95663122 39 57 C39.3609375 57.53367187 39.721875 58.06734375 40.09375 58.6171875 C43.72493199 64.44725192 45.21424364 69.14576489 44 76 C42.1911837 81.29508237 38.97636953 84.51181523 34 87 C26.18407489 89.33106538 20.22593249 86.18337574 13 83 C12.97421875 83.71285156 12.9484375 84.42570312 12.921875 85.16015625 C12.45844494 92.98580478 11.36567578 97.88059318 5.4375 103.375 C0.85226582 106.43182279 -3.6485263 106.74470346 -9 106 C-13.70836076 104.23229964 -16.9865249 101.65822859 -19.4375 97.25 C-21.2966991 92.95828049 -21.78518925 88.6399123 -22 84 C-25.19504481 84.49922575 -27.82727186 85.36642688 -30.75 86.6875 C-35.54410112 88.51124468 -39.32280832 87.99493122 -44 86 C-47.58023672 83.72661775 -50.23901721 81.25727591 -52.4375 77.625 C-53.71480305 71.66425244 -53.2864848 67.71621201 -51 62 C-55.62 61.34 -60.24 60.68 -65 60 C-60.55640129 57.77820064 -59.41349782 57.99331701 -54.6875 58.6875 C-50.22026935 59.12970056 -47.46506952 59.34443122 -43.75 56.6875 C-41.02006581 54.31272376 -41.02006581 54.31272376 -40 52 C-39.01 52 -38.02 52 -37 52 C-37 51.01 -37 50.02 -37 49 C-37.825 49.28875 -38.65 49.5775 -39.5 49.875 C-44.04798492 50.03742803 -45.86964758 48.64809427 -49.29296875 45.80078125 C-52.4439719 42.47672529 -52.94375887 39.26169676 -53.0546875 34.80078125 C-52.76334411 29.08073938 -51.06711571 25.05612351 -47 21 C-42.5409455 17.9282069 -38.30479391 17.14438808 -33 18 C-29.25104846 19.14399974 -25.62330469 20.50805101 -22 22 C-21.91363281 21.21496094 -21.82726562 20.42992187 -21.73828125 19.62109375 C-20.6412462 11.41849225 -19.1244942 6.65312343 -12.8125 1.0625 C-8.52259605 -0.55813038 -4.52371677 -0.66076762 0 0 Z " fill="#A3A6CD" transform="translate(313,279)"/>
<path d="M0 0 C4.11578167 2.69175594 6.45377709 5.26758126 8.0390625 10.0234375 C8.5497985 13.68455498 8.84861414 17.33267953 9.0390625 21.0234375 C9.72871094 20.7346875 10.41835937 20.4459375 11.12890625 20.1484375 C17.77547952 17.52263077 23.99252478 15.24465787 31.01171875 17.71875 C35.40661814 19.93952719 37.89647357 22.65585237 40.0390625 27.0234375 C41.23847523 32.01511108 41.77999159 36.49494595 39.0390625 41.0234375 C36.11231603 44.86854723 33.1153476 48.35817417 29.0390625 51.0234375 C30.15617231 54.37476692 30.56847747 54.58896441 33.4140625 56.3359375 C38.17469985 59.57473176 39.74366409 63.54743515 41.0390625 69.0234375 C51.01470002 69.34523226 59.68650912 67.4120438 69.0390625 64.0234375 C69.6990625 64.6834375 70.3590625 65.3434375 71.0390625 66.0234375 C50.69863697 71.78939495 50.69863697 71.78939495 40.0390625 72.0234375 C39.9565625 72.9103125 39.8740625 73.7971875 39.7890625 74.7109375 C38.72883937 79.39358968 36.52009624 81.72192301 32.9765625 84.8359375 C26.38541849 87.50044253 19.83358889 86.6107236 13.3515625 84.0234375 C11.90542831 83.37571332 10.46428875 82.71595524 9.0390625 82.0234375 C9.08546875 82.5803125 9.131875 83.1371875 9.1796875 83.7109375 C9.46449848 89.73265536 8.56773067 94.07035282 5.0390625 99.0234375 C1.21854926 103.04345535 -2.12546697 104.87048162 -7.7109375 105.3359375 C-13.5146256 105.25058915 -17.23104741 102.80008138 -21.2734375 98.6484375 C-24.83861337 93.10260837 -25.18184847 88.42985569 -24.9609375 82.0234375 C-25.55519531 82.3121875 -26.14945313 82.6009375 -26.76171875 82.8984375 C-33.17344472 85.77025255 -38.93810106 87.27098578 -45.9609375 86.0234375 C-50.60896563 83.95764722 -54.02413353 80.75784721 -55.9609375 76.0234375 C-57.43159831 70.43063251 -57.36308674 66.03680744 -54.484375 60.953125 C-51.57881812 57.27275296 -47.80651053 54.65288915 -43.9609375 52.0234375 C-46.25446266 49.65823968 -48.4267326 47.42137572 -51.07421875 45.44921875 C-56.62607714 41.21876182 -56.62607714 41.21876182 -57.578125 37.8203125 C-57.77643236 31.34227202 -55.77416742 26.11562586 -51.5234375 21.2109375 C-46.95988692 17.31522359 -43.61405822 16.59965594 -37.7109375 16.6875 C-33.11825522 17.24853789 -29.11000374 19.04601019 -24.9609375 21.0234375 C-24.92226562 19.93675781 -24.92226562 19.93675781 -24.8828125 18.828125 C-24.52790959 12.77864357 -24.02795047 8.78765269 -19.9609375 4.0234375 C-19.3421875 3.2809375 -18.7234375 2.5384375 -18.0859375 1.7734375 C-12.72197965 -2.64393955 -6.15372155 -3.06460236 0 0 Z " fill="#9B9DC8" transform="translate(156.9609375,276.9765625)"/>
<path d="M0 0 C4.05074093 2.02537046 6.62318712 4.17614678 9 8 C9.73046875 11.234375 9.73046875 11.234375 10.1875 14.75 C10.34605469 15.92046875 10.50460938 17.0909375 10.66796875 18.296875 C10.83232422 19.63492188 10.83232422 19.63492188 11 21 C14.78268635 20.52716421 18.38254624 19.93725623 22.0625 18.9375 C27.00458432 17.69007602 30.41586358 17.20793179 35.125 19.5625 C38.44504372 22.37731968 40.79804307 24.80434912 42 29 C42.2974246 34.46971103 41.99230894 39.26345935 39.25 44.0625 C35.36133016 47.41107681 32.11494945 49.26929294 27 50 C27.66 50.33 28.32 50.66 29 51 C29 51.99 29 52.98 29 54 C29.680625 54.165 30.36125 54.33 31.0625 54.5 C35.75155797 56.89441258 39.63589869 61.27179739 42 66 C42.54035594 70.9252115 42.54435469 74.86941718 40.375 79.375 C36.90796782 83.20698294 34.43556131 85.70588201 29.12109375 86.34765625 C23.24523189 86.51347812 20.01919716 86.10712205 15 83 C13.68 83 12.36 83 11 83 C10.97421875 83.79664063 10.9484375 84.59328125 10.921875 85.4140625 C10.33165966 96.44035826 10.33165966 96.44035826 6 101 C1.41434643 104.41676149 -2.06040231 105.67578864 -7.79296875 105.3828125 C-12.75727872 104.52174635 -15.9248351 102.10273323 -19.4375 98.5 C-21.72678582 93.37199976 -21.32221417 88.53134328 -21 83 C-25.60055842 83.42451435 -25.60055842 83.42451435 -29.8671875 85.015625 C-34.25693054 87.04166025 -39.28628491 86.49917358 -44 86 C-48.53648124 83.97478516 -51.0805898 81.27924504 -53.30859375 76.92578125 C-54.93112023 72.40654082 -54.48107519 68.41492703 -52.9375 63.875 C-50.853258 60.7822538 -48.66907637 58.77763789 -45.78515625 56.45703125 C-43.34275898 54.46356477 -41.19426522 52.2607581 -39 50 C-40.0725 49.7525 -41.145 49.505 -42.25 49.25 C-47.61070727 47.46309758 -49.61150591 44.94232022 -52.25 40.125 C-53.9193718 36.49912446 -54.82086343 34.02223081 -54 30 C-51.70647394 25.44436604 -49.25794401 21.88323728 -45.0625 18.9375 C-38.39876424 16.89758089 -34.07841319 18.07586373 -28.11328125 21.22265625 C-25.62837929 22.13669597 -24.45309954 21.88045785 -22 21 C-21.91363281 20.13117188 -21.82726562 19.26234375 -21.73828125 18.3671875 C-20.31344174 6.68088915 -20.31344174 6.68088915 -15 2 C-10.30138507 -0.88141557 -5.34375323 -0.63505473 0 0 Z " fill="#C1C3E2" transform="translate(236,198)"/>
<path d="M0 0 C5 5 5 5 6.4140625 6.6484375 C8.96612691 8.82334954 11.24734814 8.34156538 14.47265625 8.2265625 C21.95865456 7.55548383 28.95619297 5.552104 36 3 C36.99 3.99 36.99 3.99 38 5 C17.65957447 10.76595745 17.65957447 10.76595745 7 11 C6.9175 11.886875 6.835 12.77375 6.75 13.6875 C5.68977687 18.37015218 3.48103374 20.69848551 -0.0625 23.8125 C-6.65364401 26.47700503 -13.20547361 25.5872861 -19.6875 23 C-21.13363419 22.35227582 -22.57477375 21.69251774 -24 21 C-23.95359375 21.556875 -23.9071875 22.11375 -23.859375 22.6875 C-23.57456402 28.70921786 -24.47133183 33.04691532 -28 38 C-31.82051324 42.02001785 -35.16452947 43.84704412 -40.75 44.3125 C-46.5536881 44.22715165 -50.27010991 41.77664388 -54.3125 37.625 C-57.80326029 32.19492844 -58.62205859 27.32426233 -58 21 C-55.43065333 18.05000938 -52.77104991 17.58016153 -49 17 C-48.01 16.67 -47.02 16.34 -46 16 C-45.30741771 14.00882592 -44.64252365 12.0078864 -44 10 C-42.625 8.0625 -42.625 8.0625 -41 7 C-37.12422831 7.37933085 -35.3990058 9.36108581 -32.75 12.0625 C-29.74670044 14.97406531 -29.74670044 14.97406531 -25.953125 16.38671875 C-24.63661135 16.29456279 -23.32207758 16.16875586 -22.01171875 16.01171875 C-19.44216118 15.99675045 -18.05715505 16.84000116 -15.8125 18.0625 C-9.9880555 20.97472225 -4.26019611 19.89016699 2 19 C2.06430989 17.00103421 2.06073147 14.99907771 2 13 C1.505 12.54625 1.01 12.0925 0.5 11.625 C-1.39089772 9.57652747 -1.23034853 8.67396676 -1.25 5.9375 C-1 2 -1 2 0 0 Z " fill="#8084B1" transform="translate(190,338)"/>
<path d="M0 0 C3.73164703 2.45931831 5.85258765 4.51093112 7.00390625 8.98828125 C4.98345183 8.38644376 2.98279586 7.71522029 1.00390625 6.98828125 C0.50890625 5.99828125 0.50890625 5.99828125 0.00390625 4.98828125 C-0.65609375 4.98828125 -1.31609375 4.98828125 -1.99609375 4.98828125 C-1.50109375 8.94828125 -1.50109375 8.94828125 -0.99609375 12.98828125 C-1.98609375 12.65828125 -2.97609375 12.32828125 -3.99609375 11.98828125 C-3.99609375 10.99828125 -3.99609375 10.00828125 -3.99609375 8.98828125 C-6.40486632 9.10169659 -6.40486632 9.10169659 -8.99609375 9.98828125 C-10.78578401 12.41500692 -10.78578401 12.41500692 -11.99609375 14.98828125 C-12.49109375 15.48328125 -12.49109375 15.48328125 -12.99609375 15.98828125 C-13.23328118 19.59880095 -13.39265056 23.20247874 -13.51367188 26.81835938 C-13.7828125 32.775 -13.7828125 32.775 -15.99609375 34.98828125 C-17.31609375 34.98828125 -18.63609375 34.98828125 -19.99609375 34.98828125 C-20.49109375 32.51328125 -20.49109375 32.51328125 -20.99609375 29.98828125 C-21.65609375 29.98828125 -22.31609375 29.98828125 -22.99609375 29.98828125 C-22.99609375 30.64828125 -22.99609375 31.30828125 -22.99609375 31.98828125 C-28.35435335 31.53419145 -31.41671367 30.8805213 -35.99609375 27.98828125 C-39.19004401 27.27426893 -39.19004401 27.27426893 -41.99609375 26.98828125 C-42.32609375 28.96828125 -42.65609375 30.94828125 -42.99609375 32.98828125 C-44.65224032 33.37046892 -46.32066399 33.70223227 -47.99609375 33.98828125 C-48.99609375 32.98828125 -48.99609375 32.98828125 -49.09375 29.828125 C-49.07634766 27.89646484 -49.07634766 27.89646484 -49.05859375 25.92578125 C-49.04957031 24.63542969 -49.04054688 23.34507812 -49.03125 22.015625 C-49.01964844 21.01660156 -49.00804688 20.01757812 -48.99609375 18.98828125 C-44.3787419 16.35280645 -40.20074214 16.35248613 -34.99609375 16.98828125 C-31.53296516 18.07050893 -28.26945009 19.42821355 -24.99609375 20.98828125 C-24.9703125 20.26382812 -24.94453125 19.539375 -24.91796875 18.79296875 C-24.56306584 12.74348732 -24.06310672 8.75249644 -19.99609375 3.98828125 C-19.37734375 3.24578125 -18.75859375 2.50328125 -18.12109375 1.73828125 C-12.74756604 -2.68697686 -6.14645945 -3.11532876 0 0 Z " fill="#ACAECB" transform="translate(156.99609375,277.01171875)"/>
<path d="M0 0 C2.10353495 -0.0810206 4.20795952 -0.13919907 6.3125 -0.1875 C7.48425781 -0.22230469 8.65601563 -0.25710938 9.86328125 -0.29296875 C13 0 13 0 14.85546875 1.07421875 C16.67528786 4.1362352 16.99619252 6.44762104 17 10 C13.23938892 15.19529507 7.70624683 19.98040911 1.4375 21.75 C-0.2640625 21.87375 -0.2640625 21.87375 -2 22 C-2.66 21.34 -3.32 20.68 -4 20 C-6.12498069 21.62280307 -6.12498069 21.62280307 -8 24 C-8.33448259 27.167832 -8.33448259 27.167832 -8 30 C-11.83961632 26.40810086 -12.92753519 24.49760605 -13.1875 19.125 C-13.26979243 15.30962382 -12.5659664 13.91491599 -11 10 C-15.62 9.34 -20.24 8.68 -25 8 C-20.55640129 5.77820064 -19.41349782 5.99331701 -14.6875 6.6875 C-10.22026935 7.12970056 -7.46506952 7.34443122 -3.75 4.6875 C-1.02006581 2.31272376 -1.02006581 2.31272376 0 0 Z " fill="#9D9FC0" transform="translate(273,331)"/>
<path d="M0 0 C2.91517292 1.07401108 4.77810176 1.77810176 7 4 C7.4140625 6.6015625 7.4140625 6.6015625 7.625 9.625 C7.69976562 10.62789063 7.77453125 11.63078125 7.8515625 12.6640625 C7.92503906 13.82035156 7.92503906 13.82035156 8 15 C9.03447266 14.566875 9.03447266 14.566875 10.08984375 14.125 C16.73641702 11.49919327 22.95346228 9.22122037 29.97265625 11.6953125 C34.36755564 13.91608969 36.85741107 16.63241487 39 21 C39.74810801 24.0130695 40.32482765 26.89937247 40 30 C38.50390625 31.76953125 38.50390625 31.76953125 37 33 C36.76216797 32.09507812 36.76216797 32.09507812 36.51953125 31.171875 C35.4296944 27.43873218 34.40967099 24.52489096 32 21.4375 C27.31127467 19.19081911 23.09081931 19.05650149 18 20 C15.1258081 21.39010643 12.60281514 22.94585364 9.99609375 24.78515625 C9.33738281 25.18605469 8.67867187 25.58695312 8 26 C7.34 25.67 6.68 25.34 6 25 C6 25.66 6 26.32 6 27 C5.01 27 4.02 27 3 27 C1.87672818 21.31398063 2.00652032 15.91509679 2.16015625 10.14453125 C2.26052232 6.83648593 2.26052232 6.83648593 0 4 C0 2.68 0 1.36 0 0 Z " fill="#9A9CBC" transform="translate(158,283)"/>
<path d="M0 0 C1.98 0 3.96 0 6 0 C5.67 1.32 5.34 2.64 5 4 C5.54269531 4.36351562 6.08539063 4.72703125 6.64453125 5.1015625 C11.08480195 8.22175272 14.2540284 10.64568708 16 16 C15.67 17.32 15.34 18.64 15 20 C13.35 17.69 11.7 15.38 10 13 C9.10869587 15.6739124 8.52268466 18.23723823 8 21 C3.87780896 21.73283396 1.88230928 21.50435203 -1.80859375 19.39453125 C-10.64030772 13.14313212 -10.64030772 13.14313212 -13 8 C-12.67 7.01 -12.34 6.02 -12 5 C-10.0390625 4.05078125 -10.0390625 4.05078125 -7.625 3.3125 C-6.83351562 3.06113281 -6.04203125 2.80976563 -5.2265625 2.55078125 C-3 2 -3 2 0 2 C0 1.34 0 0.68 0 0 Z " fill="#9396BB" transform="translate(181,326)"/>
<path d="M0 0 C0.99 0.33 1.98 0.66 3 1 C3.54241113 7.64453639 2.94958619 11.55597579 -1 17 C-5.62076316 21.28265854 -9.41258804 22.40589126 -15.57421875 22.35546875 C-19.65943337 21.75683021 -22.95966646 19.75336328 -26 17 C-26.33 16.01 -26.66 15.02 -27 14 C-26.236875 13.566875 -25.47375 13.13375 -24.6875 12.6875 C-22.41906232 11.26313215 -20.7800277 9.96739903 -19 8 C-18.34 8.33 -17.68 8.66 -17 9 C-14.71003214 9.09756755 -12.41704047 9.12976516 -10.125 9.125 C-8.89007813 9.12757813 -7.65515625 9.13015625 -6.3828125 9.1328125 C-3.69225511 9.02717861 -1.54370816 8.80529454 1 8 C0.67 5.36 0.34 2.72 0 0 Z " fill="#9396C3" transform="translate(322,363)"/>
<path d="M0 0 C5 5 5 5 6.4140625 6.6484375 C8.96612691 8.82334954 11.24734814 8.34156538 14.47265625 8.2265625 C21.95865456 7.55548383 28.95619297 5.552104 36 3 C36.99 3.99 36.99 3.99 38 5 C17.65957447 10.76595745 17.65957447 10.76595745 7 11 C6.9175 11.886875 6.835 12.77375 6.75 13.6875 C5.68977687 18.37015218 3.48103374 20.69848551 -0.0625 23.8125 C-6.65364401 26.47700503 -13.20547361 25.5872861 -19.6875 23 C-21.13363419 22.35227582 -22.57477375 21.69251774 -24 21 C-24 21.66 -24 22.32 -24 23 C-24.66 23 -25.32 23 -26 23 C-26.66 21.35 -27.32 19.7 -28 18 C-25 16 -25 16 -21.75 16.1875 C-18 17 -18 17 -14.875 18.625 C-9.61590308 21.12760474 -3.581471 19.69663473 2 19 C2.06430989 17.00103421 2.06073147 14.99907771 2 13 C1.505 12.54625 1.01 12.0925 0.5 11.625 C-1.39089772 9.57652747 -1.23034853 8.67396676 -1.25 5.9375 C-1 2 -1 2 0 0 Z " fill="#8A8AA5" transform="translate(190,338)"/>
<path d="M0 0 C1.15371094 -0.02578125 2.30742187 -0.0515625 3.49609375 -0.078125 C6.5625 0.25 6.5625 0.25 8.47265625 1.765625 C9.01212891 2.50039063 9.01212891 2.50039063 9.5625 3.25 C8.9025 4.9 8.2425 6.55 7.5625 8.25 C7.8925 8.58 8.2225 8.91 8.5625 9.25 C8.60313832 10.91617115 8.605221 12.58388095 8.5625 14.25 C3.92026398 13.62267081 3.92026398 13.62267081 2.0625 11.6875 C0.64058547 10.06963611 0.64058547 10.06963611 -1.5625 9.8125 C-4.44722621 10.25148008 -6.32405921 11.06221603 -8.9375 12.3125 C-12.6393336 14.0744009 -14.42982753 14.39504928 -18.4375 13.25 C-20.70607146 14.09077872 -20.70607146 14.09077872 -22.4375 15.25 C-22.7675 13.93 -23.0975 12.61 -23.4375 11.25 C-22.014375 10.3528125 -22.014375 10.3528125 -20.5625 9.4375 C-17.29785803 7.43437474 -17.29785803 7.43437474 -15.4375 4.25 C-15.4375 5.24 -15.4375 6.23 -15.4375 7.25 C-14.839375 6.755 -14.24125 6.26 -13.625 5.75 C-11.4375 4.25 -11.4375 4.25 -8.4375 4.25 C-8.4375 3.26 -8.4375 2.27 -8.4375 1.25 C-5.60720852 -0.16514574 -3.15370867 0.04219008 0 0 Z " fill="#B1B3CD" transform="translate(340.4375,297.75)"/>
<path d="M0 0 C-0.33 0.66 -0.66 1.32 -1 2 C-3.64860427 2.59355614 -6.29197322 2.74209269 -9 3 C-6.832172 7.23346882 -4.59876941 9.27456747 -0.5625 11.75 C0.38496094 12.34296875 1.33242188 12.9359375 2.30859375 13.546875 C4.61599678 14.7926717 6.44167738 15.54034866 9 16 C8.62875 15.0925 8.2575 14.185 7.875 13.25 C7 10 7 10 7.875 7.625 C8.24625 7.08875 8.6175 6.5525 9 6 C11.3125 6.125 11.3125 6.125 14 7 C17.56864958 11.7992184 17.76529409 17.22550821 17 23 C16.34 23.99 15.68 24.98 15 26 C15.33 23.36 15.66 20.72 16 18 C15.29488281 18.31839844 14.58976562 18.63679688 13.86328125 18.96484375 C8.92665913 20.74957071 4.15903068 20.88994952 -1 20 C-4.21402524 18.10481549 -6.51128875 15.75130907 -9 13 C-9.845625 12.319375 -10.69125 11.63875 -11.5625 10.9375 C-13 9 -13 9 -13.1875 5.9375 C-12 3 -12 3 -8.75 1.125 C-5.53234624 0.15970387 -3.30417972 -0.30037997 0 0 Z " fill="#9598BD" transform="translate(340,332)"/>
<path d="M0 0 C1.125 6.75 1.125 6.75 0 9 C-0.06996014 10.70702735 -0.08440154 12.41668003 -0.0625 14.125 C-0.04896484 15.49011719 -0.04896484 15.49011719 -0.03515625 16.8828125 C-0.02355469 17.58148438 -0.01195313 18.28015625 0 19 C0.99 19.33 1.98 19.66 3 20 C3.6875 22.0625 3.6875 22.0625 4 24 C10.80879114 25.81567764 15.65047186 23.67529847 22 21 C22 21.99 22 22.98 22 24 C20.02 24.99 18.04 25.98 16 27 C16.33 27.66 16.66 28.32 17 29 C11.88147237 30.70617588 5.87479305 31.24608835 0.828125 29.05859375 C-3.42432325 26.16002326 -6.20347694 23.02911324 -7.53515625 17.96484375 C-8.58587877 12.01755029 -7.43874987 7.93482936 -4 3 C-1.25791855 0 -1.25791855 0 0 0 Z " fill="#8184B7" transform="translate(108,333)"/>
<path d="M0 0 C2.97 0.33 5.94 0.66 9 1 C8.34 1.99 7.68 2.98 7 4 C6.81050781 4.99966797 6.81050781 4.99966797 6.6171875 6.01953125 C5.7762924 8.71784653 4.53479775 9.28840497 2.125 10.6875 C1.42632812 11.10386719 0.72765625 11.52023437 0.0078125 11.94921875 C-2 13 -2 13 -5 14 C-5.74259349 16.31029085 -6.411438 18.645752 -7 21 C-7.33 21.33 -7.66 21.66 -8 22 C-8.07148199 23.35243917 -8.08399454 24.70834367 -8.0625 26.0625 C-8.041875 27.361875 -8.02125 28.66125 -8 30 C-11.83961632 26.40810086 -12.92753519 24.49760605 -13.1875 19.125 C-13.26979243 15.30962382 -12.5659664 13.91491599 -11 10 C-15.62 9.34 -20.24 8.68 -25 8 C-20.55640129 5.77820064 -19.41349782 5.99331701 -14.6875 6.6875 C-10.22026935 7.12970056 -7.46506952 7.34443122 -3.75 4.6875 C-1.02006581 2.31272376 -1.02006581 2.31272376 0 0 Z " fill="#9F9EB3" transform="translate(273,331)"/>
<path d="M0 0 C0.80246854 3.20987416 1.11934909 5.33633522 1.09765625 8.546875 C1.09443359 9.39121094 1.09121094 10.23554688 1.08789062 11.10546875 C1.07951172 11.97816406 1.07113281 12.85085938 1.0625 13.75 C1.05798828 14.63816406 1.05347656 15.52632813 1.04882812 16.44140625 C1.037074 18.62767329 1.02064249 20.81380179 1 23 C-9.73822608 22.7898212 -9.73822608 22.7898212 -13.6875 19.6875 C-16 17 -16 17 -16 13 C-16.99 13 -17.98 13 -19 13 C-19 12.01 -19 11.02 -19 10 C-20.98 10.33 -22.96 10.66 -25 11 C-24 9 -24 9 -21 8 C-13.79677995 7.35685535 -8.69267373 9.32293051 -2 12 C-1.34 8.04 -0.68 4.08 0 0 Z " fill="#B2B4CD" transform="translate(293,289)"/>
<path d="M0 0 C3.125 1.5 3.125 1.5 5 3 C4.814375 3.721875 4.62875 4.44375 4.4375 5.1875 C3.98004693 8.12826973 4.26483643 10.14103058 5 13 C3.02 13.99 3.02 13.99 1 15 C0.01 14.34 -0.98 13.68 -2 13 C-1.67 11.02 -1.34 9.04 -1 7 C-4.14624993 6.73781251 -5.61837017 6.75245633 -8.3125 8.5 C-8.869375 8.995 -9.42625 9.49 -10 10 C-9.67 8.68 -9.34 7.36 -9 6 C-10.65 6.33 -12.3 6.66 -14 7 C-14 6.34 -14 5.68 -14 5 C-14.66 4.67 -15.32 4.34 -16 4 C-10.9073075 -0.28858316 -6.58091934 -0.95264556 0 0 Z " fill="#B5B7CF" transform="translate(313,279)"/>
<path d="M0 0 C0.99 0.33 1.98 0.66 3 1 C2.93152902 4.42354914 2.86734692 7.05238447 0.48046875 9.66015625 C-0.72491535 10.65237769 -1.95493003 11.61566111 -3.2109375 12.54296875 C-5.12894332 13.94991442 -5.12894332 13.94991442 -6.40234375 16.19140625 C-8 18 -8 18 -10.48046875 18.171875 C-11.37378906 18.03265625 -12.26710938 17.8934375 -13.1875 17.75 C-14.08855469 17.62109375 -14.98960938 17.4921875 -15.91796875 17.359375 C-16.60503906 17.24078125 -17.29210937 17.1221875 -18 17 C-17.9296875 15.28125 -17.9296875 15.28125 -17 13 C-14.72738563 11.34930312 -12.53750111 9.91090384 -10.125 8.5 C-4.30371957 5.10334903 -4.30371957 5.10334903 0 0 Z " fill="#878BB3" transform="translate(129,333)"/>
<path d="M0 0 C0 0.66 0 1.32 0 2 C2.31 2 4.62 2 7 2 C7 3.32 7 4.64 7 6 C5.35 6 3.7 6 2 6 C1.67 7.32 1.34 8.64 1 10 C-1.31 10.33 -3.62 10.66 -6 11 C-5.71572583 12.58467728 -5.42225182 14.1677057 -5.125 15.75 C-4.96257812 16.63171875 -4.80015625 17.5134375 -4.6328125 18.421875 C-4.03203736 20.86947744 -3.22002883 22.80599857 -2 25 C-5.52380045 23.42356296 -6.79677233 22.46188106 -8.375 18.875 C-9.20988159 13.69873412 -9.58638443 8.79478557 -6.91796875 4.09375 C-3.72214033 0 -3.72214033 0 0 0 Z " fill="#9C9DBC" transform="translate(269,301)"/>
<path d="M0 0 C0.99 0 1.98 0 3 0 C2.98839844 0.69867188 2.97679687 1.39734375 2.96484375 2.1171875 C2.95582031 3.02726562 2.94679687 3.93734375 2.9375 4.875 C2.92589844 5.77992188 2.91429687 6.68484375 2.90234375 7.6171875 C2.83750743 10.0168585 2.83750743 10.0168585 4 12 C4.375 15.4375 4.375 15.4375 4 19 C1.60259082 20.95578117 0.12413392 22 -3 22 C-4.84045145 16.47864565 -5.2055031 9.34198879 -3.2109375 3.8125 C-2.1875 2.1875 -2.1875 2.1875 0 0 Z " fill="#9295C5" transform="translate(137,281)"/>
<path d="M0 0 C8.94754427 0.34747745 8.94754427 0.34747745 13.125 2.9375 C15 5 15 5 15 7 C15.66 7 16.32 7 17 7 C16.25 8.9375 16.25 8.9375 15 11 C12.875 11.75 12.875 11.75 11 12 C10.67 11.34 10.34 10.68 10 10 C7.91388442 9.349461 7.91388442 9.349461 5.5 8.9375 C1.09393346 8.09393346 1.09393346 8.09393346 0 7 C-0.04092937 4.66702567 -0.04241723 2.33294775 0 0 Z " fill="#9395C1" transform="translate(143,369)"/>
<path d="M0 0 C0.66 0 1.32 0 2 0 C-0.16616795 4.75295104 -3.48434287 8.193105 -7 12 C-7.62261719 12.67675781 -8.24523437 13.35351562 -8.88671875 14.05078125 C-13.76465938 19.14639875 -19.07740793 23.18364785 -25 27 C-25.88300781 27.58136719 -26.76601563 28.16273438 -27.67578125 28.76171875 C-28.44277344 29.17035156 -29.20976562 29.57898438 -30 30 C-30.66 29.67 -31.32 29.34 -32 29 C-29.5952069 25.39281035 -26.91943126 23.1408192 -23.375 20.75 C-16.42224767 16.0430482 -10.34280202 10.45048071 -4.5 4.4375 C-2 2 -2 2 0 2 C0 1.34 0 0.68 0 0 Z " fill="#B5B2B0" transform="translate(382,307)"/>
<path d="M0 0 C3.73164703 2.45931831 5.85258765 4.51093112 7.00390625 8.98828125 C4.98345183 8.38644376 2.98279586 7.71522029 1.00390625 6.98828125 C0.67390625 6.32828125 0.34390625 5.66828125 0.00390625 4.98828125 C-0.65609375 4.98828125 -1.31609375 4.98828125 -1.99609375 4.98828125 C-2.32609375 5.97828125 -2.65609375 6.96828125 -2.99609375 7.98828125 C-3.65609375 6.99828125 -4.31609375 6.00828125 -4.99609375 4.98828125 C-9.61341624 3.62407233 -12.58257499 4.20185699 -16.99609375 5.98828125 C-16.99609375 5.32828125 -16.99609375 4.66828125 -16.99609375 3.98828125 C-17.65609375 3.65828125 -18.31609375 3.32828125 -18.99609375 2.98828125 C-14.22240081 -2.84623235 -6.44387664 -3.26607446 0 0 Z " fill="#ADAFC7" transform="translate(156.99609375,277.01171875)"/>
<path d="M0 0 C0.33 1.65 0.66 3.3 1 5 C-0.28813342 5.83878455 -1.58063256 6.67086783 -2.875 7.5 C-3.59429687 7.9640625 -4.31359375 8.428125 -5.0546875 8.90625 C-7 10 -7 10 -9 10 C-9 11.32 -9 12.64 -9 14 C-9.825 14.61875 -10.65 15.2375 -11.5 15.875 C-14.28702974 17.77327772 -14.28702974 17.77327772 -14.4375 20.875 C-13.98364237 24.11684022 -13.1637725 26.9450972 -12 30 C-16.91724138 25.24137931 -16.91724138 25.24137931 -17.25 20.25 C-17.15341401 15.38557854 -15.96952067 11.90291852 -12.3828125 8.4375 C-11.17521505 7.40093566 -9.94975574 6.38480459 -8.70703125 5.390625 C-6.82963587 3.92201362 -6.82963587 3.92201362 -4.75 1.625 C-3 0 -3 0 0 0 Z " fill="#A4A6C8" transform="translate(199,249)"/>
<path d="M0 0 C2.64 1.65 5.28 3.3 8 5 C8.33 4.34 8.66 3.68 9 3 C14.50366792 2.67625483 18.43672206 2.46713966 23 6 C22.67 7.32 22.34 8.64 22 10 C18.37 10 14.74 10 11 10 C11 9.01 11 8.02 11 7 C10.071875 7.20625 9.14375 7.4125 8.1875 7.625 C5 8 5 8 2 6 C0.8125 2.875 0.8125 2.875 0 0 Z " fill="#A8ABD6" transform="translate(265,321)"/>
<path d="M0 0 C0.66 0 1.32 0 2 0 C2.3125 2.16796875 2.3125 2.16796875 2 5 C-1.42112783 9.30785398 -6.04269605 14.24112729 -11.51171875 15.64453125 C-13.6875 15.625 -13.6875 15.625 -17 15 C-14.82551879 10.72449979 -12.60959147 8.79435627 -8.5 6.375 C-5.25939344 4.44980094 -2.64471977 2.66084611 0 0 Z " fill="#8C8FB8" transform="translate(288,336)"/>
<path d="M0 0 C1.34423339 1.65788785 2.67618483 3.32576317 4 5 C6.26407924 6.52898857 8.56832971 7.73740197 11 9 C11 10.32 11 11.64 11 13 C6.71947031 12.4308221 3.90496315 10.91990078 0.3125 8.5625 C-0.64011719 7.94503906 -1.59273438 7.32757813 -2.57421875 6.69140625 C-5 5 -5 5 -7 3 C-7 2.01 -7 1.02 -7 0 C-4.20824656 -1.39587672 -2.93876905 -0.97958968 0 0 Z " fill="#D0D1DC" transform="translate(338,335)"/>
<path d="M0 0 C4.28464064 1.25133682 8.31786421 3.28322415 12.11328125 5.6171875 C12.44328125 6.2771875 12.77328125 6.9371875 13.11328125 7.6171875 C1.59164116 6.83814422 1.59164116 6.83814422 -3.88671875 4.6171875 C-3.88671875 5.2771875 -3.88671875 5.9371875 -3.88671875 6.6171875 C-4.54671875 6.6171875 -5.20671875 6.6171875 -5.88671875 6.6171875 C-6.54671875 4.9671875 -7.20671875 3.3171875 -7.88671875 1.6171875 C-4.7005425 -0.50693 -3.65792898 -0.6422916 0 0 Z " fill="#888CC3" transform="translate(169.88671875,354.3828125)"/>
<path d="M0 0 C1.12029814 5.48946087 0.79217969 8.83430559 -1 14 C-2.65 14 -4.3 14 -6 14 C-5.34 16.97 -4.68 19.94 -4 23 C-7.48213554 19.51786446 -7.74709539 18.10108872 -8.13671875 13.41796875 C-7.92727605 9.71382503 -4.7966786 0 0 0 Z " fill="#7376A1" transform="translate(108,333)"/>
<path d="M0 0 C1.98 0 3.96 0 6 0 C6.3403125 1.670625 6.3403125 1.670625 6.6875 3.375 C7.59158119 7.11444906 7.59158119 7.11444906 10.375 8.3125 C11.24125 8.539375 12.1075 8.76625 13 9 C14.34050052 9.65213539 15.67661368 10.31379969 17 11 C17 12.32 17 13.64 17 15 C13 15 13 15 10.8125 12.875 C10.40257812 12.42511719 9.99265625 11.97523438 9.5703125 11.51171875 C6.44549967 8.50350341 2.65125243 6.31484631 -1 4 C-0.67 2.68 -0.34 1.36 0 0 Z " fill="#DDDEEB" transform="translate(254,252)"/>
<path d="M0 0 C0.99 0.33 1.98 0.66 3 1 C2.52433594 1.98033203 2.52433594 1.98033203 2.0390625 2.98046875 C0.7271334 6.79295445 0.54673638 10.30889571 0.375 14.3125 C0.33632813 15.05306641 0.29765625 15.79363281 0.2578125 16.55664062 C0.16418295 18.37071309 0.08103149 20.18532116 0 22 C-1.32 22 -2.64 22 -4 22 C-4.05425226 19.60385874 -4.09379027 17.20896147 -4.125 14.8125 C-4.14175781 14.13896484 -4.15851563 13.46542969 -4.17578125 12.77148438 C-4.21534972 8.71571594 -3.88770955 5.61040952 -2 2 C-1.34 1.34 -0.68 0.68 0 0 Z " fill="#7E81B0" transform="translate(297,286)"/>
<path d="M0 0 C4.875 1.875 4.875 1.875 6 3 C6.08631874 4.34267413 6.10706473 5.68974322 6.09765625 7.03515625 C6.09282227 8.24848633 6.09282227 8.24848633 6.08789062 9.48632812 C6.07951172 10.33646484 6.07113281 11.18660156 6.0625 12.0625 C6.05798828 12.91650391 6.05347656 13.77050781 6.04882812 14.65039062 C6.03700373 16.76695663 6.01906769 18.88348685 6 21 C5.34 21.33 4.68 21.66 4 22 C3.34 21.67 2.68 21.34 2 21 C2.02320313 20.02417969 2.04640625 19.04835938 2.0703125 18.04296875 C2.08835938 16.77066406 2.10640625 15.49835938 2.125 14.1875 C2.14820313 12.92292969 2.17140625 11.65835937 2.1953125 10.35546875 C2.27581918 6.8661976 2.27581918 6.8661976 0 4 C0 2.68 0 1.36 0 0 Z " fill="#7C7FAD" transform="translate(158,283)"/>
<path d="M0 0 C0.66 0.33 1.32 0.66 2 1 C2.3125 3.3125 2.3125 3.3125 2 6 C1.175 6.4125 0.35 6.825 -0.5 7.25 C-3.16576446 8.69658063 -3.16576446 8.69658063 -3.4375 10.97265625 C-3.57325588 16.05501694 -2.68574881 19.59537195 0 24 C0.33 24.66 0.66 25.32 1 26 C-2.83641483 24.49283703 -4.85990819 22.51586512 -7 19 C-7.66323836 13.1256031 -6.8494144 9.29176961 -4 4 C-1.8125 1.5625 -1.8125 1.5625 0 0 Z " fill="#8688AB" transform="translate(107,297)"/>
<path d="M0 0 C4.82711923 -0.33677576 6.95737945 0.49742538 11 3 C13.64843209 3.81680616 16.28928362 4.40272351 19 5 C19 4.34 19 3.68 19 3 C19.66 3 20.32 3 21 3 C21.38218767 4.65614657 21.71395102 6.32457024 22 8 C21.67 8.33 21.34 8.66 21 9 C12.64492811 9 6.80230047 5.69600439 0 1 C0 0.67 0 0.34 0 0 Z " fill="#9699BF" transform="translate(115,304)"/>
<path d="M0 0 C2.97 0.99 5.94 1.98 9 3 C9 3.99 9 4.98 9 6 C5.7309841 9.1782099 4.67834007 10 0 10 C0 9.01 0 8.02 0 7 C-0.66 7 -1.32 7 -2 7 C-2.125 4.625 -2.125 4.625 -2 2 C-1.34 1.34 -0.68 0.68 0 0 Z " fill="#A4A6C2" transform="translate(110,331)"/>
<path d="M0 0 C0.33 0 0.66 0 1 0 C5.31096105 20.29306054 1.71177436 41.46962748 -7 60 C-7.66 59.01 -8.32 58.02 -9 57 C-8.54753906 56.46503906 -8.09507812 55.93007813 -7.62890625 55.37890625 C-5.74290707 52.62453335 -4.89642676 50.13262843 -3.9375 46.9375 C-3.61652344 45.89464844 -3.29554688 44.85179687 -2.96484375 43.77734375 C-0.3816882 33.66434205 0.26051382 24.25227603 0.125 13.8125 C0.1149393 12.46550153 0.10581897 11.11849569 0.09765625 9.77148438 C0.07430604 6.51412979 0.0415577 3.25716451 0 0 Z " fill="#D6D4D2" transform="translate(399,235)"/>
<path d="M0 0 C0 0.99 0 1.98 0 3 C0.66 3 1.32 3 2 3 C2.33 4.65 2.66 6.3 3 8 C2.01 7.67 1.02 7.34 0 7 C0 6.01 0 5.02 0 4 C-2.43717258 4.27034634 -2.43717258 4.27034634 -5 5 C-5.99 6.485 -5.99 6.485 -7 8 C-7 6.68 -7 5.36 -7 4 C-8.32 4 -9.64 4 -11 4 C-11.33 2.68 -11.66 1.36 -12 0 C-7.44729118 -2.48329572 -4.775353 -1.68541871 0 0 Z " fill="#B6B8D4" transform="translate(153,282)"/>
<path d="M0 0 C2.93200474 2.85276137 5.64315404 5.65079784 8 9 C7.34 9 6.68 9 6 9 C6 10.65 6 12.3 6 14 C5.34 14 4.68 14 4 14 C3.67 15.32 3.34 16.64 3 18 C2.566875 16.576875 2.566875 16.576875 2.125 15.125 C1.23174891 11.94788422 1.23174891 11.94788422 -1 10 C-1.23046875 8.125 -1.23046875 8.125 -1.1875 6 C-1.18105469 5.29875 -1.17460937 4.5975 -1.16796875 3.875 C-1 2 -1 2 0 0 Z " fill="#8C8FB6" transform="translate(190,338)"/>
<path d="M0 0 C1.65 0 3.3 0 5 0 C5.09667969 0.60585938 5.19335938 1.21171875 5.29296875 1.8359375 C6.15279231 4.46766264 7.03459469 5.11290012 9.3125 6.625 C9.93898437 7.04394531 10.56546875 7.46289062 11.2109375 7.89453125 C13.09112489 9.05630643 14.97577063 10.10933908 17 11 C17 11.99 17 12.98 17 14 C13.12211569 13.47596158 11.68995676 12.71582173 9 10 C6.65078972 8.47849075 4.26524175 7.03423549 1.86328125 5.59765625 C1.24839844 5.07042969 0.63351563 4.54320312 0 4 C0 2.68 0 1.36 0 0 Z " fill="#C9CAD8" transform="translate(173,331)"/>
<path d="M0 0 C10.08283776 4.95428325 19.82115842 12.28606022 27 21 C27.33 21.99 27.66 22.98 28 24 C25.13302508 22.71480435 23.02392288 21.42870746 21 19 C21 18.34 21 17.68 21 17 C20.41476562 16.73703125 19.82953125 16.4740625 19.2265625 16.203125 C16.90024319 14.94609632 15.29269508 13.56160982 13.375 11.75 C8.97446245 7.7895162 4.15162845 4.88195608 -1 2 C-0.67 1.34 -0.34 0.68 0 0 Z " fill="#EEEDEC" transform="translate(352,171)"/>
<path d="M0 0 C11.32804854 6.53369729 20.82692758 14.78365948 29 25 C25.86127187 23.62552428 23.97529258 22.09222007 21.6875 19.5625 C17.28404824 15.00893057 12.33763824 11.42570541 7.19213867 7.76977539 C6.5654126 7.3236792 5.93868652 6.87758301 5.29296875 6.41796875 C4.7311792 6.02375732 4.16938965 5.6295459 3.59057617 5.22338867 C1.91281758 3.9329438 0.46405343 2.52591873 -1 1 C-0.67 0.67 -0.34 0.34 0 0 Z " fill="#F1F0EF" transform="translate(254,108)"/>
<path d="M0 0 C1.32 0 2.64 0 4 0 C4 0.66 4 1.32 4 2 C4.680625 2.165 5.36125 2.33 6.0625 2.5 C10.4080485 4.71900349 13.33352538 7.93249635 16 12 C16.4375 15.5 16.4375 15.5 16 18 C15.67 18 15.34 18 15 18 C14.34 15.36 13.68 12.72 13 10 C11.96875 9.79375 10.9375 9.5875 9.875 9.375 C5.30508249 8.09058327 3.04643521 5.56655829 0 2 C0 1.34 0 0.68 0 0 Z " fill="#B5B8D3" transform="translate(261,250)"/>
<path d="M0 0 C0.66 0.33 1.32 0.66 2 1 C2.04241723 3.33294775 2.04092937 5.66702567 2 8 C1.67 8.33 1.34 8.66 1 9 C0.92851801 10.35243917 0.91600546 11.70834367 0.9375 13.0625 C0.958125 14.361875 0.97875 15.66125 1 17 C-1.30142435 15.21825212 -2.80034391 13.83695835 -3.48828125 10.953125 C-3.72323102 8.9753389 -3.86751458 6.98728128 -4 5 C-3.34 5 -2.68 5 -2 5 C-1.7834375 4.0409375 -1.7834375 4.0409375 -1.5625 3.0625 C-1 1 -1 1 0 0 Z " fill="#666A9A" transform="translate(264,344)"/>
<path d="M0 0 C0 0.66 0 1.32 0 2 C-1.32 2 -2.64 2 -4 2 C-4.33 2.99 -4.66 3.98 -5 5 C-6.84765625 6.16796875 -6.84765625 6.16796875 -9.0625 7.1875 C-9.79597656 7.53167969 -10.52945313 7.87585938 -11.28515625 8.23046875 C-11.85105469 8.48441406 -12.41695312 8.73835938 -13 9 C-13.99 8.01 -14.98 7.02 -16 6 C-10.59422159 1.88131168 -6.91995707 -0.88339877 0 0 Z " fill="#ADAFCF" transform="translate(183,302)"/>
<path d="M0 0 C0.33 0.99 0.66 1.98 1 3 C-0.98 3.99 -2.96 4.98 -5 6 C-4.67 6.66 -4.34 7.32 -4 8 C-8.25566547 9.16063604 -11.6835078 8.76173392 -16 8 C-15.67 7.01 -15.34 6.02 -15 5 C-12.890625 4.12109375 -12.890625 4.12109375 -10.25 3.4375 C-6.72311061 2.47745848 -3.36158801 1.45668814 0 0 Z " fill="#888BBE" transform="translate(129,354)"/>
<path d="M0 0 C-0.99 1.98 -1.98 3.96 -3 6 C-2.2575 6.268125 -1.515 6.53625 -0.75 6.8125 C1.86636554 7.94229421 3.80187111 9.20893202 6 11 C4.296875 11.70703125 4.296875 11.70703125 2 12 C-0.359375 10.63671875 -0.359375 10.63671875 -2.75 8.6875 C-3.54921875 8.05199219 -4.3484375 7.41648437 -5.171875 6.76171875 C-5.77515625 6.18035156 -6.3784375 5.59898437 -7 5 C-7 4.34 -7 3.68 -7 3 C-7.66 2.34 -8.32 1.68 -9 1 C-2.25 -1.125 -2.25 -1.125 0 0 Z " fill="#9699C0" transform="translate(184,329)"/>
<path d="M0 0 C2.22265625 1.265625 2.22265625 1.265625 3.0390625 3.40625 C3.09964844 4.01984375 3.16023438 4.6334375 3.22265625 5.265625 C2.66578125 4.976875 2.10890625 4.688125 1.53515625 4.390625 C-3.56580118 1.90907814 -7.91732383 0.90118094 -13.58984375 0.640625 C-14.28271484 0.60195313 -14.97558594 0.56328125 -15.68945312 0.5234375 C-17.3850139 0.42988932 -19.08114087 0.34670136 -20.77734375 0.265625 C-17.34919947 -6.59066356 -5.32628791 -1.8462511 0 0 Z " fill="#C4C4D6" transform="translate(288.77734375,299.734375)"/>
<path d="M0 0 C0.721875 0.103125 1.44375 0.20625 2.1875 0.3125 C2.1875 1.3025 2.1875 2.2925 2.1875 3.3125 C2.8475 3.6425 3.5075 3.9725 4.1875 4.3125 C3.1975 4.3125 2.2075 4.3125 1.1875 4.3125 C1.06375 4.951875 0.94 5.59125 0.8125 6.25 C0.60625 6.930625 0.4 7.61125 0.1875 8.3125 C-0.8025 8.8075 -0.8025 8.8075 -1.8125 9.3125 C-3.7925 7.9925 -5.7725 6.6725 -7.8125 5.3125 C-3.50480769 0.38942308 -3.50480769 0.38942308 0 0 Z " fill="#B4B6CB" transform="translate(347.8125,333.6875)"/>
<path d="M0 0 C5.50366792 -0.32374517 9.43672206 -0.53286034 14 3 C13.67 4.32 13.34 5.64 13 7 C9.37 7 5.74 7 2 7 C2 6.34 2 5.68 2 5 C4.64 5 7.28 5 10 5 C10 4.01 10 3.02 10 2 C6.7 2 3.4 2 0 2 C0 1.34 0 0.68 0 0 Z " fill="#B4B6DC" transform="translate(274,324)"/>
<path d="M0 0 C1.32 0.66 2.64 1.32 4 2 C2.42210402 3.15330947 0.8374518 4.29737927 -0.75 5.4375 C-1.63171875 6.07558594 -2.5134375 6.71367187 -3.421875 7.37109375 C-5.72699125 8.8275081 -7.34349572 9.55931821 -10 10 C-7.59983652 5.05848696 -4.47726973 2.95668756 0 0 Z " fill="#A9A6A4" transform="translate(360,327)"/>
<path d="M0 0 C0.66 0 1.32 0 2 0 C1.67 1.98 1.34 3.96 1 6 C0.34 6 -0.32 6 -1 6 C-2.87525531 9.16449334 -3.1825313 11.34937407 -3 15 C-3 16.32 -3 17.64 -3 19 C-5.10827055 15.83759418 -5.33817465 14.49342531 -5.625 10.8125 C-5.69976562 9.91144531 -5.77453125 9.01039063 -5.8515625 8.08203125 C-5.90054687 7.39496094 -5.94953125 6.70789063 -6 6 C-5.34 6 -4.68 6 -4 6 C-3.71125 5.38125 -3.4225 4.7625 -3.125 4.125 C-2 2 -2 2 0 0 Z " fill="#5F6398" transform="translate(297,356)"/>
<path d="M0 0 C1.4835001 0.42257276 2.96176424 0.86356322 4.4375 1.3125 C5.67306641 1.67794922 5.67306641 1.67794922 6.93359375 2.05078125 C7.61550781 2.36402344 8.29742187 2.67726563 9 3 C9.33 3.99 9.66 4.98 10 6 C10.66 6.33 11.32 6.66 12 7 C11.01 8.485 11.01 8.485 10 10 C7.03 9.505 7.03 9.505 4 9 C4.268125 8.443125 4.53625 7.88625 4.8125 7.3125 C4.874375 6.549375 4.93625 5.78625 5 5 C2.64573501 2.22877725 2.64573501 2.22877725 0 0 Z " fill="#7579B0" transform="translate(108,323)"/>
<path d="M0 0 C2.0625 0.4375 2.0625 0.4375 4 1 C1.96630002 2.18280474 -0.07512682 3.34583227 -2.125 4.5 C-3.83042969 5.47453125 -3.83042969 5.47453125 -5.5703125 6.46875 C-9.07255928 8.03239549 -11.22174563 8.32155356 -15 8 C-14.67 7.01 -14.34 6.02 -14 5 C-11.09375 3.8671875 -11.09375 3.8671875 -7.5 2.875 C-3.44079341 2.03111604 -3.44079341 2.03111604 0 0 Z " fill="#9C9FC4" transform="translate(336,307)"/>
<path d="M0 0 C-0.33 4.29 -0.66 8.58 -1 13 C-1.33 13 -1.66 13 -2 13 C-2.33 11.02 -2.66 9.04 -3 7 C-3.99 7.495 -3.99 7.495 -5 8 C-5.33 8.99 -5.66 9.98 -6 11 C-6.66 11 -7.32 11 -8 11 C-7.125 5.25 -7.125 5.25 -6 3 C-1.38461538 0 -1.38461538 0 0 0 Z " fill="#9090B1" transform="translate(268,338)"/>
<path d="M0 0 C0.66 0.33 1.32 0.66 2 1 C1.34 1.66 0.68 2.32 0 3 C-2.74561602 7.11842403 -2.54367526 9.10692268 -2 14 C-0.66169042 16.4595774 -0.66169042 16.4595774 1 18 C0.67 18.66 0.34 19.32 0 20 C-3.02348737 17.73238447 -4.70689482 16.37533971 -5.5078125 12.6171875 C-5.79373195 6.23165303 -5.79373195 6.23165303 -3.8671875 3.2421875 C-2.5 1.875 -2.5 1.875 0 0 Z " fill="#7F80A8" transform="translate(266,306)"/>
<path d="M0 0 C3.25917414 1.70718645 4.68077154 3.25034712 6.625 6.375 C7.375 10.1875 7.375 10.1875 7.625 13.375 C4.69880123 10.59685296 2.4650219 7.48721813 0.125 4.21484375 C-1.42553054 2.12870919 -1.42553054 2.12870919 -4.375 0.375 C-2.375 -0.625 -2.375 -0.625 0 0 Z " fill="#A3A4BE" transform="translate(189.375,332.625)"/>
<path d="M0 0 C0 1.32 0 2.64 0 4 C-1.65 4 -3.3 4 -5 4 C-5.33 5.32 -5.66 6.64 -6 8 C-7.98 8.33 -9.96 8.66 -12 9 C-11.67 8.01 -11.34 7.02 -11 6 C-10.34 6 -9.68 6 -9 6 C-8.7525 5.38125 -8.505 4.7625 -8.25 4.125 C-6.18429402 0.61329983 -3.97005001 0 0 0 Z " fill="#9194C0" transform="translate(276,303)"/>
<path d="M0 0 C2.64 0.33 5.28 0.66 8 1 C7.01 2.485 7.01 2.485 6 4 C5.36707617 6.11280345 5.36707617 6.11280345 5 8 C3.68 8.33 2.36 8.66 1 9 C1.66 7.68 2.32 6.36 3 5 C1.68 5 0.36 5 -1 5 C-1 4.34 -1 3.68 -1 3 C-0.34 3 0.32 3 1 3 C0.67 2.01 0.34 1.02 0 0 Z " fill="#8285B4" transform="translate(274,331)"/>
<path d="M0 0 C1.15371094 -0.02578125 2.30742187 -0.0515625 3.49609375 -0.078125 C6.5625 0.25 6.5625 0.25 8.47265625 1.765625 C8.83230469 2.25546875 9.19195312 2.7453125 9.5625 3.25 C8.9025 3.91 8.2425 4.57 7.5625 5.25 C7.5625 4.59 7.5625 3.93 7.5625 3.25 C6.14706585 3.05341192 4.73005969 2.86812454 3.3125 2.6875 C2.52359375 2.58308594 1.7346875 2.47867187 0.921875 2.37109375 C-1.42358686 2.12393423 -1.42358686 2.12393423 -3.546875 2.84765625 C-4.17078125 2.98042969 -4.7946875 3.11320312 -5.4375 3.25 C-6.4275 2.59 -7.4175 1.93 -8.4375 1.25 C-5.60720852 -0.16514574 -3.15370867 0.04219008 0 0 Z " fill="#C4C5D6" transform="translate(340.4375,297.75)"/>
<path d="M0 0 C3.05890398 1.01963466 4.1269304 1.46389692 6 4 C6.29296875 6.69921875 6.29296875 6.69921875 6.1875 9.6875 C6.16042969 10.68136719 6.13335937 11.67523438 6.10546875 12.69921875 C6.07066406 13.45847656 6.03585938 14.21773438 6 15 C5.67 15 5.34 15 5 15 C4.80664062 14.37351562 4.61328125 13.74703125 4.4140625 13.1015625 C4.15367187 12.28429687 3.89328125 11.46703125 3.625 10.625 C3.36976563 9.81289063 3.11453125 9.00078125 2.8515625 8.1640625 C2.10145717 5.83540815 2.10145717 5.83540815 0 4 C0 2.68 0 1.36 0 0 Z " fill="#6B6E9F" transform="translate(190,301)"/>
<path d="M0 0 C8.86733518 0.08085716 8.86733518 0.08085716 12.6953125 3.3984375 C12.6953125 4.0584375 12.6953125 4.7184375 12.6953125 5.3984375 C12.0353125 5.3984375 11.3753125 5.3984375 10.6953125 5.3984375 C10.6953125 4.7384375 10.6953125 4.0784375 10.6953125 3.3984375 C5.4153125 3.3984375 0.1353125 3.3984375 -5.3046875 3.3984375 C-2.3046875 0.3984375 -2.3046875 0.3984375 0 0 Z " fill="#C8C9D7" transform="translate(305.3046875,278.6015625)"/>
<path d="M0 0 C2.64 0 5.28 0 8 0 C7.34 1.32 6.68 2.64 6 4 C4.741875 4.04125 3.48375 4.0825 2.1875 4.125 C1.47980469 4.14820313 0.77210938 4.17140625 0.04296875 4.1953125 C-2 4 -2 4 -5 2 C-3.35 2 -1.7 2 0 2 C0 1.34 0 0.68 0 0 Z " fill="#7578AB" transform="translate(147,378)"/>
<path d="M0 0 C0.99 0.33 1.98 0.66 3 1 C3.17835515 5.54805635 2.99785435 8.8794254 1 13 C0.34 12.67 -0.32 12.34 -1 12 C-0.67 8.04 -0.34 4.08 0 0 Z " fill="#6D709D" transform="translate(163,360)"/>
<path d="M0 0 C0.99 0 1.98 0 3 0 C3 1.98 3 3.96 3 6 C0.08517222 6.80967438 -1.46113217 7.21845993 -4.3125 6.0625 C-4.869375 5.711875 -5.42625 5.36125 -6 5 C-6 4.67 -6 4.34 -6 4 C-4.02 4 -2.04 4 0 4 C0 2.68 0 1.36 0 0 Z " fill="#9B9FC4" transform="translate(294,308)"/>
<path d="M0 0 C0.53625 0.495 1.0725 0.99 1.625 1.5 C-1.48247694 3.05373847 -4.11726527 2.08528628 -7.5 1.5625 C-8.78132813 1.36785156 -10.06265625 1.17320312 -11.3828125 0.97265625 C-12.37023437 0.81667969 -13.35765625 0.66070312 -14.375 0.5 C-14.375 0.17 -14.375 -0.16 -14.375 -0.5 C-3.93902439 -2.48780488 -3.93902439 -2.48780488 0 0 Z " fill="#C8C9DA" transform="translate(270.375,217.5)"/>
<path d="M0 0 C0.66 0 1.32 0 2 0 C2 0.66 2 1.32 2 2 C3.32 2.33 4.64 2.66 6 3 C2.88168876 5.77183221 1.12237116 6.2169669 -3 6 C-3.99 6.495 -3.99 6.495 -5 7 C-5 6.01 -5 5.02 -5 4 C-4.360625 3.71125 -3.72125 3.4225 -3.0625 3.125 C-0.84793921 2.17176549 -0.84793921 2.17176549 0 0 Z " fill="#8B8FC0" transform="translate(138,351)"/>
<path d="M0 0 C0.99 0.33 1.98 0.66 3 1 C2.525625 1.5775 2.05125 2.155 1.5625 2.75 C-1.12772045 6.62391744 -1.11773103 10.11059326 -1.0625 14.75 C-1.05347656 15.73484375 -1.04445312 16.7196875 -1.03515625 17.734375 C-1.02355469 18.48203125 -1.01195312 19.2296875 -1 20 C-3.75874035 17.24125965 -3.29943408 15.53323529 -3.3125 11.6875 C-3.32925781 10.55699219 -3.34601563 9.42648437 -3.36328125 8.26171875 C-2.97122864 4.74167653 -2.03261266 2.85852914 0 0 Z " fill="#8B8DB4" transform="translate(136,282)"/>
<path d="M0 0 C3.60244452 0.30878096 4.99345998 0.99447732 7.8125 3.375 C10 6 10 6 10 9 C9.278125 8.401875 8.55625 7.80375 7.8125 7.1875 C5.08685797 4.9647189 5.08685797 4.9647189 2.1875 3.375 C1.465625 2.92125 0.74375 2.4675 0 2 C0 1.34 0 0.68 0 0 Z " fill="#9D9EBC" transform="translate(153,277)"/>
<path d="M0 0 C-0.61277612 2.96175123 -1.25372522 4.38058783 -3 7 C-3.99 7 -4.98 7 -6 7 C-6 5.02 -6 3.04 -6 1 C-4 0 -4 0 0 0 Z " fill="#DCDDEC" transform="translate(245,224)"/>
<path d="M0 0 C3 1 3 1 4.25 3.125 C5.18252152 6.69966583 4.70486964 9.40516483 4 13 C3.67 13 3.34 13 3 13 C1.90154282 8.67940177 0.82187261 4.38332057 0 0 Z " fill="#6E72A2" transform="translate(158,283)"/>
<path d="M0 0 C0.33 0 0.66 0 1 0 C1 3.96 1 7.92 1 12 C-0.65 12.33 -2.3 12.66 -4 13 C-4.66 12.01 -5.32 11.02 -6 10 C-4.35 9.34 -2.7 8.68 -1 8 C-0.67 5.36 -0.34 2.72 0 0 Z " fill="#B1B4D2" transform="translate(215,211)"/>
<path d="M0 0 C3.12375469 1.35610085 4.9310969 2.79456016 7.0625 5.4375 C8.9460952 7.75077474 10.85797194 9.9215336 13 12 C10 12 10 12 8.02734375 10.390625 C7.33769531 9.68421875 6.64804688 8.9778125 5.9375 8.25 C5.24527344 7.55390625 4.55304688 6.8578125 3.83984375 6.140625 C2.13095371 4.15236228 1.03957488 2.39156086 0 0 Z " fill="#A19D9B" transform="translate(87,303)"/>
<path d="M0 0 C0.99 0 1.98 0 3 0 C3.33 1.65 3.66 3.3 4 5 C1.625 6.5625 1.625 6.5625 -1 8 C-1.66 7.67 -2.32 7.34 -3 7 C-2.01 4.69 -1.02 2.38 0 0 Z " fill="#9B9EC6" transform="translate(196,249)"/>
<path d="M0 0 C1.98 0.495 1.98 0.495 4 1 C4.33 2.32 4.66 3.64 5 5 C1.25 6.125 1.25 6.125 -1 5 C-0.67 3.35 -0.34 1.7 0 0 Z " fill="#DEDFED" transform="translate(267,225)"/>
<path d="M0 0 C1.50433594 0.01353516 1.50433594 0.01353516 3.0390625 0.02734375 C3.80992187 0.03894531 4.58078125 0.05054688 5.375 0.0625 C5.375 0.3925 5.375 0.7225 5.375 1.0625 C4.62734375 1.17207031 3.8796875 1.28164062 3.109375 1.39453125 C2.12453125 1.55308594 1.1396875 1.71164063 0.125 1.875 C-0.84953125 2.02582031 -1.8240625 2.17664063 -2.828125 2.33203125 C-5.67878607 2.88708239 -5.67878607 2.88708239 -7.796875 4.69921875 C-8.40015625 5.14910156 -9.0034375 5.59898437 -9.625 6.0625 C-10.615 5.7325 -11.605 5.4025 -12.625 5.0625 C-7.99968483 1.28921657 -5.97338425 -0.06945796 0 0 Z " fill="#CBCCDC" transform="translate(230.625,197.9375)"/>
<path d="M0 0 C1.92578125 0.26953125 1.92578125 0.26953125 4.3125 0.8125 C5.09238281 0.98394531 5.87226563 1.15539062 6.67578125 1.33203125 C8.966995 1.99051453 10.90892089 2.8659365 13 4 C13 4.66 13 5.32 13 6 C11.22739369 5.54857225 9.4569632 5.08859477 7.6875 4.625 C6.20830078 4.24214844 6.20830078 4.24214844 4.69921875 3.8515625 C2 3 2 3 -1 1 C-0.67 0.67 -0.34 0.34 0 0 Z " fill="#F1F0F0" transform="translate(221,94)"/>
<path d="M0 0 C0.99 0.33 1.98 0.66 3 1 C3.05447047 2.41623216 3.09300508 3.83308191 3.125 5.25 C3.14820313 6.03890625 3.17140625 6.8278125 3.1953125 7.640625 C2.9828378 10.20731941 2.28654105 11.7916067 1 14 C-0.38226016 11.23547967 -0.09525387 8.9538637 -0.0625 5.875 C-0.05347656 4.77929688 -0.04445313 3.68359375 -0.03515625 2.5546875 C-0.02355469 1.71164062 -0.01195312 0.86859375 0 0 Z " fill="#7477A6" transform="translate(322,363)"/>
<path d="M0 0 C2.475 0.495 2.475 0.495 5 1 C5 2.65 5 4.3 5 6 C3.35 5.67 1.7 5.34 0 5 C0 3.35 0 1.7 0 0 Z " fill="#D4D5E3" transform="translate(344,306)"/>
<path d="M0 0 C1.65 0.33 3.3 0.66 5 1 C4.67 2.65 4.34 4.3 4 6 C1.525 5.01 1.525 5.01 -1 4 C-0.67 2.68 -0.34 1.36 0 0 Z " fill="#D5D6E6" transform="translate(312,288)"/>
<path d="M0 0 C0.66 0 1.32 0 2 0 C2.6875 1.8125 2.6875 1.8125 3 4 C1.8125 5.8125 1.8125 5.8125 0 7 C-2.1875 6.6875 -2.1875 6.6875 -4 6 C-4 5.34 -4 4.68 -4 4 C-3.01 4 -2.02 4 -1 4 C-0.67 2.68 -0.34 1.36 0 0 Z " fill="#ABADD1" transform="translate(271,307)"/>
<path d="M0 0 C-0.99 0.66 -1.98 1.32 -3 2 C-3.65097656 2.43699219 -4.30195313 2.87398437 -4.97265625 3.32421875 C-6.00712891 3.99904297 -6.00712891 3.99904297 -7.0625 4.6875 C-7.75472656 5.14511719 -8.44695312 5.60273438 -9.16015625 6.07421875 C-10.07087891 6.53248047 -10.07087891 6.53248047 -11 7 C-11.66 6.67 -12.32 6.34 -13 6 C-6.07061503 -0.88838269 -6.07061503 -0.88838269 0 0 Z " fill="#BBBDD4" transform="translate(260,218)"/>
<path d="M0 0 C0.33 0 0.66 0 1 0 C1 8.91 1 17.82 1 27 C0.67 27 0.34 27 0 27 C0 18.09 0 9.18 0 0 Z " fill="#C3C0BF" transform="translate(54,206)"/>
<path d="M0 0 C0.66 0.33 1.32 0.66 2 1 C-0.8689341 4.50647501 -3.7317654 7.85281112 -7 11 C-7 9.02 -7 7.04 -7 5 C-6.01 4.67 -5.02 4.34 -4 4 C-2.62804426 2.70644173 -1.28817344 1.37701298 0 0 Z " fill="#898DBA" transform="translate(305,350)"/>
<path d="M0 0 C1.33855096 4.01565287 0.23071006 5.67187183 -1.3125 9.5625 C-1.76238281 10.71878906 -2.21226562 11.87507813 -2.67578125 13.06640625 C-4 16 -4 16 -6 18 C-6.33 17.01 -6.66 16.02 -7 15 C-6.03374163 13.64201526 -5.02698945 12.31265778 -4 11 C-3.20977526 9.10768924 -2.48171423 7.18841364 -1.8125 5.25 C-1.46832031 4.26515625 -1.12414062 3.2803125 -0.76953125 2.265625 C-0.51558594 1.51796875 -0.26164062 0.7703125 0 0 Z " fill="#C9C6C5" transform="translate(397,277)"/>
<path d="M0 0 C3.77727089 1.81309003 7.37269822 3.9073259 11 6 C11 6.33 11 6.66 11 7 C9.35 7 7.7 7 6 7 C5.67 6.34 5.34 5.68 5 5 C3.35636866 4.27840576 1.68949614 3.60648579 0 3 C0 2.01 0 1.02 0 0 Z " fill="#BABDE2" transform="translate(325,357)"/>
<path d="M0 0 C1.98 0 3.96 0 6 0 C5.814375 0.598125 5.62875 1.19625 5.4375 1.8125 C4.77906313 4.16408762 4.77906313 4.16408762 6 7 C4.68 6.67 3.36 6.34 2 6 C2 5.01 2 4.02 2 3 C1.34 2.67 0.68 2.34 0 2 C0 1.34 0 0.68 0 0 Z " fill="#B1B1C9" transform="translate(181,326)"/>
<path d="M0 0 C5.75 0.75 5.75 0.75 8 3 C7.625 5.125 7.625 5.125 7 7 C6.01 7 5.02 7 4 7 C4 5.35 4 3.7 4 2 C2.68 1.34 1.36 0.68 0 0 Z " fill="#A9ACD4" transform="translate(120,321)"/>
<path d="M0 0 C1.32 0 2.64 0 4 0 C3.34 1.65 2.68 3.3 2 5 C0.68 5 -0.64 5 -2 5 C-1.125 1.125 -1.125 1.125 0 0 Z " fill="#D1D2E0" transform="translate(319,307)"/>
<path d="M0 0 C0 0.99 0 1.98 0 3 C0.99 3.33 1.98 3.66 3 4 C0.36 4 -2.28 4 -5 4 C-5 3.34 -5 2.68 -5 2 C-5.99 1.67 -6.98 1.34 -8 1 C-5.10765685 0.17361624 -3.11257569 0 0 0 Z " fill="#AAABC6" transform="translate(274,299)"/>
<path d="M0 0 C0.66 0.66 1.32 1.32 2 2 C-3.625 7 -3.625 7 -7 7 C-5.66667905 3.00003714 -3.5042173 2.16217663 0 0 Z " fill="#AFB1C8" transform="translate(118,334)"/>
<path d="M0 0 C4.455 2.97 4.455 2.97 9 6 C7.02 6.99 7.02 6.99 5 8 C1.39345961 5.59563974 1.14547068 4.05320393 0 0 Z " fill="#B2B4D7" transform="translate(265,321)"/>
<path d="M0 0 C0.33 0 0.66 0 1 0 C1 7.92 1 15.84 1 24 C0.67 24 0.34 24 0 24 C0 16.08 0 8.16 0 0 Z " fill="#DCDAD8" transform="translate(402,242)"/>
<path d="M0 0 C1.98 0.495 1.98 0.495 4 1 C4 2.32 4 3.64 4 5 C2.35 4.67 0.7 4.34 -1 4 C-0.67 2.68 -0.34 1.36 0 0 Z " fill="#E1E1EE" transform="translate(235,207)"/>
<path d="M0 0 C4.875 4.625 4.875 4.625 6 8 C1.3697479 6.53781513 1.3697479 6.53781513 -0.375 4 C-1 2 -1 2 0 0 Z " fill="#A8ACD4" transform="translate(268,350)"/>
<path d="M0 0 C7.50769231 -0.36923077 7.50769231 -0.36923077 10 1.5 C10.495 2.2425 10.495 2.2425 11 3 C10.67 3.99 10.34 4.98 10 6 C9.34 4.68 8.68 3.36 8 2 C6.68 2.33 5.36 2.66 4 3 C4 2.34 4 1.68 4 1 C2.68 0.67 1.36 0.34 0 0 Z " fill="#9699C4" transform="translate(278,331)"/>
<path d="M0 0 C0.66 0.66 1.32 1.32 2 2 C-0.475 3.485 -0.475 3.485 -3 5 C-3 4.01 -3 3.02 -3 2 C-2.01 1.34 -1.02 0.68 0 0 Z M-5 4 C-5 4.99 -5 5.98 -5 7 C-6.98 7.99 -6.98 7.99 -9 9 C-7.25 5.125 -7.25 5.125 -5 4 Z " fill="#E9E8E7" transform="translate(114,110)"/>
<path d="M0 0 C2.475 0.495 2.475 0.495 5 1 C5 1.66 5 2.32 5 3 C5.99 3.33 6.98 3.66 8 4 C7.01 4.495 7.01 4.495 6 5 C6.33 5.99 6.66 6.98 7 8 C6.34 8 5.68 8 5 8 C4.731875 7.030625 4.46375 6.06125 4.1875 5.0625 C3.795625 4.051875 3.40375 3.04125 3 2 C2.01 1.67 1.02 1.34 0 1 C0 0.67 0 0.34 0 0 Z " fill="#9C9FCA" transform="translate(316,354)"/>
<path d="M0 0 C2.72426311 2.35277269 3.8141763 4.62496331 5 8 C3.35 7.67 1.7 7.34 0 7 C0 4.69 0 2.38 0 0 Z " fill="#A2A6D0" transform="translate(108,346)"/>
<path d="M0 0 C0.598125 0.20625 1.19625 0.4125 1.8125 0.625 C-1.9375 3.625 -1.9375 3.625 -4.1875 3.625 C-4.5175 5.935 -4.8475 8.245 -5.1875 10.625 C-5.5175 10.625 -5.8475 10.625 -6.1875 10.625 C-6.10041331 9.16554712 -5.99223093 7.70734132 -5.875 6.25 C-5.81699219 5.43789063 -5.75898438 4.62578125 -5.69921875 3.7890625 C-4.93042906 0.53784505 -3.29834961 -0.56543136 0 0 Z " fill="#9696B3" transform="translate(266.1875,305.375)"/>
<path d="M0 0 C0.33 0.99 0.66 1.98 1 3 C-0.75 4.5625 -0.75 4.5625 -3 6 C-5.25 5.6875 -5.25 5.6875 -7 5 C-2.25 1.125 -2.25 1.125 0 0 Z " fill="#B7B8CD" transform="translate(194,252)"/>
<path d="M0 0 C0 0.66 0 1.32 0 2 C-3.3 2.66 -6.6 3.32 -10 4 C-10 3.01 -10 2.02 -10 1 C-6.52674819 -0.1577506 -3.63932552 -0.06866652 0 0 Z " fill="#CBCCDB" transform="translate(201,216)"/>
<path d="M0 0 C7.26 0 14.52 0 22 0 C22 0.33 22 0.66 22 1 C14.74 1 7.48 1 0 1 C0 0.67 0 0.34 0 0 Z " fill="#ECEBEA" transform="translate(175,87)"/>
<path d="M0 0 C1.32 0.66 2.64 1.32 4 2 C2.1875 3.5625 2.1875 3.5625 0 5 C-0.99 4.67 -1.98 4.34 -3 4 C-2.01 2.68 -1.02 1.36 0 0 Z " fill="#AFACAA" transform="translate(365,323)"/>
<path d="M0 0 C3.3 0.99 6.6 1.98 10 3 C9.67 3.66 9.34 4.32 9 5 C5.7 4.01 2.4 3.02 -1 2 C-0.67 1.34 -0.34 0.68 0 0 Z " fill="#F1F0EF" transform="translate(318,158)"/>
<path d="M0 0 C5.445 1.485 5.445 1.485 11 3 C11 3.33 11 3.66 11 4 C9.741875 4.04125 8.48375 4.0825 7.1875 4.125 C6.47980469 4.14820313 5.77210938 4.17140625 5.04296875 4.1953125 C3 4 3 4 0 2 C0 1.34 0 0.68 0 0 Z " fill="#ADB1DC" transform="translate(299,380)"/>
<path d="M0 0 C0.66 0.33 1.32 0.66 2 1 C2 3.31 2 5.62 2 8 C1.01 8.495 1.01 8.495 0 9 C-0.59732819 6.23735711 -1 3.83967231 -1 1 C-0.67 0.67 -0.34 0.34 0 0 Z " fill="#7174A5" transform="translate(264,344)"/>
<path d="M0 0 C0.66 0.66 1.32 1.32 2 2 C-2.625 5 -2.625 5 -6 5 C-6 4.34 -6 3.68 -6 3 C-4.02 2.01 -2.04 1.02 0 0 Z " fill="#9093BC" transform="translate(274,339)"/>
<path d="M0 0 C1.32 0.33 2.64 0.66 4 1 C3.67 1.33 3.34 1.66 3 2 C2.76924918 3.34747084 2.58846937 4.70377565 2.4375 6.0625 C2.2209375 8.0115625 2.2209375 8.0115625 2 10 C-0.09350689 6.5980513 -0.17942163 3.94727588 0 0 Z " fill="#545685" transform="translate(132,361)"/>
<path d="M0 0 C0.66 0 1.32 0 2 0 C1.67 1.98 1.34 3.96 1 6 C-0.32 6.33 -1.64 6.66 -3 7 C-1.125 1.125 -1.125 1.125 0 0 Z " fill="#6C70A6" transform="translate(297,356)"/>
<path d="M0 0 C1.98 0.495 1.98 0.495 4 1 C3.67 2.32 3.34 3.64 3 5 C1.68 5 0.36 5 -1 5 C-0.67 3.35 -0.34 1.7 0 0 Z " fill="#A9ACD3" transform="translate(138,347)"/>
<path d="M0 0 C1.32 0 2.64 0 4 0 C3.67 2.97 3.34 5.94 3 9 C2.67 9 2.34 9 2 9 C1.67 7.02 1.34 5.04 1 3 C0.34 3 -0.32 3 -1 3 C-0.67 2.01 -0.34 1.02 0 0 Z " fill="#7F82AE" transform="translate(264,342)"/>
<path d="M0 0 C0.99 0.66 1.98 1.32 3 2 C0.69 3.65 -1.62 5.3 -4 7 C-4.66 6.67 -5.32 6.34 -6 6 C-4 4 -2 2 0 0 Z " fill="#9C9996" transform="translate(361,327)"/>
<path d="M0 0 C0.66 0 1.32 0 2 0 C0.60667426 3.36720387 -0.9789286 4.9859524 -4 7 C-4.66 6.67 -5.32 6.34 -6 6 C-4.71034824 4.62437146 -3.37310707 3.29233607 -2 2 C-1.34 2 -0.68 2 0 2 C0 1.34 0 0.68 0 0 Z " fill="#BDBAB8" transform="translate(382,307)"/>
<path d="M0 0 C3.96 1.98 3.96 1.98 8 4 C7.67 4.66 7.34 5.32 7 6 C4.36 4.68 1.72 3.36 -1 2 C-0.67 1.34 -0.34 0.68 0 0 Z " fill="#F1F0EF" transform="translate(303,151)"/>
<path d="M0 0 C0 0.66 0 1.32 0 2 C-2.64 2.66 -5.28 3.32 -8 4 C-8.33 3.34 -8.66 2.68 -9 2 C-5.62902617 0.50178941 -3.79557881 0 0 0 Z " fill="#EEECEC" transform="translate(149,95)"/>
<path d="M0 0 C0.99 0.33 1.98 0.66 3 1 C3 2.32 3 3.64 3 5 C1.68 5 0.36 5 -1 5 C-0.67 3.35 -0.34 1.7 0 0 Z " fill="#B1B3D8" transform="translate(298,349)"/>
<path d="M0 0 C0 0.66 0 1.32 0 2 C-1.32 2 -2.64 2 -4 2 C-4 2.66 -4 3.32 -4 4 C-5.65 4.33 -7.3 4.66 -9 5 C-4.32258065 0 -4.32258065 0 0 0 Z " fill="#B1B5DD" transform="translate(132,356)"/>
<path d="M0 0 C0.33 0.99 0.66 1.98 1 3 C-0.98 3.66 -2.96 4.32 -5 5 C-5.66 4.34 -6.32 3.68 -7 3 C-4.69 2.01 -2.38 1.02 0 0 Z " fill="#9093C3" transform="translate(129,354)"/>
<path d="M0 0 C0.33 0.99 0.66 1.98 1 3 C3.01508358 3.73323796 3.01508358 3.73323796 5 4 C3.625 5.5 3.625 5.5 2 7 C1.34 7 0.68 7 0 7 C0 4.69 0 2.38 0 0 Z " fill="#ABACCD" transform="translate(165,295)"/>
<path d="M0 0 C0.99 0.33 1.98 0.66 3 1 C2.071875 1.3403125 2.071875 1.3403125 1.125 1.6875 C-1.61410209 3.37929835 -2.05024472 4.99244161 -3 8 C-3.33 7.01 -3.66 6.02 -4 5 C-2.0625 2.3125 -2.0625 2.3125 0 0 Z " fill="#BCBDD5" transform="translate(188,219)"/>
<path d="M0 0 C5.28 0 10.56 0 16 0 C16 0.33 16 0.66 16 1 C10.72 1 5.44 1 0 1 C0 0.67 0 0.34 0 0 Z " fill="#A09C9B" transform="translate(240,340)"/>
<path d="M0 0 C0.99 0 1.98 0 3 0 C3 2.97 3 5.94 3 9 C2.67 9 2.34 9 2 9 C2 6.36 2 3.72 2 1 C1.34 0.67 0.68 0.34 0 0 Z " fill="#66699F" transform="translate(288,363)"/>
<path d="M0 0 C3.3 0 6.6 0 10 0 C10 0.33 10 0.66 10 1 C6.7 1 3.4 1 0 1 C0 0.67 0 0.34 0 0 Z " fill="#7D82C1" transform="translate(176,364)"/>
<path d="M0 0 C3.3 0 6.6 0 10 0 C10 0.33 10 0.66 10 1 C6.7 1 3.4 1 0 1 C0 0.67 0 0.34 0 0 Z " fill="#9297CC" transform="translate(112,364)"/>
<path d="M0 0 C0.33 0 0.66 0 1 0 C1 3.3 1 6.6 1 10 C0.67 10 0.34 10 0 10 C0 6.7 0 3.4 0 0 Z " fill="#9092BB" transform="translate(358,345)"/>
<path d="M0 0 C0.33 0 0.66 0 1 0 C1 2.64 1 5.28 1 8 C0.67 8 0.34 8 0 8 C0 5.36 0 2.72 0 0 Z " fill="#7074A8" transform="translate(326,365)"/>
<path d="M0 0 C0.99 0.495 0.99 0.495 2 1 C1.67 2.98 1.34 4.96 1 7 C0.67 7 0.34 7 0 7 C0 4.69 0 2.38 0 0 Z " fill="#636699" transform="translate(167,360)"/>
<path d="M0 0 C0.33 0 0.66 0 1 0 C1 2.64 1 5.28 1 8 C0.67 8 0.34 8 0 8 C0 5.36 0 2.72 0 0 Z " fill="#707296" transform="translate(258,346)"/>
<path d="M0 0 C2.31 0 4.62 0 7 0 C7 0.33 7 0.66 7 1 C4.69 1 2.38 1 0 1 C0 0.67 0 0.34 0 0 Z " fill="#A1A5D1" transform="translate(305,386)"/>
<path d="M0 0 C0.66 0 1.32 0 2 0 C2 1.98 2 3.96 2 6 C1.67 6 1.34 6 1 6 C0.67 4.02 0.34 2.04 0 0 Z " fill="#686A97" transform="translate(129,360)"/>
<path d="M0 0 C0.33 0 0.66 0 1 0 C1 2.31 1 4.62 1 7 C0.67 7 0.34 7 0 7 C0 4.69 0 2.38 0 0 Z " fill="#CDCBC9" transform="translate(55,198)"/>
<path d="M0 0 C1.98 0 3.96 0 6 0 C6 0.33 6 0.66 6 1 C4.02 1 2.04 1 0 1 C0 0.67 0 0.34 0 0 Z " fill="#7377AB" transform="translate(146,383)"/>
<path d="M0 0 C0.33 0 0.66 0 1 0 C1 1.98 1 3.96 1 6 C0.67 6 0.34 6 0 6 C0 4.02 0 2.04 0 0 Z " fill="#BCBAB8" transform="translate(55,234)"/>
<path d="M0 0 C1.98 0 3.96 0 6 0 C6 0.33 6 0.66 6 1 C4.02 1 2.04 1 0 1 C0 0.67 0 0.34 0 0 Z " fill="#EDECEB" transform="translate(200,88)"/>
<path d="M0 0 C1.98 0 3.96 0 6 0 C6 0.33 6 0.66 6 1 C4.02 1 2.04 1 0 1 C0 0.67 0 0.34 0 0 Z " fill="#EBEAE9" transform="translate(166,88)"/>
<path d="M0 0 C0.99 0.33 1.98 0.66 3 1 C2.34 1 1.68 1 1 1 C0.67 1.66 0.34 2.32 0 3 C0 2.01 0 1.02 0 0 Z " fill="#8D8DA1" transform="translate(198,350)"/>
<path d="M0 0 C1.65 0 3.3 0 5 0 C5 0.33 5 0.66 5 1 C3.35 1 1.7 1 0 1 C0 0.67 0 0.34 0 0 Z " fill="#A09D9C" transform="translate(203,349)"/>
<path d="M0 0 C1.65 0 3.3 0 5 0 C5 0.33 5 0.66 5 1 C3.35 1 1.7 1 0 1 C0 0.67 0 0.34 0 0 Z " fill="#A19E9C" transform="translate(209,348)"/>
<path d="M0 0 C0.33 0 0.66 0 1 0 C1 1.65 1 3.3 1 5 C0.67 5 0.34 5 0 5 C0 3.35 0 1.7 0 0 Z " fill="#D3D1D0" transform="translate(401,267)"/>
<path d="M0 0 C0.33 0 0.66 0 1 0 C1 1.65 1 3.3 1 5 C0.67 5 0.34 5 0 5 C0 3.35 0 1.7 0 0 Z " fill="#E0DFDE" transform="translate(401,236)"/>
<path d="M0 0 C1.65 0 3.3 0 5 0 C5 0.33 5 0.66 5 1 C3.35 1 1.7 1 0 1 C0 0.67 0 0.34 0 0 Z " fill="#EDECEB" transform="translate(207,89)"/>
<path d="M0 0 C1.65 0 3.3 0 5 0 C5 0.33 5 0.66 5 1 C3.35 1 1.7 1 0 1 C0 0.67 0 0.34 0 0 Z " fill="#EBEAE9" transform="translate(160,89)"/>
<path d="M0 0 C4 1 4 1 4 1 Z " fill="#9F9C9A" transform="translate(214,347)"/>
<path d="M0 0 C1 4 1 4 1 4 Z " fill="#626488" transform="translate(98,345)"/>
<path d="M0 0 C0.99 0 1.98 0 3 0 C2.67 0.66 2.34 1.32 2 2 C1.34 1.34 0.68 0.68 0 0 Z " fill="#9B98A1" transform="translate(258,341)"/>
<path d="M0 0 C4 1 4 1 4 1 Z " fill="#9E9B99" transform="translate(235,341)"/>
<path d="M0 0 C1 4 1 4 1 4 Z " fill="#D3D1CF" transform="translate(400,272)"/>
<path d="M0 0 C1 4 1 4 1 4 Z " fill="#B9B7B5" transform="translate(57,246)"/>
<path d="M0 0 C1 4 1 4 1 4 Z " fill="#BBB8B6" transform="translate(56,241)"/>
<path d="M0 0 C1 4 1 4 1 4 Z " fill="#E1E0DF" transform="translate(400,231)"/>
<path d="M0 0 C1 4 1 4 1 4 Z " fill="#CDCBC9" transform="translate(56,193)"/>
<path d="M0 0 C1 4 1 4 1 4 Z " fill="#CFCDCB" transform="translate(57,188)"/>
<path d="M0 0 C4 1 4 1 4 1 Z " fill="#EEEDEC" transform="translate(212,90)"/>
<path d="M0 0 C4 1 4 1 4 1 Z " fill="#EBEAE9" transform="translate(156,90)"/>
<path d="" fill="#7578A5" transform="translate(0,0)"/>
<path d="" fill="#636798" transform="translate(0,0)"/>
<path d="M0 0 C3 1 3 1 3 1 Z " fill="#B4B7DF" transform="translate(343,367)"/>
<path d="M0 0 C3 1 3 1 3 1 Z " fill="#A7ACD5" transform="translate(335,367)"/>
<path d="M0 0 C3 1 3 1 3 1 Z " fill="#979BCD" transform="translate(279,367)"/>
<path d="M0 0 C3 1 3 1 3 1 Z " fill="#ABAFD9" transform="translate(271,367)"/>
<path d="" fill="#7D80B4" transform="translate(0,0)"/>
<path d="M0 0 C3 1 3 1 3 1 Z " fill="#9F9D9B" transform="translate(218,346)"/>
<path d="M0 0 C3 1 3 1 3 1 Z " fill="#9F9C9A" transform="translate(222,345)"/>
<path d="M0 0 C3 1 3 1 3 1 Z " fill="#A29F9E" transform="translate(225,344)"/>
<path d="M0 0 C3 1 3 1 3 1 Z " fill="#A29F9F" transform="translate(228,343)"/>
<path d="M0 0 C3 1 3 1 3 1 Z " fill="#A3A1A0" transform="translate(231,342)"/>
<path d="" fill="#6B6F98" transform="translate(0,0)"/>
<path d="" fill="#CCC9C8" transform="translate(0,0)"/>
<path d="" fill="#D4D1D0" transform="translate(0,0)"/>
<path d="" fill="#CECCCA" transform="translate(0,0)"/>
<path d="" fill="#B6B3B1" transform="translate(0,0)"/>
<path d="" fill="#B3B0AE" transform="translate(0,0)"/>
<path d="" fill="#E4E3E1" transform="translate(0,0)"/>
<path d="" fill="#E4E2E1" transform="translate(0,0)"/>
<path d="" fill="#D1CFCD" transform="translate(0,0)"/>
<path d="" fill="#D2D0CF" transform="translate(0,0)"/>
<path d="" fill="#D4D1D0" transform="translate(0,0)"/>
<path d="" fill="#D6D4D3" transform="translate(0,0)"/>
<path d="M0 0 C3 1 3 1 3 1 Z " fill="#EFEEED" transform="translate(337,163)"/>
<path d="M0 0 C3 1 3 1 3 1 Z " fill="#EEEDEC" transform="translate(317,156)"/>
<path d="M0 0 C3 1 3 1 3 1 Z " fill="#EEEDEC" transform="translate(227,94)"/>
<path d="M0 0 C3 1 3 1 3 1 Z " fill="#E9E8E7" transform="translate(142,94)"/>
<path d="M0 0 C3 1 3 1 3 1 Z " fill="#EDECEC" transform="translate(224,93)"/>
<path d="M0 0 C3 1 3 1 3 1 Z " fill="#E9E8E7" transform="translate(145,93)"/>
<path d="M0 0 C3 1 3 1 3 1 Z " fill="#EDECEB" transform="translate(149,92)"/>
<path d="M0 0 C3 1 3 1 3 1 Z " fill="#EDECEC" transform="translate(217,91)"/>
<path d="M0 0 C3 1 3 1 3 1 Z " fill="#EAE9E8" transform="translate(152,91)"/>
<path d="M0 0 C2 1 2 1 2 1 Z " fill="#8D90C5" transform="translate(313,385)"/>
<path d="M0 0 C2 1 2 1 2 1 Z " fill="#ACB0D9" transform="translate(302,385)"/>
<path d="M0 0 C2 1 2 1 2 1 Z " fill="#BCC1E6" transform="translate(300,384)"/>
<path d="M0 0 C2 1 2 1 2 1 Z " fill="#9698D0" transform="translate(317,383)"/>
<path d="M0 0 C2 1 2 1 2 1 Z " fill="#8487BC" transform="translate(153,382)"/>
<path d="M0 0 C2 1 2 1 2 1 Z " fill="#6C6FAA" transform="translate(143,382)"/>
<path d="" fill="#62679B" transform="translate(0,0)"/>
<path d="" fill="#7C7FAC" transform="translate(0,0)"/>
<path d="" fill="#646999" transform="translate(0,0)"/>
<path d="" fill="#7B7FB5" transform="translate(0,0)"/>
<path d="" fill="#888BC0" transform="translate(0,0)"/>
<path d="" fill="#797CB0" transform="translate(0,0)"/>
<path d="" fill="#7F83B8" transform="translate(0,0)"/>
<path d="M0 0 C2 1 2 1 2 1 Z " fill="#9599C7" transform="translate(347,366)"/>
<path d="M0 0 C2 1 2 1 2 1 Z " fill="#BBC0E1" transform="translate(333,366)"/>
<path d="M0 0 C2 1 2 1 2 1 Z " fill="#CDD1EB" transform="translate(269,366)"/>
<path d="M0 0 C2 1 2 1 2 1 Z " fill="#B7BCD9" transform="translate(331,365)"/>
<path d="M0 0 C2 1 2 1 2 1 Z " fill="#9699C8" transform="translate(350,364)"/>
<path d="M0 0 C2 1 2 1 2 1 Z " fill="#8F94C4" transform="translate(329,364)"/>
<path d="M0 0 C2 1 2 1 2 1 Z " fill="#8D90C9" transform="translate(286,364)"/>
<path d="M0 0 C2 1 2 1 2 1 Z " fill="#C6CBEE" transform="translate(327,363)"/>
<path d="M0 0 C2 1 2 1 2 1 Z " fill="#7F83B5" transform="translate(187,363)"/>
<path d="M0 0 C2 1 2 1 2 1 Z " fill="#7578AB" transform="translate(109,363)"/>
<path d="" fill="#7C82B9" transform="translate(0,0)"/>
<path d="M0 0 C2 1 2 1 2 1 Z " fill="#868ACC" transform="translate(106,361)"/>
<path d="" fill="#5A5D8A" transform="translate(0,0)"/>
<path d="" fill="#ABAEDD" transform="translate(0,0)"/>
<path d="" fill="#6F73A4" transform="translate(0,0)"/>
<path d="" fill="#696C94" transform="translate(0,0)"/>
<path d="" fill="#7276A0" transform="translate(0,0)"/>
<path d="" fill="#7477AD" transform="translate(0,0)"/>
<path d="" fill="#979AC2" transform="translate(0,0)"/>
<path d="" fill="#9796B1" transform="translate(0,0)"/>
<path d="" fill="#9DA0C3" transform="translate(0,0)"/>
<path d="" fill="#7176A3" transform="translate(0,0)"/>
<path d="" fill="#787EAB" transform="translate(0,0)"/>
<path d="M0 0 C2 1 2 1 2 1 Z " fill="#9E9B99" transform="translate(357,334)"/>
<path d="M0 0 C2 1 2 1 2 1 Z " fill="#7376A9" transform="translate(107,331)"/>
<path d="M0 0 C2 1 2 1 2 1 Z " fill="#A4A19E" transform="translate(364,329)"/>
<path d="M0 0 C2 1 2 1 2 1 Z " fill="#9496BA" transform="translate(110,329)"/>
<path d="M0 0 C2 1 2 1 2 1 Z " fill="#6B6FB2" transform="translate(109,326)"/>
<path d="M0 0 C2 1 2 1 2 1 Z " fill="#B3B0AE" transform="translate(371,323)"/>
<path d="" fill="#B6B2B0" transform="translate(0,0)"/>
<path d="" fill="#BCB9B8" transform="translate(0,0)"/>
<path d="" fill="#C1BEBC" transform="translate(0,0)"/>
<path d="" fill="#A8A5A4" transform="translate(0,0)"/>
<path d="" fill="#BEBBB9" transform="translate(0,0)"/>
<path d="" fill="#C5C1C0" transform="translate(0,0)"/>
<path d="" fill="#A19E9C" transform="translate(0,0)"/>
<path d="" fill="#A29F9D" transform="translate(0,0)"/>
<path d="" fill="#CAC7C5" transform="translate(0,0)"/>
<path d="" fill="#A4A1A0" transform="translate(0,0)"/>
<path d="" fill="#C7C4C3" transform="translate(0,0)"/>
<path d="" fill="#A4A29F" transform="translate(0,0)"/>
<path d="" fill="#CAC7C6" transform="translate(0,0)"/>
<path d="" fill="#A6A2A0" transform="translate(0,0)"/>
<path d="" fill="#ABA8A6" transform="translate(0,0)"/>
<path d="" fill="#B4B3B0" transform="translate(0,0)"/>
<path d="" fill="#AEACA9" transform="translate(0,0)"/>
<path d="" fill="#ACAAA7" transform="translate(0,0)"/>
<path d="" fill="#ABA7A5" transform="translate(0,0)"/>
<path d="" fill="#B2AFAD" transform="translate(0,0)"/>
<path d="" fill="#AEABA9" transform="translate(0,0)"/>
<path d="" fill="#B0ADAB" transform="translate(0,0)"/>
<path d="" fill="#B1AEAD" transform="translate(0,0)"/>
<path d="" fill="#E5E3E2" transform="translate(0,0)"/>
<path d="" fill="#E4E3E2" transform="translate(0,0)"/>
<path d="" fill="#EAE9E8" transform="translate(0,0)"/>
<path d="" fill="#E5E3E2" transform="translate(0,0)"/>
<path d="" fill="#E6E4E3" transform="translate(0,0)"/>
<path d="" fill="#E7E5E4" transform="translate(0,0)"/>
<path d="" fill="#E6E4E3" transform="translate(0,0)"/>
<path d="" fill="#E8E7E5" transform="translate(0,0)"/>
<path d="" fill="#EAE9E8" transform="translate(0,0)"/>
<path d="" fill="#E8E7E6" transform="translate(0,0)"/>
<path d="" fill="#ECEBEB" transform="translate(0,0)"/>
<path d="M0 0 C2 1 2 1 2 1 Z " fill="#ECEBEB" transform="translate(362,176)"/>
<path d="M0 0 C2 1 2 1 2 1 Z " fill="#EEEDED" transform="translate(359,174)"/>
<path d="" fill="#D6D3D2" transform="translate(0,0)"/>
<path d="M0 0 C2 1 2 1 2 1 Z " fill="#EDECEC" transform="translate(356,172)"/>
<path d="" fill="#D6D4D2" transform="translate(0,0)"/>
<path d="M0 0 C2 1 2 1 2 1 Z " fill="#ECEBEA" transform="translate(353,170)"/>
<path d="M0 0 C2 1 2 1 2 1 Z " fill="#EDEBEA" transform="translate(351,169)"/>
<path d="" fill="#DAD8D6" transform="translate(0,0)"/>
<path d="M0 0 C2 1 2 1 2 1 Z " fill="#EDECEB" transform="translate(349,168)"/>
<path d="M0 0 C2 1 2 1 2 1 Z " fill="#EDECEB" transform="translate(347,167)"/>
<path d="M0 0 C2 1 2 1 2 1 Z " fill="#ECEBEB" transform="translate(345,166)"/>
<path d="" fill="#D7D5D3" transform="translate(0,0)"/>
<path d="M0 0 C2 1 2 1 2 1 Z " fill="#ECEBEA" transform="translate(343,165)"/>
<path d="M0 0 C2 1 2 1 2 1 Z " fill="#EDECEB" transform="translate(340,164)"/>
<path d="" fill="#D8D6D4" transform="translate(0,0)"/>
<path d="M0 0 C2 1 2 1 2 1 Z " fill="#ECEBEB" transform="translate(335,162)"/>
<path d="" fill="#D8D6D5" transform="translate(0,0)"/>
<path d="M0 0 C2 1 2 1 2 1 Z " fill="#EDECEB" transform="translate(332,161)"/>
<path d="M0 0 C2 1 2 1 2 1 Z " fill="#EDECEB" transform="translate(329,160)"/>
<path d="" fill="#DAD8D7" transform="translate(0,0)"/>
<path d="M0 0 C2 1 2 1 2 1 Z " fill="#EDECEB" transform="translate(326,159)"/>
<path d="M0 0 C2 1 2 1 2 1 Z " fill="#EDECEB" transform="translate(323,158)"/>
<path d="" fill="#D9D7D6" transform="translate(0,0)"/>
<path d="M0 0 C2 1 2 1 2 1 Z " fill="#EEECEC" transform="translate(320,157)"/>
<path d="" fill="#D9D7D6" transform="translate(0,0)"/>
<path d="M0 0 C2 1 2 1 2 1 Z " fill="#ECEBEA" transform="translate(315,155)"/>
<path d="M0 0 C2 1 2 1 2 1 Z " fill="#EEEDEC" transform="translate(312,154)"/>
<path d="M0 0 C2 1 2 1 2 1 Z " fill="#EDECEB" transform="translate(310,153)"/>
<path d="" fill="#E0DFDE" transform="translate(0,0)"/>
<path d="M0 0 C2 1 2 1 2 1 Z " fill="#ECEBEA" transform="translate(308,152)"/>
<path d="M0 0 C2 1 2 1 2 1 Z " fill="#ECEBEB" transform="translate(306,151)"/>
<path d="" fill="#DCD9D8" transform="translate(0,0)"/>
<path d="M0 0 C2 1 2 1 2 1 Z " fill="#ECEBEA" transform="translate(304,150)"/>
<path d="M0 0 C2 1 2 1 2 1 Z " fill="#EDECEB" transform="translate(302,149)"/>
<path d="" fill="#DDDBDA" transform="translate(0,0)"/>
<path d="M0 0 C2 1 2 1 2 1 Z " fill="#EDECEB" transform="translate(296,145)"/>
<path d="" fill="#DEDCDB" transform="translate(0,0)"/>
<path d="" fill="#ECEAEA" transform="translate(0,0)"/>
<path d="" fill="#E2E1DF" transform="translate(0,0)"/>
<path d="" fill="#ECEBEA" transform="translate(0,0)"/>
<path d="" fill="#E3E1E0" transform="translate(0,0)"/>
<path d="M0 0 C2 1 2 1 2 1 Z " fill="#E4E3E1" transform="translate(96,122)"/>
<path d="M0 0 C2 1 2 1 2 1 Z " fill="#EDEBEB" transform="translate(273,121)"/>
<path d="M0 0 C2 1 2 1 2 1 Z " fill="#F0EEEE" transform="translate(267,116)"/>
<path d="M0 0 C2 1 2 1 2 1 Z " fill="#E5E3E2" transform="translate(103,116)"/>
<path d="M0 0 C2 1 2 1 2 1 Z " fill="#EEEDEC" transform="translate(259,110)"/>
<path d="M0 0 C2 1 2 1 2 1 Z " fill="#E5E4E3" transform="translate(111,110)"/>
<path d="M0 0 C2 1 2 1 2 1 Z " fill="#EDECEC" transform="translate(256,108)"/>
<path d="M0 0 C2 1 2 1 2 1 Z " fill="#E6E4E3" transform="translate(114,108)"/>
<path d="M0 0 C2 1 2 1 2 1 Z " fill="#EDECEB" transform="translate(253,106)"/>
<path d="M0 0 C2 1 2 1 2 1 Z " fill="#E6E4E4" transform="translate(117,106)"/>
<path d="M0 0 C2 1 2 1 2 1 Z " fill="#EFEEED" transform="translate(251,105)"/>
<path d="M0 0 C2 1 2 1 2 1 Z " fill="#E7E6E5" transform="translate(119,105)"/>
<path d="M0 0 C2 1 2 1 2 1 Z " fill="#EDECEB" transform="translate(246,102)"/>
<path d="M0 0 C2 1 2 1 2 1 Z " fill="#E7E5E4" transform="translate(124,102)"/>
<path d="M0 0 C2 1 2 1 2 1 Z " fill="#EDECEB" transform="translate(244,101)"/>
<path d="M0 0 C2 1 2 1 2 1 Z " fill="#E7E5E4" transform="translate(126,101)"/>
<path d="M0 0 C2 1 2 1 2 1 Z " fill="#EDECEB" transform="translate(242,100)"/>
<path d="M0 0 C2 1 2 1 2 1 Z " fill="#E7E6E5" transform="translate(128,100)"/>
<path d="M0 0 C2 1 2 1 2 1 Z " fill="#EDECEB" transform="translate(240,99)"/>
<path d="M0 0 C2 1 2 1 2 1 Z " fill="#E7E6E5" transform="translate(130,99)"/>
<path d="M0 0 C2 1 2 1 2 1 Z " fill="#EDECEB" transform="translate(238,98)"/>
<path d="M0 0 C2 1 2 1 2 1 Z " fill="#EEEDEC" transform="translate(235,97)"/>
<path d="M0 0 C2 1 2 1 2 1 Z " fill="#E9E8E7" transform="translate(135,97)"/>
<path d="M0 0 C2 1 2 1 2 1 Z " fill="#EDECEB" transform="translate(233,96)"/>
<path d="M0 0 C2 1 2 1 2 1 Z " fill="#E8E7E6" transform="translate(137,96)"/>
<path d="M0 0 C2 1 2 1 2 1 Z " fill="#EEEDEC" transform="translate(230,95)"/>
<path d="M0 0 C2 1 2 1 2 1 Z " fill="#E9E8E7" transform="translate(140,95)"/>
<path d="M0 0 C2 1 2 1 2 1 Z " fill="#EDECEC" transform="translate(221,92)"/>
<path d="" fill="#8A8DBF" transform="translate(0,0)"/>
<path d="" fill="#B3B8DD" transform="translate(0,0)"/>
<path d="" fill="#8387BB" transform="translate(0,0)"/>
<path d="" fill="#787BA9" transform="translate(0,0)"/>
<path d="" fill="#8488BC" transform="translate(0,0)"/>
<path d="" fill="#7A7CA8" transform="translate(0,0)"/>
<path d="" fill="#9A9DCB" transform="translate(0,0)"/>
<path d="" fill="#7174AD" transform="translate(0,0)"/>
<path d="" fill="#8588BB" transform="translate(0,0)"/>
<path d="" fill="#7477A2" transform="translate(0,0)"/>
<path d="" fill="#AEB3D8" transform="translate(0,0)"/>
<path d="" fill="#7174A8" transform="translate(0,0)"/>
<path d="" fill="#8084B6" transform="translate(0,0)"/>
<path d="" fill="#70739C" transform="translate(0,0)"/>
<path d="" fill="#9FA3CD" transform="translate(0,0)"/>
<path d="" fill="#7478B0" transform="translate(0,0)"/>
<path d="" fill="#797DAB" transform="translate(0,0)"/>
<path d="" fill="#A3A8D4" transform="translate(0,0)"/>
<path d="" fill="#7578B3" transform="translate(0,0)"/>
<path d="" fill="#6A6EA1" transform="translate(0,0)"/>
<path d="" fill="#B0B5E7" transform="translate(0,0)"/>
<path d="" fill="#8488C0" transform="translate(0,0)"/>
<path d="" fill="#8285B5" transform="translate(0,0)"/>
<path d="" fill="#8186B8" transform="translate(0,0)"/>
<path d="" fill="#8386BD" transform="translate(0,0)"/>
<path d="" fill="#70749E" transform="translate(0,0)"/>
<path d="" fill="#7D7FB3" transform="translate(0,0)"/>
<path d="" fill="#797CAF" transform="translate(0,0)"/>
<path d="" fill="#979BCA" transform="translate(0,0)"/>
<path d="" fill="#7578AA" transform="translate(0,0)"/>
<path d="" fill="#A7ABD5" transform="translate(0,0)"/>
<path d="" fill="#A7ABD5" transform="translate(0,0)"/>
<path d="" fill="#8C90BD" transform="translate(0,0)"/>
<path d="" fill="#A7ABD7" transform="translate(0,0)"/>
<path d="" fill="#7679AE" transform="translate(0,0)"/>
<path d="" fill="#A0A5D0" transform="translate(0,0)"/>
<path d="" fill="#898DBA" transform="translate(0,0)"/>
<path d="" fill="#8488BC" transform="translate(0,0)"/>
<path d="" fill="#7B7EB0" transform="translate(0,0)"/>
<path d="" fill="#9CA0CC" transform="translate(0,0)"/>
<path d="" fill="#7275AD" transform="translate(0,0)"/>
<path d="" fill="#8588B5" transform="translate(0,0)"/>
<path d="" fill="#868AB8" transform="translate(0,0)"/>
<path d="" fill="#6B6EA2" transform="translate(0,0)"/>
<path d="" fill="#8A8EBC" transform="translate(0,0)"/>
<path d="" fill="#6B70A9" transform="translate(0,0)"/>
<path d="" fill="#7D81AF" transform="translate(0,0)"/>
<path d="" fill="#6A6DA1" transform="translate(0,0)"/>
<path d="" fill="#9B9ECD" transform="translate(0,0)"/>
<path d="" fill="#5D608D" transform="translate(0,0)"/>
<path d="" fill="#787CAA" transform="translate(0,0)"/>
<path d="" fill="#6C6EA4" transform="translate(0,0)"/>
<path d="" fill="#8A8DBA" transform="translate(0,0)"/>
<path d="" fill="#7377A2" transform="translate(0,0)"/>
<path d="" fill="#696DA1" transform="translate(0,0)"/>
<path d="" fill="#676B91" transform="translate(0,0)"/>
<path d="" fill="#676A9C" transform="translate(0,0)"/>
<path d="" fill="#797DB8" transform="translate(0,0)"/>
<path d="" fill="#9294B5" transform="translate(0,0)"/>
<path d="" fill="#A4A6C5" transform="translate(0,0)"/>
<path d="" fill="#A7A7B9" transform="translate(0,0)"/>
<path d="" fill="#9E9B99" transform="translate(0,0)"/>
<path d="" fill="#787DA6" transform="translate(0,0)"/>
<path d="" fill="#9C9996" transform="translate(0,0)"/>
<path d="" fill="#7B80AC" transform="translate(0,0)"/>
<path d="" fill="#7C82AF" transform="translate(0,0)"/>
<path d="" fill="#9E9A98" transform="translate(0,0)"/>
<path d="" fill="#8589B1" transform="translate(0,0)"/>
<path d="" fill="#A29F9C" transform="translate(0,0)"/>
<path d="" fill="#888BB3" transform="translate(0,0)"/>
<path d="" fill="#9E9B99" transform="translate(0,0)"/>
<path d="" fill="#A3A09E" transform="translate(0,0)"/>
<path d="" fill="#9D9EBA" transform="translate(0,0)"/>
<path d="" fill="#A09D9B" transform="translate(0,0)"/>
<path d="" fill="#969DE5" transform="translate(0,0)"/>
<path d="" fill="#A3A09E" transform="translate(0,0)"/>
<path d="" fill="#5F63A4" transform="translate(0,0)"/>
<path d="" fill="#A7A3A1" transform="translate(0,0)"/>
<path d="" fill="#ACA9A7" transform="translate(0,0)"/>
<path d="" fill="#6669A1" transform="translate(0,0)"/>
<path d="" fill="#B7B4B2" transform="translate(0,0)"/>
<path d="" fill="#5E6193" transform="translate(0,0)"/>
<path d="" fill="#5E6196" transform="translate(0,0)"/>
<path d="" fill="#A4A19F" transform="translate(0,0)"/>
<path d="" fill="#65689B" transform="translate(0,0)"/>
<path d="" fill="#A5A2A0" transform="translate(0,0)"/>
<path d="" fill="#707298" transform="translate(0,0)"/>
<path d="" fill="#A6A3A1" transform="translate(0,0)"/>
<path d="" fill="#787996" transform="translate(0,0)"/>
<path d="" fill="#A6A3A0" transform="translate(0,0)"/>
<path d="" fill="#8E8C98" transform="translate(0,0)"/>
<path d="" fill="#9D9B98" transform="translate(0,0)"/>
<path d="" fill="#9E9B99" transform="translate(0,0)"/>
<path d="" fill="#B8B4B3" transform="translate(0,0)"/>
<path d="" fill="#9E9C99" transform="translate(0,0)"/>
<path d="" fill="#B4B1AF" transform="translate(0,0)"/>
<path d="" fill="#9F9C99" transform="translate(0,0)"/>
<path d="" fill="#B2AFAD" transform="translate(0,0)"/>
<path d="" fill="#9F9C9A" transform="translate(0,0)"/>
<path d="" fill="#B0ACAA" transform="translate(0,0)"/>
<path d="" fill="#9F9C9A" transform="translate(0,0)"/>
<path d="" fill="#AEABA9" transform="translate(0,0)"/>
<path d="" fill="#A09C9A" transform="translate(0,0)"/>
<path d="" fill="#A09D9A" transform="translate(0,0)"/>
<path d="" fill="#BBB7B5" transform="translate(0,0)"/>
<path d="" fill="#A09D9B" transform="translate(0,0)"/>
<path d="" fill="#B5B2AF" transform="translate(0,0)"/>
<path d="" fill="#A09D9A" transform="translate(0,0)"/>
<path d="" fill="#A09C9A" transform="translate(0,0)"/>
<path d="" fill="#9F9C9A" transform="translate(0,0)"/>
<path d="" fill="#B9B6B4" transform="translate(0,0)"/>
<path d="" fill="#9E9B99" transform="translate(0,0)"/>
<path d="" fill="#BBB8B6" transform="translate(0,0)"/>
<path d="" fill="#A7A4A2" transform="translate(0,0)"/>
<path d="" fill="#A3A09E" transform="translate(0,0)"/>
<path d="" fill="#A09D9B" transform="translate(0,0)"/>
<path d="" fill="#9F9C99" transform="translate(0,0)"/>
<path d="" fill="#BFBCBA" transform="translate(0,0)"/>
<path d="" fill="#A39F9D" transform="translate(0,0)"/>
<path d="" fill="#C1BEBC" transform="translate(0,0)"/>
<path d="" fill="#A19D9B" transform="translate(0,0)"/>
<path d="" fill="#C3C0BE" transform="translate(0,0)"/>
<path d="" fill="#A3A09E" transform="translate(0,0)"/>
<path d="" fill="#A4A09E" transform="translate(0,0)"/>
<path d="" fill="#A4A09E" transform="translate(0,0)"/>
<path d="" fill="#A6A3A1" transform="translate(0,0)"/>
<path d="" fill="#A8A4A2" transform="translate(0,0)"/>
<path d="" fill="#A8A5A3" transform="translate(0,0)"/>
<path d="" fill="#E7E6E5" transform="translate(0,0)"/>
<path d="" fill="#E7E5E4" transform="translate(0,0)"/>
<path d="" fill="#E8E6E5" transform="translate(0,0)"/>
<path d="" fill="#E8E7E6" transform="translate(0,0)"/>
<path d="" fill="#E9E7E6" transform="translate(0,0)"/>
<path d="" fill="#E9E8E7" transform="translate(0,0)"/>
<path d="" fill="#EAE9E8" transform="translate(0,0)"/>
<path d="" fill="#E9E8E7" transform="translate(0,0)"/>
<path d="" fill="#E9E8E7" transform="translate(0,0)"/>
<path d="" fill="#EAE8E7" transform="translate(0,0)"/>
<path d="" fill="#EAE9E8" transform="translate(0,0)"/>
<path d="" fill="#EAE9E8" transform="translate(0,0)"/>
<path d="" fill="#EBE9E8" transform="translate(0,0)"/>
<path d="" fill="#EBE9E8" transform="translate(0,0)"/>
<path d="" fill="#EAE9E8" transform="translate(0,0)"/>
<path d="" fill="#EBE9E8" transform="translate(0,0)"/>
<path d="" fill="#EAE9E8" transform="translate(0,0)"/>
<path d="" fill="#EAE9E8" transform="translate(0,0)"/>
<path d="" fill="#EAE9E8" transform="translate(0,0)"/>
<path d="" fill="#EDEBEB" transform="translate(0,0)"/>
<path d="" fill="#ECEBEA" transform="translate(0,0)"/>
<path d="" fill="#EBEAE9" transform="translate(0,0)"/>
<path d="" fill="#ECEBEA" transform="translate(0,0)"/>
<path d="" fill="#ECEBEB" transform="translate(0,0)"/>
<path d="" fill="#ECEBEA" transform="translate(0,0)"/>
<path d="" fill="#DBD9D8" transform="translate(0,0)"/>
<path d="" fill="#DBD9D8" transform="translate(0,0)"/>
<path d="" fill="#ECEBEA" transform="translate(0,0)"/>
<path d="" fill="#EDECEB" transform="translate(0,0)"/>
<path d="" fill="#ECEBEA" transform="translate(0,0)"/>
<path d="" fill="#DDDBDA" transform="translate(0,0)"/>
<path d="" fill="#EDECEB" transform="translate(0,0)"/>
<path d="" fill="#ECEBEA" transform="translate(0,0)"/>
<path d="" fill="#DDDBDA" transform="translate(0,0)"/>
<path d="" fill="#ECEBEA" transform="translate(0,0)"/>
<path d="" fill="#E0DFDE" transform="translate(0,0)"/>
<path d="" fill="#EBEAE9" transform="translate(0,0)"/>
<path d="" fill="#ECEBEA" transform="translate(0,0)"/>
<path d="" fill="#DDDBDA" transform="translate(0,0)"/>
<path d="" fill="#ECEBEA" transform="translate(0,0)"/>
<path d="" fill="#DFDDDC" transform="translate(0,0)"/>
<path d="" fill="#E0DFDE" transform="translate(0,0)"/>
<path d="" fill="#EAE9E8" transform="translate(0,0)"/>
<path d="" fill="#EBE9E8" transform="translate(0,0)"/>
<path d="" fill="#DEDDDC" transform="translate(0,0)"/>
<path d="" fill="#EBEAE9" transform="translate(0,0)"/>
<path d="" fill="#E0DEDD" transform="translate(0,0)"/>
<path d="" fill="#ECEAE9" transform="translate(0,0)"/>
<path d="" fill="#E0DFDE" transform="translate(0,0)"/>
<path d="" fill="#EDEBEA" transform="translate(0,0)"/>
<path d="" fill="#E1E0DF" transform="translate(0,0)"/>
<path d="" fill="#E3E2E0" transform="translate(0,0)"/>
<path d="" fill="#EBEAE9" transform="translate(0,0)"/>
<path d="" fill="#EBEAE9" transform="translate(0,0)"/>
<path d="" fill="#DFDDDC" transform="translate(0,0)"/>
<path d="" fill="#EAE9E8" transform="translate(0,0)"/>
<path d="" fill="#E0DEDD" transform="translate(0,0)"/>
<path d="" fill="#EAE9E8" transform="translate(0,0)"/>
<path d="" fill="#E0DEDD" transform="translate(0,0)"/>
<path d="" fill="#EBEAE8" transform="translate(0,0)"/>
<path d="" fill="#E1DFDE" transform="translate(0,0)"/>
<path d="" fill="#EBEAE8" transform="translate(0,0)"/>
<path d="" fill="#E1E0DF" transform="translate(0,0)"/>
<path d="" fill="#EBEAE9" transform="translate(0,0)"/>
<path d="" fill="#E1E0DF" transform="translate(0,0)"/>
<path d="" fill="#EBEAE9" transform="translate(0,0)"/>
<path d="" fill="#E5E4E3" transform="translate(0,0)"/>
<path d="" fill="#EDECEB" transform="translate(0,0)"/>
<path d="" fill="#E4E3E2" transform="translate(0,0)"/>
<path d="" fill="#ECEBEA" transform="translate(0,0)"/>
<path d="" fill="#E3E2E1" transform="translate(0,0)"/>
<path d="" fill="#ECEBEA" transform="translate(0,0)"/>
<path d="" fill="#E3E2E1" transform="translate(0,0)"/>
<path d="" fill="#ECEBEA" transform="translate(0,0)"/>
<path d="" fill="#E3E1E0" transform="translate(0,0)"/>
<path d="" fill="#EEECEC" transform="translate(0,0)"/>
<path d="" fill="#E5E3E2" transform="translate(0,0)"/>
<path d="" fill="#ECEBEB" transform="translate(0,0)"/>
<path d="" fill="#E4E3E2" transform="translate(0,0)"/>
<path d="" fill="#ECEBEA" transform="translate(0,0)"/>
<path d="" fill="#E4E2E1" transform="translate(0,0)"/>
<path d="" fill="#EEEDEC" transform="translate(0,0)"/>
<path d="" fill="#E5E4E3" transform="translate(0,0)"/>
<path d="" fill="#EDECEB" transform="translate(0,0)"/>
<path d="" fill="#E5E3E3" transform="translate(0,0)"/>
<path d="" fill="#EDEBEB" transform="translate(0,0)"/>
<path d="" fill="#E5E4E3" transform="translate(0,0)"/>
<path d="" fill="#EDECEB" transform="translate(0,0)"/>
<path d="" fill="#E6E4E3" transform="translate(0,0)"/>
<path d="" fill="#EDECEB" transform="translate(0,0)"/>
<path d="" fill="#E7E5E4" transform="translate(0,0)"/>
<path d="" fill="#EDECEC" transform="translate(0,0)"/>
<path d="" fill="#E7E6E5" transform="translate(0,0)"/>
<path d="" fill="#E8E7E6" transform="translate(0,0)"/>
</svg>
