<?xml version="1.0" encoding="UTF-8"?>
<svg version="1.1" xmlns="http://www.w3.org/2000/svg" width="450" height="450">
<path d="M0 0 C1.03229736 0.24943359 1.03229736 0.24943359 2.08544922 0.50390625 C18.09580208 4.46886408 32.69863914 11.20818187 46 21 C46.80179688 21.57878906 47.60359375 22.15757813 48.4296875 22.75390625 C58.16194125 30.14084639 67.08329107 39.2131091 74.9375 48.5625 C85.90406165 61.31559425 103.2512304 66.02240195 118.66113281 71.18457031 C143.39095035 79.66435866 164.20255724 96.010064 175.98754883 119.62304688 C187.13718868 143.20445847 188.48833796 169.73712732 179.83203125 194.31640625 C169.51450135 220.46082667 150.50903016 238.81475772 125 250 C123.08866313 250.64111425 121.17280445 251.26914593 119.25 251.875 C116.39541567 252.95318743 115.29975242 253.48412514 113.75390625 256.14453125 C113.11775113 257.86294196 112.52348722 259.59735505 111.96875 261.34375 C108.51523072 270.81307705 99.57495868 277.89062846 90.8125 282.3125 C78.9723958 287.04031939 67.1952196 286.72854941 55.4375 281.9609375 C44.9516944 276.60880756 37.10203492 268.28384325 32.96875 257.24609375 C31.85811822 253.71366767 31 250.71660396 31 247 C22.58692325 248.39274353 14.40619289 250.04927601 6.25 252.5625 C-10.44381786 257.64526507 -27.66477865 258.99079397 -45 257 C-45.54527344 257.9178125 -46.09054688 258.835625 -46.65234375 259.78125 C-54.29629797 272.35043245 -62.23578269 280.37890807 -76.65234375 284.81640625 C-87.74582867 287.40651506 -98.45774374 285.13398553 -108.31640625 279.6875 C-118.22793514 273.45492288 -125.64175998 264.3038247 -128.5625 252.78515625 C-130.29813084 241.73600636 -128.74075898 232.41102802 -125 222 C-124.240272 220.04066784 -124.240272 220.04066784 -124 218 C-125.7183014 215.72613472 -127.4260712 213.74638165 -129.375 211.6875 C-153.98337885 184.31802283 -161.79983868 148.9252204 -160 113 C-157.43057484 78.95350671 -138.2826291 48.02363363 -113 26 C-81.91684821 0.7618649 -39.01347725 -9.77501674 0 0 Z " fill="#E3E1E2" transform="translate(216,92)"/>
<path d="M0 0 C9.51649576 6.86842738 15.43724957 14.61036024 21.24609375 24.62109375 C21.68953125 25.36488281 22.13296875 26.10867188 22.58984375 26.875 C27.96616267 36.62976046 31.00192707 50.35332889 28.09375 61.2734375 C23.09364191 75.12166314 14.24363495 84.21767755 1.21875 90.6171875 C-9.0266857 94.99611605 -19.32240288 93.80987085 -29.75390625 90.62109375 C-41.5900092 85.76616529 -49.58560747 76.71153259 -54.85546875 65.21875 C-59.45732329 52.29485009 -56.46222642 39.87459902 -51.97265625 27.4609375 C-51.55918263 25.56111344 -51.55918263 25.56111344 -52.75 23.91796875 C-53.22566406 23.4075 -53.70132813 22.89703125 -54.19140625 22.37109375 C-55.03703125 21.46359375 -55.88265625 20.55609375 -56.75390625 19.62109375 C-53.23674322 19.62109375 -52.38268877 20.4455496 -49.75390625 22.62109375 C-49.09390625 22.29109375 -48.43390625 21.96109375 -47.75390625 21.62109375 C-47.42390625 20.63109375 -47.09390625 19.64109375 -46.75390625 18.62109375 C-45.60214711 17.46933461 -44.44515162 16.32231437 -43.26171875 15.203125 C-41.4698115 13.32301506 -40.02492224 11.28825541 -38.50390625 9.18359375 C-29.07760865 -3.10535389 -13.80664647 -8.68760464 0 0 Z " fill="#424BBE" transform="translate(143.75390625,284.37890625)"/>
<path d="M0 0 C5.4438358 4.20835533 9.33877948 9.18619075 13.30859375 14.734375 C15.36037736 17.65657212 15.36037736 17.65657212 17.625 19.78515625 C19.66987699 21.85985436 20.78828853 23.76349728 22.0625 26.375 C22.45566406 27.16261719 22.84882813 27.95023437 23.25390625 28.76171875 C26.4089557 36.16965618 28.03616454 42.53528423 27.9375 50.625 C27.92920166 51.50454346 27.92090332 52.38408691 27.91235352 53.2902832 C27.6286671 64.17233257 23.96436901 71.76672973 16.5 79.6875 C7.19677878 88.29340482 -2.79141786 92.25761139 -15.5 92.6875 C-28.5179204 91.36644254 -38.61643678 86.24025819 -47.5 76.6875 C-52.46211279 70.08216032 -56.5 62.10286915 -56.5 53.6875 C-64.91307675 55.08024353 -73.09380711 56.73677601 -81.25 59.25 C-97.94381786 64.33276507 -115.16477865 65.67829397 -132.5 63.6875 C-130.5 61.6875 -130.5 61.6875 -127.86132812 61.4921875 C-126.76240234 61.51539063 -125.66347656 61.53859375 -124.53125 61.5625 C-123.31953125 61.57796875 -122.1078125 61.5934375 -120.859375 61.609375 C-118.31769545 61.660826 -115.7760283 61.7128936 -113.234375 61.765625 C-106.01919824 61.85695635 -99.49244202 61.48003418 -92.5 59.6875 C-91.83645508 59.53055664 -91.17291016 59.37361328 -90.48925781 59.21191406 C-88.61323292 58.76432475 -86.74399256 58.28860126 -84.875 57.8125 C-84.20694336 57.64468018 -83.53888672 57.47686035 -82.85058594 57.30395508 C-79.24472865 56.39660158 -75.64710163 55.46309186 -72.0546875 54.50390625 C-70.9730835 54.22039307 -70.9730835 54.22039307 -69.86962891 53.93115234 C-68.48697528 53.568369 -67.10629682 53.19794665 -65.72802734 52.81884766 C-62.33854185 51.93641414 -59.82391325 51.38647335 -56.5 52.6875 C-56.54640625 52.11644531 -56.5928125 51.54539062 -56.640625 50.95703125 C-57.28778506 36.41904283 -50.5785275 22.16489003 -41.125 11.375 C-29.23786506 -1.03775655 -16.62344588 -11.16078378 0 0 Z " fill="#4D57CC" transform="translate(303.5,285.3125)"/>
<path d="M0 0 C3.14939866 2.19088603 4.86634076 3.79951115 7 7 C7.7425 7.061875 8.485 7.12375 9.25 7.1875 C13.76671192 8.52198307 15.5256385 12.17063102 18 16 C18.44601563 16.66128906 18.89203125 17.32257813 19.3515625 18.00390625 C27.07874562 30.49539553 28.62582737 45.64269368 27 60 C26.04802794 63.90636809 24.83646675 67.42544864 23 71 C22.34 71 21.68 71 21 71 C20.835 71.680625 20.67 72.36125 20.5 73.0625 C16.59785252 80.70420547 8.06343281 85.89170594 0.08007812 88.49316406 C-11.83525864 91.39647851 -23.51808317 90.03246571 -34.08984375 84.01953125 C-39.43399917 80.31090259 -43.6874617 76.73323936 -47 71 C-47 70.34 -47 69.68 -47 69 C-47.66 69 -48.32 69 -49 69 C-53.84397451 61.73403824 -53.86590598 50.49670247 -53 42 C-50.5944029 30.72376358 -45.53536822 17.15552199 -37 9 C-35.67007975 8.65329981 -34.33637299 8.3209301 -33 8 C-30.89863469 6.50837198 -30.89863469 6.50837198 -28.8125 4.6875 C-19.60151046 -2.6631419 -10.98205233 -5.44488309 0 0 Z " fill="#6670DF" transform="translate(222,211)"/>
<path d="M0 0 C9.51649576 6.86842738 15.43724957 14.61036024 21.24609375 24.62109375 C21.68953125 25.36488281 22.13296875 26.10867188 22.58984375 26.875 C27.41291245 35.62594663 31.07282868 48.89357069 28.30859375 58.74609375 C27.95796875 59.69484375 27.60734375 60.64359375 27.24609375 61.62109375 C26.91609375 61.62109375 26.58609375 61.62109375 26.24609375 61.62109375 C26.15537598 60.98437744 26.0646582 60.34766113 25.97119141 59.69165039 C24.70758865 51.80085444 22.33724282 44.55771158 19.62109375 37.05859375 C18.7929802 34.74571834 17.96732436 32.43196097 17.14453125 30.1171875 C16.78020996 29.10841553 16.41588867 28.09964355 16.04052734 27.06030273 C15.24609375 24.62109375 15.24609375 24.62109375 15.24609375 22.62109375 C14.10140625 22.21890625 14.10140625 22.21890625 12.93359375 21.80859375 C10.24609375 20.62109375 10.24609375 20.62109375 8.80859375 19.12109375 C6.59279005 16.9939222 4.15527968 16.46152524 1.24609375 15.62109375 C1.90609375 18.26109375 2.56609375 20.90109375 3.24609375 23.62109375 C3.90609375 23.62109375 4.56609375 23.62109375 5.24609375 23.62109375 C6.71875 25.484375 6.71875 25.484375 8.30859375 27.93359375 C8.83582031 28.73410156 9.36304688 29.53460938 9.90625 30.359375 C12.74207728 35.14638373 13.16973351 40.19147311 12.24609375 45.62109375 C10.47648104 48.27839491 9.13622471 49.00928994 6.24609375 50.62109375 C4.18359375 50.62109375 4.18359375 50.62109375 2.24609375 49.62109375 C1.40046875 49.31171875 0.55484375 49.00234375 -0.31640625 48.68359375 C-4.1498979 45.43987004 -4.89878074 41.46001827 -5.75390625 36.62109375 C-5.96322292 33.26747669 -5.94655344 29.97458181 -5.75390625 26.62109375 C-7.89916724 26.427155 -10.04514302 26.24110699 -12.19140625 26.05859375 C-13.38636719 25.95417969 -14.58132812 25.84976562 -15.8125 25.7421875 C-16.78316406 25.70222656 -17.75382812 25.66226562 -18.75390625 25.62109375 C-20.9866003 27.8537878 -20.53880335 33.38879546 -20.828125 36.54296875 C-21.47033252 42.46433981 -22.88589931 46.04366566 -27.56640625 49.99609375 C-30.75390625 51.62109375 -30.75390625 51.62109375 -33.94140625 51.68359375 C-36.75390625 50.62109375 -36.75390625 50.62109375 -38.69140625 48.62109375 C-40.78419938 42.71203079 -39.27130361 37.41055878 -36.81640625 31.80859375 C-35.80705343 29.70161771 -34.76263696 27.63696778 -33.63671875 25.58984375 C-32.29451023 22.59659997 -32.57123398 19.84830385 -32.75390625 16.62109375 C-33.08390625 16.29109375 -33.41390625 15.96109375 -33.75390625 15.62109375 C-33.82579096 13.32527594 -33.75037057 11.04592306 -33.69140625 8.75 C-33.60609487 6.56607159 -33.60609487 6.56607159 -34.75390625 4.62109375 C-23.48520755 -3.43915601 -12.91305322 -8.12532583 0 0 Z " fill="#747BC7" transform="translate(143.75390625,284.37890625)"/>
<path d="M0 0 C2.9927271 2.27430256 4.90503906 3.9200586 7 7.0625 C5.625 10.75 5.625 10.75 4 14.0625 C4.66 14.3925 5.32 14.7225 6 15.0625 C5.62875 15.59875 5.2575 16.135 4.875 16.6875 C3.61024415 20.12040874 4.54598088 21.75791109 6 25.0625 C6.680625 25.949375 7.36125 26.83625 8.0625 27.75 C10.77586462 32.38897823 11.33331142 36.72138778 11 42.0625 C9.14728792 45.76792416 7.9765642 46.70159584 4.125 48.125 C-0.13336452 48.03983271 -1.83223693 46.8782894 -5 44.0625 C-8.42438018 38.19213399 -9.07049552 31.72212619 -10 25.0625 C-11.010625 24.711875 -12.02125 24.36125 -13.0625 24 C-13.63097656 23.80277344 -14.19945312 23.60554688 -14.78515625 23.40234375 C-17.96932495 22.9137676 -20.84651563 23.52114554 -24 24.0625 C-23.94779297 25.69058594 -23.94779297 25.69058594 -23.89453125 27.3515625 C-23.86637612 28.79685942 -23.83907781 30.24217321 -23.8125 31.6875 C-23.78736328 32.40035156 -23.76222656 33.11320312 -23.73632812 33.84765625 C-23.66983361 38.67959137 -24.37618914 41.8543833 -27 46.0625 C-29.53878883 48.60128883 -31.08822774 49.88882909 -34.625 50.5625 C-37 50.0625 -37 50.0625 -38.8125 48.625 C-40.59260799 44.78371433 -40.56494639 41.22526285 -40 37.0625 C-38.61019502 34.09337118 -37.30342972 32.36592972 -35 30.0625 C-34.20930449 28.13868421 -34.20930449 28.13868421 -33.5625 25.9375 C-32.17967289 21.58441669 -30.62914492 17.32930813 -29 13.0625 C-37.89378366 17.16632739 -45.92103024 23.98813996 -50 33.0625 C-50.85982818 35.72243631 -51.42380088 38.31447341 -52 41.0625 C-52.33 42.031875 -52.66 43.00125 -53 44 C-54.2942338 47.96359102 -55.14813419 51.98441897 -56 56.0625 C-56.33 55.0725 -56.66 54.0825 -57 53.0625 C-65.41307675 54.45524353 -73.59380711 56.11177601 -81.75 58.625 C-98.44381786 63.70776507 -115.66477865 65.05329397 -133 63.0625 C-131 61.0625 -131 61.0625 -128.36132812 60.8671875 C-127.26240234 60.89039063 -126.16347656 60.91359375 -125.03125 60.9375 C-123.81953125 60.95296875 -122.6078125 60.9684375 -121.359375 60.984375 C-118.81769545 61.035826 -116.2760283 61.0878936 -113.734375 61.140625 C-106.51919824 61.23195635 -99.99244202 60.85503418 -93 59.0625 C-92.33645508 58.90555664 -91.67291016 58.74861328 -90.98925781 58.58691406 C-89.11323292 58.13932475 -87.24399256 57.66360126 -85.375 57.1875 C-84.70694336 57.01968018 -84.03888672 56.85186035 -83.35058594 56.67895508 C-79.74472865 55.77160158 -76.14710163 54.83809186 -72.5546875 53.87890625 C-71.4730835 53.59539307 -71.4730835 53.59539307 -70.36962891 53.30615234 C-68.98697528 52.943369 -67.60629682 52.57294665 -66.22802734 52.19384766 C-62.83854185 51.31141414 -60.32391325 50.76147335 -57 52.0625 C-57.04640625 51.49144531 -57.0928125 50.92039062 -57.140625 50.33203125 C-57.78778506 35.79404283 -51.0785275 21.53989003 -41.625 10.75 C-29.40404329 -2.01133915 -16.70565282 -11.92634532 0 0 Z " fill="#787FCA" transform="translate(304,285.9375)"/>
<path d="M0 0 C9.51649576 6.86842738 15.43724957 14.61036024 21.24609375 24.62109375 C21.68953125 25.36488281 22.13296875 26.10867188 22.58984375 26.875 C27.41291245 35.62594663 31.07282868 48.89357069 28.30859375 58.74609375 C27.95796875 59.69484375 27.60734375 60.64359375 27.24609375 61.62109375 C26.91609375 61.62109375 26.58609375 61.62109375 26.24609375 61.62109375 C26.15827637 61.00468018 26.07045898 60.3882666 25.97998047 59.75317383 C24.73920091 52.01982818 22.5426144 44.70799056 20.04248047 37.3034668 C19.36752327 35.29798488 18.71055377 33.28718593 18.0546875 31.27539062 C17.62215723 29.97750969 17.18859953 28.6799706 16.75390625 27.3828125 C16.17600342 25.64970825 16.17600342 25.64970825 15.58642578 23.8815918 C13.44251531 18.66630503 10.5391457 14.5197512 6.30859375 10.80859375 C5.66019531 10.22464844 5.01179688 9.64070313 4.34375 9.0390625 C1.96731756 7.43264727 0.06729286 6.99888911 -2.75390625 6.62109375 C-2.75390625 8.60109375 -2.75390625 10.58109375 -2.75390625 12.62109375 C-3.73230469 12.52570313 -4.71070313 12.4303125 -5.71875 12.33203125 C-13.13577342 11.70482966 -19.5517511 11.52046516 -26.75390625 13.62109375 C-28.75099281 13.97145981 -30.74989614 14.3127845 -32.75390625 14.62109375 C-33.09570312 11.59375 -33.09570312 11.59375 -33.4375 8.56640625 C-33.66683586 6.54705059 -33.66683586 6.54705059 -34.75390625 4.62109375 C-23.48520755 -3.43915601 -12.91305322 -8.12532583 0 0 Z " fill="#9096DB" transform="translate(143.75390625,284.37890625)"/>
<path d="M0 0 C-0.54836821 4.2422374 -1.97399686 6.76600805 -4.5 10.1875 C-6.9495258 13.47250468 -6.9495258 13.47250468 -9 17 C-9.66 17 -10.32 17 -11 17 C-10.97381592 17.57967529 -10.94763184 18.15935059 -10.9206543 18.7565918 C-10.81629388 21.39994875 -10.75155673 24.04287199 -10.6875 26.6875 C-10.64560547 27.59951172 -10.60371094 28.51152344 -10.56054688 29.45117188 C-10.43470653 36.37239072 -10.43470653 36.37239072 -13.48046875 39.75390625 C-14.31191406 40.49511719 -15.14335937 41.23632812 -16 42 C-17.38484482 48.28882472 -16.76470743 54.42784649 -13.625 60.0625 C-12.75936774 61.3811971 -11.88487581 62.69413782 -11 64 C-10.6596875 64.68449219 -10.319375 65.36898437 -9.96875 66.07421875 C-8.6583696 68.67912818 -6.86062299 70.76725241 -5 73 C-13.73102952 69.93109683 -19.29605073 63.33449872 -23.80859375 55.4921875 C-27.57242067 47.61900201 -27.74323787 40.07092722 -25.328125 31.66015625 C-24.82873089 30.37345205 -24.3036363 29.09634491 -23.75 27.83203125 C-22.94273554 25.86011963 -22.50180859 23.95779342 -22.0625 21.875 C-20.11050275 13.84838729 -13.65449178 7.24816386 -6.99609375 2.6015625 C-2.57712766 0 -2.57712766 0 0 0 Z " fill="#343CB1" transform="translate(275,299)"/>
<path d="M0 0 C2.9927271 2.27430256 4.90503906 3.9200586 7 7.0625 C5.625 10.75 5.625 10.75 4 14.0625 C3.32453125 13.85753906 2.6490625 13.65257812 1.953125 13.44140625 C1.06109375 13.17199219 0.1690625 12.90257812 -0.75 12.625 C-1.63171875 12.35816406 -2.5134375 12.09132813 -3.421875 11.81640625 C-8.48397702 10.3361249 -12.96640317 9.93932265 -18.25 10 C-18.99507813 10.00451172 -19.74015625 10.00902344 -20.5078125 10.01367188 C-22.3385764 10.02540754 -24.16929873 10.0433415 -26 10.0625 C-26 8.0825 -26 6.1025 -26 4.0625 C-28.78350026 3.59112168 -28.78350026 3.59112168 -32 4.0625 C-34.03266512 5.926279 -35.49982605 7.51889249 -37.125 9.6875 C-37.54136719 10.20957031 -37.95773437 10.73164063 -38.38671875 11.26953125 C-43.14400868 17.30935076 -46.89065722 23.55706831 -50.25 30.4375 C-50.61351562 31.17355469 -50.97703125 31.90960938 -51.3515625 32.66796875 C-52.23807562 34.46432429 -53.11956233 36.26315894 -54 38.0625 C-55.30584061 34.13579352 -54.38600858 32.11315853 -52.54931641 28.42822266 C-52.18241699 27.73003418 -51.81551758 27.0318457 -51.4375 26.3125 C-51.06544434 25.59239746 -50.69338867 24.87229492 -50.31005859 24.13037109 C-47.63151468 19.0442509 -44.86308052 14.3478242 -41 10.0625 C-39.89011719 8.81533203 -39.89011719 8.81533203 -38.7578125 7.54296875 C-27.45101408 -4.48591493 -14.50067472 -10.35218773 0 0 Z " fill="#9097E0" transform="translate(304,285.9375)"/>
<path d="M0 0 C0.25 2.1875 0.25 2.1875 0 5 C-0.598125 5.70125 -1.19625 6.4025 -1.8125 7.125 C-5.00555075 11.32158099 -5.77438498 15.93412459 -7 21 C-8.48325359 26.63636364 -8.48325359 26.63636364 -10.6875 28.1875 C-11.450625 28.455625 -12.21375 28.72375 -13 29 C-14.25244373 29.53599205 -15.5023102 30.07803296 -16.75 30.625 C-18.35875 31.305625 -18.35875 31.305625 -20 32 C-21.36517442 38.93963663 -20.61672815 43.19154673 -17.91015625 49.71484375 C-17 52 -17 52 -17 54 C-16.01 54 -15.02 54 -14 54 C-13.5875 55.051875 -13.175 56.10375 -12.75 57.1875 C-11.30588622 60.58704057 -9.44808942 63.21424307 -7 66 C-13.27865107 63.42126831 -17.41728227 57.16543547 -20.37109375 51.2578125 C-24.26165267 41.65254982 -26.6450682 30.7941733 -22.4609375 20.890625 C-19.18162788 14.12720375 -15.41396166 8.14046821 -9 4 C-8.45085937 3.59394531 -7.90171875 3.18789063 -7.3359375 2.76953125 C-4.67565292 0.8496707 -3.34828303 0 0 0 Z " fill="#3941AC" transform="translate(111,302)"/>
<path d="M0 0 C0.05447047 1.41623216 0.09300508 2.83308191 0.125 4.25 C0.14820313 5.03890625 0.17140625 5.8278125 0.1953125 6.640625 C-0.0171622 9.20731941 -0.71345895 10.7916067 -2 13 C-2.495 12.01 -2.495 12.01 -3 11 C-2.67 10.01 -2.34 9.02 -2 8 C-10.89378366 12.10382739 -18.92103024 18.92563996 -23 28 C-23.85982818 30.65993631 -24.42380088 33.25197341 -25 36 C-25.33 36.969375 -25.66 37.93875 -26 38.9375 C-27.2942338 42.90109102 -28.14813419 46.92191897 -29 51 C-29.33 50.01 -29.66 49.02 -30 48 C-38.41307675 49.39274353 -46.59380711 51.04927601 -54.75 53.5625 C-71.44381786 58.64526507 -88.66477865 59.99079397 -106 58 C-104 56 -104 56 -101.36132812 55.8046875 C-100.26240234 55.82789063 -99.16347656 55.85109375 -98.03125 55.875 C-96.81953125 55.89046875 -95.6078125 55.9059375 -94.359375 55.921875 C-91.81769545 55.973326 -89.2760283 56.0253936 -86.734375 56.078125 C-79.51919824 56.16945635 -72.99244202 55.79253418 -66 54 C-65.00468262 53.76458496 -65.00468262 53.76458496 -63.98925781 53.52441406 C-62.11323292 53.07682475 -60.24399256 52.60110126 -58.375 52.125 C-57.70694336 51.95718018 -57.03888672 51.78936035 -56.35058594 51.61645508 C-52.74472865 50.70910158 -49.14710163 49.77559186 -45.5546875 48.81640625 C-44.4730835 48.53289307 -44.4730835 48.53289307 -43.36962891 48.24365234 C-41.98697528 47.880869 -40.60629682 47.51044665 -39.22802734 47.13134766 C-35.83854185 46.24891414 -33.32391325 45.69897335 -30 47 C-30.01160156 46.32453125 -30.02320313 45.6490625 -30.03515625 44.953125 C-30.04417969 44.06109375 -30.05320312 43.1690625 -30.0625 42.25 C-30.07410156 41.36828125 -30.08570313 40.4865625 -30.09765625 39.578125 C-30.00826198 37.2181162 -29.66912821 35.25501476 -29 33 C-28.34 33 -27.68 33 -27 33 C-26.84144531 32.443125 -26.68289062 31.88625 -26.51953125 31.3125 C-24.75896737 25.55419163 -22.43197026 20.92682328 -19 16 C-18.37609375 15.08605469 -17.7521875 14.17210937 -17.109375 13.23046875 C-7.09650493 -1.04360367 -7.09650493 -1.04360367 0 0 Z " fill="#7F81AF" transform="translate(277,291)"/>
<path d="M0 0 C1.14519012 2.29038024 1.07351912 3.53068537 1 6.0625 C1 7.361875 1 8.66125 1 10 C1.33 10.33 1.66 10.66 2 11 C2.75558072 16.91871563 1.00947758 20.39623819 -1.75 25.5859375 C-4.91002735 31.68874033 -5.45082556 36.41548399 -4 43 C-1.20129061 45.29214747 -1.20129061 45.29214747 1.875 44.875 C5.63708234 43.82161694 7.37508199 42.91657557 10 40 C12.02151564 34.61661595 12.29990351 28.75904147 12.65625 23.06640625 C13 21 13 21 15 19 C18.625 18.875 18.625 18.875 22 19 C22.495 19.99 22.495 19.99 23 21 C22.05125 20.95875 21.1025 20.9175 20.125 20.875 C16.89755144 20.65026182 16.89755144 20.65026182 15 23 C14.90962491 25.1058765 14.90962491 25.1058765 15.125 27.5 C15.26519303 34.40951346 12.96976566 39.81807086 9.375 45.625 C5.41977987 47.91486429 1.43146797 47.82445916 -3 47 C-5.83362147 44.90851749 -6.74038598 43.52408703 -7.33203125 40.05078125 C-7.74247642 31.58344936 -5.62175186 23.37131877 0 17 C0.3879234 15.34518753 0.72866051 13.67787478 1 12 C-10.49681433 18.00389193 -15.28760425 23.45690445 -21 35 C-21.33 34.34 -21.66 33.68 -22 33 C-21.02984822 30.18343031 -19.87250015 27.47091089 -18.71484375 24.7265625 C-17.744381 22.06940565 -17.744381 22.06940565 -18.77734375 19.8203125 C-19.18082031 19.21960938 -19.58429688 18.61890625 -20 18 C-20.53625 17.0925 -21.0725 16.185 -21.625 15.25 C-22.07875 14.5075 -22.5325 13.765 -23 13 C-20.50638429 14.20381448 -18.31856917 15.45428722 -16 17 C-15.34 16.67 -14.68 16.34 -14 16 C-13.67 15.01 -13.34 14.02 -13 13 C-11.35697047 11.31002677 -9.68528688 9.64783606 -8 8 C-6.41876394 6.17072691 -4.86954602 4.31923791 -3.33203125 2.453125 C-2 1 -2 1 0 0 Z " fill="#5059C4" transform="translate(110,290)"/>
<path d="M0 0 C2.4375 0.125 2.4375 0.125 5 1 C9.42926938 6.11069544 12.26207453 12.83911558 12.25 19.625 C12.1675 20.73875 12.085 21.8525 12 23 C11.34 23 10.68 23 10 23 C10 23.66 10 24.32 10 25 C8.02 25 6.04 25 4 25 C4 24.34 4 23.68 4 23 C3.195625 22.690625 2.39125 22.38125 1.5625 22.0625 C-1 21 -1 21 -2 20 C-2.12667764 17.00981839 -2.18520838 14.05305892 -2.1875 11.0625 C-2.19974609 10.22525391 -2.21199219 9.38800781 -2.22460938 8.52539062 C-2.22654297 7.72423828 -2.22847656 6.92308594 -2.23046875 6.09765625 C-2.23457764 5.36039307 -2.23868652 4.62312988 -2.24291992 3.86352539 C-2 2 -2 2 0 0 Z " fill="#C0C2DD" transform="translate(300,305)"/>
<path d="M0 0 C5.48924378 2.22241507 8.34353842 6.89086019 11 12 C11.63694114 15.13202634 11.72074279 17.8810334 11 21 C10.34 21.99 9.68 22.98 9 24 C5.12018082 24.60352743 3.47951619 24.31967746 0.1875 22.125 C-3.1426354 18.89001133 -3.16746403 16.81777644 -3.234375 12.234375 C-3.23953125 11.49703125 -3.2446875 10.7596875 -3.25 10 C-3.270625 9.26265625 -3.29125 8.5253125 -3.3125 7.765625 C-3.328125 5.625 -3.328125 5.625 -3 2 C-2.01 1.34 -1.02 0.68 0 0 Z " fill="#C2C5EB" transform="translate(223,232)"/>
<path d="M0 0 C0.60585938 0.48210937 1.21171875 0.96421875 1.8359375 1.4609375 C1.1759375 2.4509375 0.5159375 3.4409375 -0.1640625 4.4609375 C-1.1334375 3.6771875 -2.1028125 2.8934375 -3.1015625 2.0859375 C-8.34412404 -1.64210626 -13.48710938 -2.62980667 -19.8515625 -2.4140625 C-23.5915618 -1.42613816 -25.9775708 0.31351918 -29.1640625 2.4609375 C-29.94394531 2.38488281 -30.72382813 2.30882812 -31.52734375 2.23046875 C-34.42583059 2.20753919 -34.42583059 2.20753919 -36.69921875 4.875 C-37.55704366 5.93302825 -38.39911372 7.00398747 -39.2265625 8.0859375 C-39.64744141 8.60800781 -40.06832031 9.13007813 -40.50195312 9.66796875 C-45.2805607 15.66901082 -49.05535837 21.95681386 -52.4140625 28.8359375 C-52.77757812 29.57199219 -53.14109375 30.30804688 -53.515625 31.06640625 C-54.40213812 32.86276179 -55.28362483 34.66159644 -56.1640625 36.4609375 C-57.46990311 32.53423102 -56.55007108 30.51159603 -54.71337891 26.82666016 C-54.34647949 26.12847168 -53.97958008 25.4302832 -53.6015625 24.7109375 C-53.22950684 23.99083496 -52.85745117 23.27073242 -52.47412109 22.52880859 C-49.79557718 17.4426884 -47.02714302 12.7462617 -43.1640625 8.4609375 C-42.05417969 7.21376953 -42.05417969 7.21376953 -40.921875 5.94140625 C-28.34394833 -7.43978365 -15.27136882 -11.51226265 0 0 Z " fill="#A4A8E0" transform="translate(306.1640625,287.5390625)"/>
<path d="M0 0 C3.70814234 3.67596756 6.37236738 8.08315537 6.5 13.375 C6 17 6 17 4 20 C-1.97142857 20.65142857 -1.97142857 20.65142857 -4.875 18.8125 C-7.35218611 14.82147793 -7.11267544 10.25346513 -7.0625 5.6875 C-7.05347656 4.61886719 -7.04445312 3.55023438 -7.03515625 2.44921875 C-7.02355469 1.64097656 -7.01195312 0.83273437 -7 0 C-4.2395917 -1.38020415 -2.91025337 -0.92018601 0 0 Z " fill="#B9BBD9" transform="translate(148,311)"/>
<path d="M0 0 C0.66 0 1.32 0 2 0 C-0.16616795 4.75295104 -3.48434287 8.193105 -7 12 C-7.62261719 12.67675781 -8.24523437 13.35351562 -8.88671875 14.05078125 C-20.13661239 25.80269854 -35.24659364 34.06164841 -51 38 C-51 32.39 -51 26.78 -51 21 C-49 23 -49 23 -48.76953125 25.27734375 C-48.78371094 26.15519531 -48.79789062 27.03304688 -48.8125 27.9375 C-48.81894531 28.81277344 -48.82539063 29.68804687 -48.83203125 30.58984375 C-49 33 -49 33 -50 36 C-47.52733235 35.65555119 -47.52733235 35.65555119 -45 35 C-44.67 34.34 -44.34 33.68 -44 33 C-41.72344116 32.43865672 -39.44675666 32.10753632 -37.12890625 31.7578125 C-34.31940716 30.75773393 -34.26948824 29.61620771 -33 27 C-30.66796875 25.4453125 -30.66796875 25.4453125 -28 24 C-19.33669305 18.37977061 -11.69151287 11.83847441 -4.5 4.4375 C-2 2 -2 2 0 2 C0 1.34 0 0.68 0 0 Z " fill="#A09D9D" transform="translate(382,307)"/>
<path d="M0 0 C0.99 0.66 1.98 1.32 3 2 C2.61975831 7.06083587 0.35049252 8.82102816 -3.375 12.0625 C-9.03354673 17.34724958 -11.37701712 22.13352123 -12 30 C-12.28580158 40.1233928 -8.00738692 48.66223893 -2.953125 57.1875 C-2 59 -2 59 -2 61 C-4.99324263 59.9024777 -5.84610901 59.32317108 -7.25 56.375 C-7.4975 55.59125 -7.745 54.8075 -8 54 C-8.66 54 -9.32 54 -10 54 C-14.84063756 46.73904365 -14.87399348 35.49176384 -14 27 C-12.03239862 18.03411914 -9.04999166 7.77999221 -2.1875 1.375 C-1.465625 0.92125 -0.74375 0.4675 0 0 Z " fill="#5158C5" transform="translate(183,226)"/>
<path d="M0 0 C4.29332637 2.91973803 8.10333136 5.65499704 11 10 C9.3125 10.8125 9.3125 10.8125 7 11 C4.625 8.8125 4.625 8.8125 2 6 C-3.16140787 1.96063732 -7.29054413 0.83513529 -13.8125 1.125 C-21.85603723 3.33302983 -28.58505256 7.78561535 -35 13 C-35.66 12.34 -36.32 11.68 -37 11 C-32.89827509 4.84741264 -26.55353129 0.66798407 -19.9375 -2.4375 C-12.81960377 -3.80050141 -6.43948056 -3.51355689 0 0 Z " fill="#A8ADE2" transform="translate(222,208)"/>
<path d="M0 0 C1.32 1.32 2.64 2.64 4 4 C3.34 4 2.68 4 2 4 C2.226875 4.886875 2.45375 5.77375 2.6875 6.6875 C3.0630245 10.66805965 2.03402315 11.69471238 0 15 C0.13634845 17.52244625 0.78890055 19.48717201 1.74609375 21.8125 C4.07210865 27.51068004 5.39720699 32.50698253 3 38.5 C0.39776218 40.45167837 -1.80365751 40.49855077 -5 40.31640625 C-7.99387952 39.84276515 -9.72584487 39.00660747 -12 37 C-14.32024669 32.35950662 -14.69604216 27.11795706 -14 22 C-13.34 21.34 -12.68 20.68 -12 20 C-11.98582031 20.80824219 -11.97164062 21.61648437 -11.95703125 22.44921875 C-11.72003001 29.22287225 -11.72003001 29.22287225 -8.8125 35.1875 C-5.76637372 37.15055916 -3.59286552 37.74933496 0 38 C1.35874092 33.92377723 1.66375634 30.25792632 1 26 C-0.41992802 23.36370008 -2.09143629 21.33799054 -4 19 C-4 18.34 -4 17.68 -4 17 C-3.34 17 -2.68 17 -2 17 C-1.1400133 11.34865884 -0.5381371 5.69051363 0 0 Z " fill="#8790E4" transform="translate(232,218)"/>
<path d="M0 0 C1.5 1.375 1.5 1.375 3 3 C3 3.66 3 4.32 3 5 C3.89138672 5.2784375 3.89138672 5.2784375 4.80078125 5.5625 C7.99396423 7.64969598 8.89246494 10.55890684 10.1875 14 C10.57711914 15.01223633 10.57711914 15.01223633 10.97460938 16.04492188 C13.93382437 24.06615322 15.00945212 30.85677662 12 39 C11.67 39 11.34 39 11 39 C10.90928223 38.36328369 10.81856445 37.72656738 10.72509766 37.07055664 C9.4614949 29.17976069 7.09114907 21.93661783 4.375 14.4375 C3.54688645 12.12462459 2.72123061 9.81086722 1.8984375 7.49609375 C1.53411621 6.48732178 1.16979492 5.4785498 0.79443359 4.43920898 C0 2 0 2 0 0 Z " fill="#7C7FC0" transform="translate(159,307)"/>
<path d="M0 0 C0.66 0.33 1.32 0.66 2 1 C-0.35366448 8.22638608 -6.31092423 12.71155988 -12.61328125 16.62109375 C-23.57003984 22.09135693 -34.2260605 22.76328343 -46.0390625 20.01953125 C-48.89464972 19.03627496 -50.7327223 17.96313069 -53 16 C-50.17328524 16.51394814 -47.52064585 17.15223126 -44.77734375 18.0234375 C-35.95443806 20.3044369 -25.64285569 19.92978159 -17 17 C-16.69320312 16.38382812 -16.38640625 15.76765625 -16.0703125 15.1328125 C-14.64453453 12.29166369 -12.84962539 11.325248 -10.1875 9.625 C-5.9545285 6.78872532 -2.99847743 4.09791916 0 0 Z " fill="#3A3F97" transform="translate(323,356)"/>
<path d="M0 0 C0.33 0 0.66 0 1 0 C1.6700834 2.12392506 2.33596797 4.24917524 3 6.375 C3.37125 7.55835938 3.7425 8.74171875 4.125 9.9609375 C5 13 5 13 5 15 C5.66 15 6.32 15 7 15 C7.66 13.68 8.32 12.36 9 11 C9.103125 11.598125 9.20625 12.19625 9.3125 12.8125 C10.11839382 15.37670761 11.0790927 16.15023742 13 18 C15.03575683 20.83772164 16.7765686 23.43484998 18.0625 26.6875 C19.03712459 29.09157398 20.05557074 30.32072018 22 32 C12.37104956 28.61548315 6.41673314 20.89335418 2 12 C0.22918072 7.81442714 -0.21592836 4.53449563 0 0 Z " fill="#333897" transform="translate(248,340)"/>
<path d="M0 0 C3.32740588 -0.38868812 4.64282868 -0.2630558 7.38671875 1.7578125 C8.52560547 2.92957031 8.52560547 2.92957031 9.6875 4.125 C10.83798828 5.27355469 10.83798828 5.27355469 12.01171875 6.4453125 C14.17265629 9.22184129 15.08514685 11.62433865 16 15 C11.35095321 13.36655113 11.35095321 13.36655113 9.59375 11.53125 C7.75293701 9.76262575 6.21344266 9.13905403 3.8125 8.3125 C3.09707031 8.06113281 2.38164062 7.80976563 1.64453125 7.55078125 C1.10183594 7.36902344 0.55914062 7.18726563 0 7 C0 4.69 0 2.38 0 0 Z " fill="#5C68DB" transform="translate(143,292)"/>
<path d="M0 0 C0.66 0 1.32 0 2 0 C-0.16754204 4.75596604 -3.48978962 8.18515597 -7 12 C-7.62261719 12.69996094 -8.24523437 13.39992188 -8.88671875 14.12109375 C-13.6633295 19.24650366 -18.57077221 22.2596734 -25 25 C-25 24.01 -25 23.02 -25 22 C-23.015625 20.37890625 -23.015625 20.37890625 -20.25 18.5625 C-14.85865985 14.82142739 -10.39241431 10.61995436 -5.88574219 5.86157227 C-4.62337779 4.54211708 -3.31527585 3.26671832 -2 2 C-1.34 2 -0.68 2 0 2 C0 1.34 0 0.68 0 0 Z " fill="#B5B2B0" transform="translate(382,307)"/>
<path d="M0 0 C0 3.73253964 -1.01400709 4.63597986 -3.25 7.5625 C-6.80364473 12.49891375 -9.05720226 17.26155113 -11 23 C-11.2990625 23.80179688 -11.598125 24.60359375 -11.90625 25.4296875 C-15.25496538 35.13476079 -14.24292438 44.96782462 -13 55 C-18.01618589 47.47572117 -17.50360627 37.60151231 -16 29 C-13.34721906 17.78335015 -7.6185072 8.54196262 0 0 Z " fill="#A8A7D1" transform="translate(184,220)"/>
<path d="M0 0 C4.00590426 3.74745882 5.16422393 6.42604086 5.4375 11.875 C5.4166415 14.72427162 5.39026905 16.41396081 3.80078125 18.80078125 C1.65706749 20.71770414 -0.12635291 22 -3.0625 22 C-3.701875 21.67 -4.34125 21.34 -5 21 C-5.86625 20.5875 -6.7325 20.175 -7.625 19.75 C-10.41439484 17.69465643 -11.16652223 16.33391109 -12 13 C-11.67 12.01 -11.34 11.02 -11 10 C-10.72027344 10.49371094 -10.44054687 10.98742187 -10.15234375 11.49609375 C-7.72053721 15.38229262 -6.8283289 16.79631257 -2.1875 17.9375 C-1.135625 17.958125 -0.08375 17.97875 1 18 C1.8814688 15.35559361 2.16174818 13.71939248 2.1875 11 C2.20876953 9.9790625 2.20876953 9.9790625 2.23046875 8.9375 C2.10940411 6.67385868 2.10940411 6.67385868 0 4 C0 2.68 0 1.36 0 0 Z " fill="#6870C3" transform="translate(151,313)"/>
<path d="M0 0 C-0.33 0.66 -0.66 1.32 -1 2 C-1.928125 1.938125 -2.85625 1.87625 -3.8125 1.8125 C-6.89861493 1.71802608 -6.89861493 1.71802608 -8.66796875 3.1484375 C-10.51422048 5.71478154 -10.40531954 7.67620969 -10.5 10.8125 C-10.90876448 17.21390606 -12.07685485 21.39969137 -16.8125 25.875 C-20.29933063 28.19955376 -21.90789784 28.48715502 -26 28 C-26 27.67 -26 27.34 -26 27 C-25.113125 26.773125 -24.22625 26.54625 -23.3125 26.3125 C-19.51769499 24.80889801 -17.63349146 23.08494714 -15 20 C-13.76240177 16.28720531 -13.64391103 12.68693654 -13.4375 8.8125 C-13.39431641 8.06291016 -13.35113281 7.31332031 -13.30664062 6.54101562 C-13.20077315 4.69421625 -13.0999024 2.84713166 -13 1 C-8.1542616 -0.50961173 -4.98333971 -1.21544871 0 0 Z " fill="#626AC5" transform="translate(293,309)"/>
<path d="M0 0 C0.33 0 0.66 0 1 0 C5.31096105 20.29306054 1.71177436 41.46962748 -7 60 C-7.66 59.01 -8.32 58.02 -9 57 C-8.54753906 56.46503906 -8.09507812 55.93007813 -7.62890625 55.37890625 C-5.74290707 52.62453335 -4.89642676 50.13262843 -3.9375 46.9375 C-3.61652344 45.89464844 -3.29554688 44.85179687 -2.96484375 43.77734375 C-0.3816882 33.66434205 0.26051382 24.25227603 0.125 13.8125 C0.1149393 12.46550153 0.10581897 11.11849569 0.09765625 9.77148438 C0.07430604 6.51412979 0.0415577 3.25716451 0 0 Z " fill="#D6D4D2" transform="translate(399,235)"/>
<path d="M0 0 C0.33 0 0.66 0 1 0 C1.01417969 0.85980469 1.02835937 1.71960938 1.04296875 2.60546875 C1.37161104 10.7504681 2.69719672 16.91700087 5.94140625 24.453125 C7 27 7 27 7 29 C7.99 29 8.98 29 10 29 C10.4125 30.051875 10.825 31.10375 11.25 32.1875 C12.69411378 35.58704057 14.55191058 38.21424307 17 41 C10.72134893 38.42126831 6.58271773 32.16543547 3.62890625 26.2578125 C2.65573511 23.85518484 1.76860124 21.47515652 1 19 C0.8040625 18.40445312 0.608125 17.80890625 0.40625 17.1953125 C-0.2051754 13.89126371 -0.10361715 10.59630372 -0.0625 7.25 C-0.05798828 6.55261719 -0.05347656 5.85523438 -0.04882812 5.13671875 C-0.0371002 3.42444197 -0.01916653 1.71220967 0 0 Z " fill="#3B3F90" transform="translate(87,327)"/>
<path d="M0 0 C10.08283776 4.95428325 19.82115842 12.28606022 27 21 C27.33 21.99 27.66 22.98 28 24 C24.12868687 22.43898664 21.93428649 19.9730664 19.125 16.9375 C13.1790824 10.70987371 6.3751559 6.36049364 -1 2 C-0.67 1.34 -0.34 0.68 0 0 Z " fill="#EEEDEC" transform="translate(352,171)"/>
<path d="M0 0 C0 3.40996718 -0.76721942 4.7275109 -2.375 7.6875 C-4.67762253 12.14356106 -5.94101255 16.11236563 -7 21 C-7.495 22.4540625 -7.495 22.4540625 -8 23.9375 C-9.2942338 27.90109102 -10.14813419 31.92191897 -11 36 C-13.64759659 28.05721022 -10.60166235 18.60448879 -7.09350586 11.3269043 C-2.66741071 2.66741071 -2.66741071 2.66741071 0 0 Z " fill="#6062B8" transform="translate(259,306)"/>
<path d="M0 0 C11.32804854 6.53369729 20.82692758 14.78365948 29 25 C25.86127187 23.62552428 23.97529258 22.09222007 21.6875 19.5625 C17.28404824 15.00893057 12.33763824 11.42570541 7.19213867 7.76977539 C6.5654126 7.3236792 5.93868652 6.87758301 5.29296875 6.41796875 C4.7311792 6.02375732 4.16938965 5.6295459 3.59057617 5.22338867 C1.91281758 3.9329438 0.46405343 2.52591873 -1 1 C-0.67 0.67 -0.34 0.34 0 0 Z " fill="#F1F0EF" transform="translate(254,108)"/>
<path d="M0 0 C1.670625 0.061875 1.670625 0.061875 3.375 0.125 C3.705 0.785 4.035 1.445 4.375 2.125 C3.42625 2.08375 2.4775 2.0425 1.5 2 C-1.72744856 1.77526182 -1.72744856 1.77526182 -3.625 4.125 C-3.71537509 6.2308765 -3.71537509 6.2308765 -3.5 8.625 C-3.39084955 14.40997365 -4.70889381 19.12058551 -7.625 24.125 C-10.1875 26.3125 -10.1875 26.3125 -12.625 27.125 C-13.615 26.795 -14.605 26.465 -15.625 26.125 C-14.696875 25.650625 -13.76875 25.17625 -12.8125 24.6875 C-8.55775042 21.81755099 -7.59583142 17.99386669 -6.625 13.125 C-6.30273446 10.21693712 -6.06924259 7.33277213 -5.93359375 4.41015625 C-5.38055012 0.31483315 -3.97302646 0.13700091 0 0 Z " fill="#5D65C0" transform="translate(128.625,308.875)"/>
<path d="M0 0 C0.05447047 1.41623216 0.09300508 2.83308191 0.125 4.25 C0.14820313 5.03890625 0.17140625 5.8278125 0.1953125 6.640625 C-0.0171622 9.20731941 -0.71345895 10.7916067 -2 13 C-2.33 12.34 -2.66 11.68 -3 11 C-2.67 10.01 -2.34 9.02 -2 8 C-2.99 7.67 -3.98 7.34 -5 7 C-3 4 -3 4 -2 3 C-6.10447392 3.51776621 -7.95699523 5.64627444 -10.75 8.5625 C-11.54921875 9.38878906 -12.3484375 10.21507812 -13.171875 11.06640625 C-14.07679688 12.02353516 -14.07679688 12.02353516 -15 13 C-15 8.3998569 -12.07158434 6.20809919 -9 3 C-5.9490873 0.1339911 -4.17090248 -0.34757521 0 0 Z " fill="#565ED3" transform="translate(277,291)"/>
<path d="M0 0 C0 3.20530602 -0.6374746 5.04263271 -1.8125 8 C-2.31716797 9.299375 -2.31716797 9.299375 -2.83203125 10.625 C-3.98462083 12.9687273 -5.14666077 14.21267012 -7 16 C-8.04976964 19.14930893 -8.10131595 21.38814456 -8.0625 24.6875 C-8.05347656 25.68136719 -8.04445313 26.67523438 -8.03515625 27.69921875 C-8.02355469 28.45847656 -8.01195312 29.21773438 -8 30 C-8.66 29.67 -9.32 29.34 -10 29 C-10.02709444 26.91673869 -10.04643873 24.83337559 -10.0625 22.75 C-10.07410156 21.58984375 -10.08570313 20.4296875 -10.09765625 19.234375 C-10.01782092 16.59022872 -9.78643778 14.50173909 -9 12 C-8.34 12 -7.68 12 -7 12 C-6.773125 11.319375 -6.54625 10.63875 -6.3125 9.9375 C-4.64427643 6.20385676 -2.44270392 3.27836579 0 0 Z " fill="#5860BC" transform="translate(273,304)"/>
<path d="M0 0 C2.4375 0.125 2.4375 0.125 5 1 C6.8125 3.0625 6.8125 3.0625 8 5 C7.67 5.66 7.34 6.32 7 7 C6.67 6.67 6.34 6.34 6 6 C4.33382885 5.95936168 2.66611905 5.957279 1 6 C-0.09506492 9.28519475 -0.09960608 11.73663415 -0.0625 15.1875 C-0.05347656 16.27417969 -0.04445313 17.36085938 -0.03515625 18.48046875 C-0.02355469 19.31191406 -0.01195312 20.14335937 0 21 C-0.66 20.67 -1.32 20.34 -2 20 C-2.05379226 17.04142591 -2.09357093 14.08382279 -2.125 11.125 C-2.14175781 10.28324219 -2.15851563 9.44148438 -2.17578125 8.57421875 C-2.18222656 7.76855469 -2.18867188 6.96289062 -2.1953125 6.1328125 C-2.21102295 5.01737061 -2.21102295 5.01737061 -2.22705078 3.87939453 C-2 2 -2 2 0 0 Z " fill="#999ED3" transform="translate(300,305)"/>
<path d="M0 0 C3.29849193 2.98434984 5.18541324 5.88412254 7.125 9.875 C7.62257812 10.88304687 8.12015625 11.89109375 8.6328125 12.9296875 C12.17584369 20.88632327 12.17584369 20.88632327 11.625 24.375 C11.41875 24.91125 11.2125 25.4475 11 26 C10.68546875 25.10796875 10.3709375 24.2159375 10.046875 23.296875 C9.40492188 21.54117187 9.40492188 21.54117187 8.75 19.75 C8.33234375 18.58984375 7.9146875 17.4296875 7.484375 16.234375 C6.00208034 13.00453296 4.60162786 11.35187158 2 9 C-0.29013653 5.5647952 -0.17842973 4.014669 0 0 Z " fill="#9E9FD6" transform="translate(159,301)"/>
<path d="M0 0 C0.66 0.33 1.32 0.66 2 1 C1.49210937 1.64324219 0.98421875 2.28648437 0.4609375 2.94921875 C-4.89104541 9.97494913 -8.58850368 16.87185157 -12 25 C-13.33113285 21.02690315 -12.3421167 18.93023804 -10.48828125 15.20507812 C-10.12089844 14.49802734 -9.75351563 13.79097656 -9.375 13.0625 C-9.03082031 12.35931641 -8.68664062 11.65613281 -8.33203125 10.93164062 C-6.08213759 6.50242193 -3.70033725 3.31731988 0 0 Z " fill="#A2A0CA" transform="translate(262,299)"/>
<path d="M0 0 C4.97169419 1.07720041 7.93859011 1.95394258 12 5 C14.20800528 4.78282648 14.20800528 4.78282648 16 4 C16 4.66 16 5.32 16 6 C18.97 6.495 18.97 6.495 22 7 C21.67 7.66 21.34 8.32 21 9 C13.45035883 8.70962919 7.43711384 5.88286707 1 2 C0.67 1.34 0.34 0.68 0 0 Z " fill="#323796" transform="translate(104,368)"/>
<path d="M0 0 C2.49361571 1.20381448 4.68143083 2.45428722 7 4 C7.66 4.33 8.32 4.66 9 5 C7.53012914 11.14673271 4.94033413 16.42234327 2 22 C1.67 21.34 1.34 20.68 1 20 C1.97015178 17.18343031 3.12749985 14.47091089 4.28515625 11.7265625 C5.255619 9.06940565 5.255619 9.06940565 4.22265625 6.8203125 C3.61744141 5.91925781 3.61744141 5.91925781 3 5 C2.46375 4.0925 1.9275 3.185 1.375 2.25 C0.92125 1.5075 0.4675 0.765 0 0 Z " fill="#494FA5" transform="translate(87,303)"/>
<path d="M0 0 C2.9375 0.8125 2.9375 0.8125 4.9375 3.8125 C4.5625 6 4.5625 6 3.9375 7.8125 C3.56625 7.1525 3.195 6.4925 2.8125 5.8125 C2.19375 5.1525 1.575 4.4925 0.9375 3.8125 C-1.0425 3.8125 -3.0225 3.8125 -5.0625 3.8125 C-4.7325 8.7625 -4.4025 13.7125 -4.0625 18.8125 C-6.54538836 16.32961164 -6.34833167 14.80063844 -6.38476562 11.40234375 C-6.38154297 10.71269531 -6.37832031 10.02304687 -6.375 9.3125 C-6.39111328 8.62285156 -6.40722656 7.93320312 -6.42382812 7.22265625 C-6.42578125 5.21875 -6.42578125 5.21875 -6.0625 1.8125 C-3.0625 -0.1875 -3.0625 -0.1875 0 0 Z " fill="#9297CF" transform="translate(146.0625,307.1875)"/>
<path d="M0 0 C0.53625 0.226875 1.0725 0.45375 1.625 0.6875 C1.295 1.0175 0.965 1.3475 0.625 1.6875 C1.285 2.3475 1.945 3.0075 2.625 3.6875 C0.03710938 4.76171875 0.03710938 4.76171875 -2.55078125 5.8359375 C-4.64033932 6.75556692 -4.64033932 6.75556692 -7.375 8.6875 C-9.5625 8.3125 -9.5625 8.3125 -11.375 7.6875 C-10.055 6.6975 -8.735 5.7075 -7.375 4.6875 C-7.705 4.0275 -8.035 3.3675 -8.375 2.6875 C-2.95961538 -0.38942308 -2.95961538 -0.38942308 0 0 Z " fill="#9EA2D8" transform="translate(124.375,281.3125)"/>
<path d="M0 0 C1.5 1.375 1.5 1.375 3 3 C3 3.66 3 4.32 3 5 C4.32 5.66 5.64 6.32 7 7 C7 10.96 7 14.92 7 19 C4.85357551 15.78036326 3.64118646 12.55570141 2.375 8.9375 C2.14554688 8.30005859 1.91609375 7.66261719 1.6796875 7.00585938 C0 2.261742 0 2.261742 0 0 Z " fill="#757BCE" transform="translate(159,307)"/>
<path d="M0 0 C0.99 0.66 1.98 1.32 3 2 C2.84595887 7.08335725 -0.02068432 9.35754718 -3.50390625 12.64453125 C-3.99761719 13.09183594 -4.49132812 13.53914062 -5 14 C-5 10.22089522 -4.00296038 9.53893899 -1.5 6.8125 C-0.8503125 6.09707031 -0.200625 5.38164062 0.46875 4.64453125 C1.22671875 3.83048828 1.22671875 3.83048828 2 3 C1.27683594 3.6496875 1.27683594 3.6496875 0.5390625 4.3125 C-0.40839844 5.1478125 -0.40839844 5.1478125 -1.375 6 C-2.00148437 6.556875 -2.62796875 7.11375 -3.2734375 7.6875 C-5 9 -5 9 -7 9 C-5.64978174 4.58110387 -3.73884332 2.65654657 0 0 Z " fill="#535DCF" transform="translate(183,226)"/>
<path d="M0 0 C0.88300781 0.19464844 1.76601563 0.38929688 2.67578125 0.58984375 C3.33964844 0.74582031 4.00351562 0.90179688 4.6875 1.0625 C4.6875 1.3925 4.6875 1.7225 4.6875 2.0625 C3.56730469 2.11148437 2.44710938 2.16046875 1.29296875 2.2109375 C-0.17971203 2.28597856 -1.65236707 2.36152582 -3.125 2.4375 C-3.86298828 2.4684375 -4.60097656 2.499375 -5.36132812 2.53125 C-9.13143115 2.73596148 -11.10900741 2.92683827 -14.3125 5.0625 C-16.5 4.6875 -16.5 4.6875 -18.3125 4.0625 C-17.08743102 3.40892722 -15.85720484 2.76501767 -14.625 2.125 C-13.94050781 1.76535156 -13.25601562 1.40570313 -12.55078125 1.03515625 C-8.07150896 -0.9113338 -4.74223067 -1.07490562 0 0 Z " fill="#C1C1E1" transform="translate(293.3125,280.9375)"/>
<path d="M0 0 C0.66 0 1.32 0 2 0 C4.55579195 5.53754923 3.62077189 9.38963576 2 15 C1.67 15 1.34 15 1 15 C0.67 12.69 0.34 10.38 0 8 C-3.18490007 7.7226499 -3.18490007 7.7226499 -6 10 C-4.34643078 6.41726669 -2.32019297 3.19026533 0 0 Z " fill="#6E76D7" transform="translate(185,220)"/>
<path d="M0 0 C4.24676583 4.10520697 6.20437407 6.72863265 6.625 12.6875 C6.69976562 13.68136719 6.77453125 14.67523438 6.8515625 15.69921875 C6.90054687 16.45847656 6.94953125 17.21773438 7 18 C6.34 18.33 5.68 18.66 5 19 C5 16.03 5 13.06 5 10 C4.34 10 3.68 10 3 10 C0.96564469 6.27034861 0 4.33094958 0 0 Z " fill="#6971C6" transform="translate(308,310)"/>
<path d="M0 0 C6.47058824 8.41176471 6.47058824 8.41176471 8 13 C9.49985609 14.66710346 9.49985609 14.66710346 11 16 C6.36299964 14.67514276 3.33947617 12.18738926 1 8 C0.32639477 5.26624446 0.14657956 2.83387146 0 0 Z " fill="#343CB4" transform="translate(259,356)"/>
<path d="M0 0 C1.32 0.66 2.64 1.32 4 2 C0.18765077 5.3502463 -3.33285711 7.16974789 -8 9 C-8 8.01 -8 7.02 -8 6 C-6.25 4.39453125 -6.25 4.39453125 -4 2.8125 C-3.2575 2.28269531 -2.515 1.75289063 -1.75 1.20703125 C-1.1725 0.80871094 -0.595 0.41039062 0 0 Z " fill="#B0ACAA" transform="translate(365,323)"/>
<path d="M0 0 C5.73491451 -0.88229454 8.76938812 1.49896975 13.2421875 4.6875 C13.82226562 5.120625 14.40234375 5.55375 15 6 C14.01 7.485 14.01 7.485 13 9 C12.52949219 8.65066406 12.05898438 8.30132812 11.57421875 7.94140625 C10.95160156 7.48636719 10.32898438 7.03132813 9.6875 6.5625 C9.07261719 6.11003906 8.45773437 5.65757812 7.82421875 5.19140625 C5.90322899 3.82663692 5.90322899 3.82663692 3 3 C3 2.34 3 1.68 3 1 C2.01 0.67 1.02 0.34 0 0 Z " fill="#A8ADE2" transform="translate(293,283)"/>
<path d="M0 0 C0.7528125 -0.01417969 1.505625 -0.02835938 2.28125 -0.04296875 C4.74864173 0.21332722 6.36356256 0.95904847 8.5 2.1875 C7.45199219 2.23648438 6.40398437 2.28546875 5.32421875 2.3359375 C3.94528646 2.41098143 2.5663815 2.48652857 1.1875 2.5625 C0.15206055 2.60890625 0.15206055 2.60890625 -0.90429688 2.65625 C-4.56990789 2.86874919 -6.37900792 3.10683861 -9.5 5.1875 C-11.6875 4.8125 -11.6875 4.8125 -13.5 4.1875 C-8.90264362 1.25030009 -5.43893801 0.04656625 0 0 Z " fill="#C0C1E4" transform="translate(209.5,204.8125)"/>
<path d="M0 0 C0.66 0.33 1.32 0.66 2 1 C0.25719203 2.96516623 -1.49364406 4.92200369 -3.25 6.875 C-3.74113281 7.43058594 -4.23226563 7.98617188 -4.73828125 8.55859375 C-7.26831373 11.35849636 -9.42491005 13.65508521 -13 15 C-11.38989473 10.92623969 -8.46177729 8.23492931 -5.375 5.25 C-4.859375 4.74339844 -4.34375 4.23679687 -3.8125 3.71484375 C-2.54616661 2.47196098 -1.2736856 1.23534724 0 0 Z " fill="#A7A6D6" transform="translate(273,286)"/>
<path d="M0 0 C0.8353125 0.37125 0.8353125 0.37125 1.6875 0.75 C0.883125 1.245 0.07875 1.74 -0.75 2.25 C-4.29338338 5.70695939 -4.0698941 7.89788209 -4.3125 12.75 C-3.3225 13.08 -2.3325 13.41 -1.3125 13.75 C-2.6325 13.75 -3.9525 13.75 -5.3125 13.75 C-5.54036458 11.73177083 -5.76822917 9.71354167 -5.99609375 7.6953125 C-6.22542961 5.67595684 -6.22542961 5.67595684 -7.3125 3.75 C-2.88173077 -0.31153846 -2.88173077 -0.31153846 0 0 Z " fill="#858AD1" transform="translate(116.3125,285.25)"/>
<path d="M0 0 C3.28465896 2.79196011 5.01321958 6.23196817 7 10 C7 10.66 7 11.32 7 12 C3.16674584 10.54600704 1.71720395 8.6919885 0 5 C-0.1875 2.1875 -0.1875 2.1875 0 0 Z " fill="#3A42BD" transform="translate(174,275)"/>
<path d="M0 0 C1.32 0.66 2.64 1.32 4 2 C3.360625 2.309375 2.72125 2.61875 2.0625 2.9375 C0.06389179 3.8345163 0.06389179 3.8345163 -1 5 C-1.23481693 7.18292774 -1.41363323 9.37203174 -1.5625 11.5625 C-1.64628906 12.76003906 -1.73007813 13.95757812 -1.81640625 15.19140625 C-1.87699219 16.11824219 -1.93757812 17.04507813 -2 18 C-2.33 18 -2.66 18 -3 18 C-3.08074203 15.37438891 -3.1403623 12.75124324 -3.1875 10.125 C-3.21263672 9.37863281 -3.23777344 8.63226563 -3.26367188 7.86328125 C-3.29296875 5.6953125 -3.29296875 5.6953125 -3 2 C-2.01 1.34 -1.02 0.68 0 0 Z " fill="#A8AEE8" transform="translate(223,232)"/>
<path d="M0 0 C0 0.99 0 1.98 0 3 C-0.66 3 -1.32 3 -2 3 C-2.33 3.99 -2.66 4.98 -3 6 C-6.0625 7.1875 -6.0625 7.1875 -9 8 C-5.34782609 0 -5.34782609 0 0 0 Z " fill="#4653D8" transform="translate(155,364)"/>
<path d="M0 0 C1.65 0 3.3 0 5 0 C5.05447047 1.41623216 5.09300508 2.83308191 5.125 4.25 C5.14820313 5.03890625 5.17140625 5.8278125 5.1953125 6.640625 C4.9828378 9.20731941 4.28654105 10.7916067 3 13 C2.67 12.34 2.34 11.68 2 11 C2.33 10.01 2.66 9.02 3 8 C2.01 7.67 1.02 7.34 0 7 C0.66 6.01 1.32 5.02 2 4 C2.66 4 3.32 4 4 4 C4 3.01 4 2.02 4 1 C2.68 0.67 1.36 0.34 0 0 Z " fill="#616BD3" transform="translate(272,291)"/>
<path d="M0 0 C1.92578125 0.26953125 1.92578125 0.26953125 4.3125 0.8125 C5.09238281 0.98394531 5.87226563 1.15539062 6.67578125 1.33203125 C8.966995 1.99051453 10.90892089 2.8659365 13 4 C13 4.66 13 5.32 13 6 C11.22739369 5.54857225 9.4569632 5.08859477 7.6875 4.625 C6.20830078 4.24214844 6.20830078 4.24214844 4.69921875 3.8515625 C2 3 2 3 -1 1 C-0.67 0.67 -0.34 0.34 0 0 Z " fill="#F1F0F0" transform="translate(221,94)"/>
<path d="M0 0 C2.9375 0.1875 2.9375 0.1875 6 1 C7.375 3.0625 7.375 3.0625 8 5 C5.69 4.67 3.38 4.34 1 4 C0.34 4.99 -0.32 5.98 -1 7 C-1.04254356 5.00045254 -1.04080783 2.99958364 -1 1 C-0.67 0.67 -0.34 0.34 0 0 Z " fill="#AAADD7" transform="translate(300,307)"/>
<path d="M0 0 C0.33 0 0.66 0 1 0 C1 8.91 1 17.82 1 27 C0.67 27 0.34 27 0 27 C0 18.09 0 9.18 0 0 Z " fill="#C3C0BF" transform="translate(54,206)"/>
<path d="M0 0 C1.33855096 4.01565287 0.23071006 5.67187183 -1.3125 9.5625 C-1.76238281 10.71878906 -2.21226562 11.87507813 -2.67578125 13.06640625 C-4 16 -4 16 -6 18 C-6.33 17.01 -6.66 16.02 -7 15 C-6.03374163 13.64201526 -5.02698945 12.31265778 -4 11 C-3.20977526 9.10768924 -2.48171423 7.18841364 -1.8125 5.25 C-1.46832031 4.26515625 -1.12414062 3.2803125 -0.76953125 2.265625 C-0.51558594 1.51796875 -0.26164062 0.7703125 0 0 Z " fill="#C9C6C5" transform="translate(397,277)"/>
<path d="M0 0 C1.17539996 0.92652701 2.34010577 1.86663387 3.5 2.8125 C4.1496875 3.33457031 4.799375 3.85664063 5.46875 4.39453125 C7 6 7 6 7 9 C4.0625 7.875 4.0625 7.875 1 6 C0.125 2.8125 0.125 2.8125 0 0 Z " fill="#9C9DD3" transform="translate(148,288)"/>
<path d="M0 0 C1.64350079 3.28700157 2.41321669 5.47930015 3 9 C1.35 10.32 -0.3 11.64 -2 13 C-1.34 8.71 -0.68 4.42 0 0 Z " fill="#7F87E1" transform="translate(188,229)"/>
<path d="M0 0 C1.32 1.32 2.64 2.64 4 4 C3.34 4 2.68 4 2 4 C2.226875 4.928125 2.45375 5.85625 2.6875 6.8125 C2.790625 7.864375 2.89375 8.91625 3 10 C2.01 10.99 1.02 11.98 0 13 C0 8.71 0 4.42 0 0 Z " fill="#818BE3" transform="translate(232,218)"/>
<path d="M0 0 C-2.64 1.98 -5.28 3.96 -8 6 C-8.66 5.34 -9.32 4.68 -10 4 C-6.87839899 0.56623888 -4.64008112 -1.54669371 0 0 Z " fill="#A1A5DD" transform="translate(195,215)"/>
<path d="M0 0 C-1.98 1.32 -3.96 2.64 -6 4 C-7.32 3.34 -8.64 2.68 -10 2 C-6.80505194 -1.19494806 -4.22040044 -1.35655728 0 0 Z " fill="#9B9EDB" transform="translate(283,286)"/>
<path d="M0 0 C-0.33 0.33 -0.66 0.66 -1 1 C-0.34 1.66 0.32 2.32 1 3 C-1.64 3.33 -4.28 3.66 -7 4 C-7.33 3.01 -7.66 2.02 -8 1 C-4.93251126 -0.86240388 -3.40254489 -1.2151946 0 0 Z " fill="#A8AAD7" transform="translate(126,282)"/>
<path d="M0 0 C0.33 0 0.66 0 1 0 C1 7.92 1 15.84 1 24 C0.67 24 0.34 24 0 24 C0 16.08 0 8.16 0 0 Z " fill="#DCDAD8" transform="translate(402,242)"/>
<path d="M0 0 C0.33 0.99 0.66 1.98 1 3 C-0.28650706 3.69710731 -1.57940665 4.38242876 -2.875 5.0625 C-3.95394531 5.63677734 -3.95394531 5.63677734 -5.0546875 6.22265625 C-5.69664062 6.47917969 -6.33859375 6.73570312 -7 7 C-7.66 6.67 -8.32 6.34 -9 6 C-6.03 4.02 -3.06 2.04 0 0 Z " fill="#363DBA" transform="translate(315,365)"/>
<path d="M0 0 C2.875 0.3125 2.875 0.3125 6 1 C8 4 8 4 7.625 6.1875 C7.41875 6.785625 7.2125 7.38375 7 8 C6.1028125 6.7934375 6.1028125 6.7934375 5.1875 5.5625 C3.19052724 2.77672016 3.19052724 2.77672016 0 2 C0 1.34 0 0.68 0 0 Z " fill="#8389CE" transform="translate(143,307)"/>
<path d="M0 0 C0 3.77910478 -0.99703962 4.46106101 -3.5 7.1875 C-4.47453125 8.26064453 -4.47453125 8.26064453 -5.46875 9.35546875 C-5.9740625 9.89816406 -6.479375 10.44085938 -7 11 C-7 6.94835656 -5.38642331 5.20462558 -3 2 C-2.01 1.34 -1.02 0.68 0 0 Z " fill="#3E4395" transform="translate(164,357)"/>
<path d="M0 0 C1.98 0.99 1.98 0.99 4 2 C4 2.66 4 3.32 4 4 C5.98 4 7.96 4 10 4 C9.67 4.66 9.34 5.32 9 6 C6.1875 6.25 6.1875 6.25 3 6 C1.125 4.125 1.125 4.125 0 2 C0 1.34 0 0.68 0 0 Z " fill="#9398CF" transform="translate(300,326)"/>
<path d="M0 0 C2.91517292 1.07401108 4.77810176 1.77810176 7 4 C7.33 4.99 7.66 5.98 8 7 C5.33333333 5.66666667 2.66666667 4.33333333 0 3 C0 2.01 0 1.02 0 0 Z " fill="#B3B7E4" transform="translate(218,207)"/>
<path d="M0 0 C7.26 0 14.52 0 22 0 C22 0.33 22 0.66 22 1 C14.74 1 7.48 1 0 1 C0 0.67 0 0.34 0 0 Z " fill="#ECEBEA" transform="translate(175,87)"/>
<path d="M0 0 C0.66 0 1.32 0 2 0 C1 2 0 4 -1 6 C-3.5625 6.625 -3.5625 6.625 -6 7 C-4.71937515 5.2925002 -3.38232443 3.62626404 -2 2 C-1.34 2 -0.68 2 0 2 C0 1.34 0 0.68 0 0 Z " fill="#BBB8B6" transform="translate(382,307)"/>
<path d="M0 0 C2.49361571 1.20381448 4.68143083 2.45428722 7 4 C7.66 4.33 8.32 4.66 9 5 C8.67 5.66 8.34 6.32 8 7 C6.25 6.875 6.25 6.875 4 6 C1.75 2.9375 1.75 2.9375 0 0 Z " fill="#A19EA0" transform="translate(87,303)"/>
<path d="M0 0 C3.3 0.99 6.6 1.98 10 3 C9.67 3.66 9.34 4.32 9 5 C5.7 4.01 2.4 3.02 -1 2 C-0.67 1.34 -0.34 0.68 0 0 Z " fill="#F1F0EF" transform="translate(318,158)"/>
<path d="M0 0 C0.66 0.33 1.32 0.66 2 1 C-0.97 4.96 -0.97 4.96 -4 9 C-5 7 -5 7 -4.25 4.5 C-3 2 -3 2 0 0 Z " fill="#9192D3" transform="translate(262,299)"/>
<path d="M0 0 C2 1.625 2 1.625 4 4 C4.25 7.25 4.25 7.25 4 10 C0 4 0 4 0 0 Z " fill="#858BCE" transform="translate(308,310)"/>
<path d="M0 0 C0.99 0.33 1.98 0.66 3 1 C1.515 4.96 1.515 4.96 0 9 C-0.66 8.67 -1.32 8.34 -2 8 C-1.34 5.36 -0.68 2.72 0 0 Z " fill="#808AE3" transform="translate(308,291)"/>
<path d="M0 0 C1.2065625 0.0309375 1.2065625 0.0309375 2.4375 0.0625 C1.7259375 0.8978125 1.7259375 0.8978125 1 1.75 C-0.68645996 4.24596074 -1.15203107 6.1071237 -1.5625 9.0625 C-1.8925 9.0625 -2.2225 9.0625 -2.5625 9.0625 C-3.44140625 2.91015625 -3.44140625 2.91015625 -3.5625 1.0625 C-2.5625 0.0625 -2.5625 0.0625 0 0 Z " fill="#7A84E4" transform="translate(203.5625,235.9375)"/>
<path d="M0 0 C3.96 1.98 3.96 1.98 8 4 C7.67 4.66 7.34 5.32 7 6 C4.36 4.68 1.72 3.36 -1 2 C-0.67 1.34 -0.34 0.68 0 0 Z " fill="#F1F0EF" transform="translate(303,151)"/>
<path d="M0 0 C0 0.66 0 1.32 0 2 C-2.64 2.66 -5.28 3.32 -8 4 C-8.33 3.34 -8.66 2.68 -9 2 C-5.62902617 0.50178941 -3.79557881 0 0 0 Z " fill="#EEECEC" transform="translate(149,95)"/>
<path d="M0 0 C-1.98 0.99 -3.96 1.98 -6 3 C-6.33 2.34 -6.66 1.68 -7 1 C-3.375 -1.125 -3.375 -1.125 0 0 Z M-9 2 C-8.34 2 -7.68 2 -7 2 C-7.33 2.99 -7.66 3.98 -8 5 C-8.66 4.34 -9.32 3.68 -10 3 C-9.67 2.67 -9.34 2.34 -9 2 Z " fill="#EBEAE9" transform="translate(126,106)"/>
<path d="M0 0 C2.40072955 2.88087546 4.47291037 5.56404834 6 9 C3.5067466 8.00269864 2.22532561 7.34925469 0.75 5.0625 C0 3 0 3 0 0 Z " fill="#6C74C7" transform="translate(297,323)"/>
<path d="M0 0 C3.96 0 7.92 0 12 0 C12 0.33 12 0.66 12 1 C6.06 1.495 6.06 1.495 0 2 C0 1.34 0 0.68 0 0 Z " fill="#95939D" transform="translate(170,350)"/>
<path d="M0 0 C0.33 0 0.66 0 1 0 C1 4.29 1 8.58 1 13 C0.67 13 0.34 13 0 13 C0 8.71 0 4.42 0 0 Z " fill="#3E4294" transform="translate(85,328)"/>
<path d="M0 0 C3.63 0 7.26 0 11 0 C11 0.33 11 0.66 11 1 C7.37 1 3.74 1 0 1 C0 0.67 0 0.34 0 0 Z " fill="#A19E9C" transform="translate(190,350)"/>
<path d="M0 0 C1.98 0 3.96 0 6 0 C5.67 0.66 5.34 1.32 5 2 C3.35 1.67 1.7 1.34 0 1 C0 0.67 0 0.34 0 0 Z " fill="#8F8D9A" transform="translate(240,340)"/>
<path d="M0 0 C0.33 0 0.66 0 1 0 C1 2.31 1 4.62 1 7 C0.67 7 0.34 7 0 7 C0 4.69 0 2.38 0 0 Z " fill="#CDCBC9" transform="translate(55,198)"/>
<path d="M0 0 C1.98 0 3.96 0 6 0 C6 0.33 6 0.66 6 1 C4.02 1 2.04 1 0 1 C0 0.67 0 0.34 0 0 Z " fill="#333AA5" transform="translate(292,378)"/>
<path d="M0 0 C1.98 0 3.96 0 6 0 C6 0.33 6 0.66 6 1 C4.02 1 2.04 1 0 1 C0 0.67 0 0.34 0 0 Z " fill="#343BA7" transform="translate(281,378)"/>
<path d="M0 0 C1.98 0 3.96 0 6 0 C6 0.33 6 0.66 6 1 C4.02 1 2.04 1 0 1 C0 0.67 0 0.34 0 0 Z " fill="#31379E" transform="translate(132,378)"/>
<path d="M0 0 C1.98 0 3.96 0 6 0 C6 0.33 6 0.66 6 1 C4.02 1 2.04 1 0 1 C0 0.67 0 0.34 0 0 Z " fill="#303695" transform="translate(121,378)"/>
<path d="M0 0 C0.33 0 0.66 0 1 0 C1 1.98 1 3.96 1 6 C0.67 6 0.34 6 0 6 C0 4.02 0 2.04 0 0 Z " fill="#BCBAB8" transform="translate(55,234)"/>
<path d="M0 0 C1.98 0 3.96 0 6 0 C6 0.33 6 0.66 6 1 C4.02 1 2.04 1 0 1 C0 0.67 0 0.34 0 0 Z " fill="#EDECEB" transform="translate(200,88)"/>
<path d="M0 0 C1.98 0 3.96 0 6 0 C6 0.33 6 0.66 6 1 C4.02 1 2.04 1 0 1 C0 0.67 0 0.34 0 0 Z " fill="#EBEAE9" transform="translate(166,88)"/>
<path d="M0 0 C1.65 0 3.3 0 5 0 C5 0.33 5 0.66 5 1 C3.35 1 1.7 1 0 1 C0 0.67 0 0.34 0 0 Z " fill="#A09D9C" transform="translate(203,349)"/>
<path d="M0 0 C1.65 0 3.3 0 5 0 C5 0.33 5 0.66 5 1 C3.35 1 1.7 1 0 1 C0 0.67 0 0.34 0 0 Z " fill="#A19E9C" transform="translate(209,348)"/>
<path d="M0 0 C0.33 0 0.66 0 1 0 C1 1.65 1 3.3 1 5 C0.67 5 0.34 5 0 5 C0 3.35 0 1.7 0 0 Z " fill="#D3D1D0" transform="translate(401,267)"/>
<path d="M0 0 C0.33 0 0.66 0 1 0 C1 1.65 1 3.3 1 5 C0.67 5 0.34 5 0 5 C0 3.35 0 1.7 0 0 Z " fill="#E0DFDE" transform="translate(401,236)"/>
<path d="M0 0 C1.65 0 3.3 0 5 0 C5 0.33 5 0.66 5 1 C3.35 1 1.7 1 0 1 C0 0.67 0 0.34 0 0 Z " fill="#EDECEB" transform="translate(207,89)"/>
<path d="M0 0 C1.65 0 3.3 0 5 0 C5 0.33 5 0.66 5 1 C3.35 1 1.7 1 0 1 C0 0.67 0 0.34 0 0 Z " fill="#EBEAE9" transform="translate(160,89)"/>
<path d="M0 0 C4 1 4 1 4 1 Z " fill="#9F9C9A" transform="translate(214,347)"/>
<path d="M0 0 C1 4 1 4 1 4 Z " fill="#383D9B" transform="translate(86,342)"/>
<path d="M0 0 C4 1 4 1 4 1 Z " fill="#9D9A98" transform="translate(235,341)"/>
<path d="M0 0 C1 4 1 4 1 4 Z " fill="#4046A1" transform="translate(86,323)"/>
<path d="M0 0 C1 4 1 4 1 4 Z " fill="#D3D1CF" transform="translate(400,272)"/>
<path d="M0 0 C1 4 1 4 1 4 Z " fill="#B9B7B5" transform="translate(57,246)"/>
<path d="M0 0 C1 4 1 4 1 4 Z " fill="#BBB8B6" transform="translate(56,241)"/>
<path d="M0 0 C1 4 1 4 1 4 Z " fill="#E1E0DF" transform="translate(400,231)"/>
<path d="M0 0 C1 4 1 4 1 4 Z " fill="#CDCBC9" transform="translate(56,193)"/>
<path d="M0 0 C1 4 1 4 1 4 Z " fill="#CFCDCB" transform="translate(57,188)"/>
<path d="M0 0 C4 1 4 1 4 1 Z " fill="#EEEDEC" transform="translate(212,90)"/>
<path d="M0 0 C4 1 4 1 4 1 Z " fill="#EBEAE9" transform="translate(156,90)"/>
<path d="M0 0 C3 1 3 1 3 1 Z " fill="#353A98" transform="translate(299,377)"/>
<path d="M0 0 C3 1 3 1 3 1 Z " fill="#373D9F" transform="translate(277,377)"/>
<path d="M0 0 C3 1 3 1 3 1 Z " fill="#353B9B" transform="translate(139,377)"/>
<path d="M0 0 C3 1 3 1 3 1 Z " fill="#323688" transform="translate(117,377)"/>
<path d="M0 0 C3 1 3 1 3 1 Z " fill="#333AA8" transform="translate(302,376)"/>
<path d="M0 0 C3 1 3 1 3 1 Z " fill="#363EB8" transform="translate(274,376)"/>
<path d="M0 0 C3 1 3 1 3 1 Z " fill="#373EB9" transform="translate(142,376)"/>
<path d="M0 0 C3 1 3 1 3 1 Z " fill="#303490" transform="translate(114,376)"/>
<path d="" fill="#414ABC" transform="translate(0,0)"/>
<path d="" fill="#343AA5" transform="translate(0,0)"/>
<path d="" fill="#565BA7" transform="translate(0,0)"/>
<path d="" fill="#343AA0" transform="translate(0,0)"/>
<path d="M0 0 C3 1 3 1 3 1 Z " fill="#A09D9B" transform="translate(218,346)"/>
<path d="M0 0 C3 1 3 1 3 1 Z " fill="#908E98" transform="translate(332,345)"/>
<path d="M0 0 C3 1 3 1 3 1 Z " fill="#9E9B99" transform="translate(222,345)"/>
<path d="" fill="#353A93" transform="translate(0,0)"/>
<path d="M0 0 C3 1 3 1 3 1 Z " fill="#A29F9D" transform="translate(225,344)"/>
<path d="M0 0 C3 1 3 1 3 1 Z " fill="#A2A09D" transform="translate(228,343)"/>
<path d="M0 0 C3 1 3 1 3 1 Z " fill="#A4A19F" transform="translate(231,342)"/>
<path d="" fill="#CCCAC8" transform="translate(0,0)"/>
<path d="" fill="#D4D1D0" transform="translate(0,0)"/>
<path d="" fill="#CECCCA" transform="translate(0,0)"/>
<path d="" fill="#B5B3B1" transform="translate(0,0)"/>
<path d="" fill="#B3B0AE" transform="translate(0,0)"/>
<path d="" fill="#E4E3E1" transform="translate(0,0)"/>
<path d="" fill="#E4E2E1" transform="translate(0,0)"/>
<path d="" fill="#D1CFCE" transform="translate(0,0)"/>
<path d="" fill="#D2D0CF" transform="translate(0,0)"/>
<path d="" fill="#D4D1D0" transform="translate(0,0)"/>
<path d="" fill="#D6D5D3" transform="translate(0,0)"/>
<path d="M0 0 C3 1 3 1 3 1 Z " fill="#EFEEED" transform="translate(337,163)"/>
<path d="M0 0 C3 1 3 1 3 1 Z " fill="#EEEDEC" transform="translate(317,156)"/>
<path d="M0 0 C3 1 3 1 3 1 Z " fill="#EEEDEC" transform="translate(227,94)"/>
<path d="M0 0 C3 1 3 1 3 1 Z " fill="#E9E8E7" transform="translate(142,94)"/>
<path d="M0 0 C3 1 3 1 3 1 Z " fill="#EDECEC" transform="translate(224,93)"/>
<path d="M0 0 C3 1 3 1 3 1 Z " fill="#E9E8E7" transform="translate(145,93)"/>
<path d="M0 0 C3 1 3 1 3 1 Z " fill="#EDECEB" transform="translate(149,92)"/>
<path d="M0 0 C3 1 3 1 3 1 Z " fill="#EDECEC" transform="translate(217,91)"/>
<path d="M0 0 C3 1 3 1 3 1 Z " fill="#EAE9E8" transform="translate(152,91)"/>
<path d="M0 0 C2 1 2 1 2 1 Z " fill="#353A9B" transform="translate(305,375)"/>
<path d="M0 0 C2 1 2 1 2 1 Z " fill="#373EAE" transform="translate(272,375)"/>
<path d="M0 0 C2 1 2 1 2 1 Z " fill="#373EAC" transform="translate(145,375)"/>
<path d="M0 0 C2 1 2 1 2 1 Z " fill="#323691" transform="translate(112,375)"/>
<path d="M0 0 C2 1 2 1 2 1 Z " fill="#353BB1" transform="translate(307,374)"/>
<path d="M0 0 C2 1 2 1 2 1 Z " fill="#3742CD" transform="translate(270,374)"/>
<path d="M0 0 C2 1 2 1 2 1 Z " fill="#3A43CB" transform="translate(147,374)"/>
<path d="M0 0 C2 1 2 1 2 1 Z " fill="#2E339E" transform="translate(110,374)"/>
<path d="M0 0 C2 1 2 1 2 1 Z " fill="#3338A0" transform="translate(309,373)"/>
<path d="M0 0 C2 1 2 1 2 1 Z " fill="#3842CB" transform="translate(268,373)"/>
<path d="M0 0 C2 1 2 1 2 1 Z " fill="#3940C9" transform="translate(149,373)"/>
<path d="M0 0 C2 1 2 1 2 1 Z " fill="#31369A" transform="translate(108,373)"/>
<path d="M0 0 C2 1 2 1 2 1 Z " fill="#373C94" transform="translate(311,372)"/>
<path d="M0 0 C2 1 2 1 2 1 Z " fill="#393FA4" transform="translate(266,372)"/>
<path d="M0 0 C2 1 2 1 2 1 Z " fill="#3B42A0" transform="translate(151,372)"/>
<path d="M0 0 C2 1 2 1 2 1 Z " fill="#3D439F" transform="translate(154,370)"/>
<path d="M0 0 C2 1 2 1 2 1 Z " fill="#282EB3" transform="translate(102,369)"/>
<path d="" fill="#3D43A7" transform="translate(0,0)"/>
<path d="" fill="#2A319A" transform="translate(0,0)"/>
<path d="" fill="#3238AD" transform="translate(0,0)"/>
<path d="" fill="#353A96" transform="translate(0,0)"/>
<path d="" fill="#3A42C8" transform="translate(0,0)"/>
<path d="" fill="#2D34B0" transform="translate(0,0)"/>
<path d="" fill="#42489F" transform="translate(0,0)"/>
<path d="" fill="#363B91" transform="translate(0,0)"/>
<path d="" fill="#4349A3" transform="translate(0,0)"/>
<path d="" fill="#383B86" transform="translate(0,0)"/>
<path d="" fill="#444AA2" transform="translate(0,0)"/>
<path d="" fill="#373C93" transform="translate(0,0)"/>
<path d="" fill="#454BA4" transform="translate(0,0)"/>
<path d="" fill="#373B8D" transform="translate(0,0)"/>
<path d="" fill="#393E8F" transform="translate(0,0)"/>
<path d="" fill="#373B93" transform="translate(0,0)"/>
<path d="M0 0 C2 1 2 1 2 1 Z " fill="#999695" transform="translate(336,344)"/>
<path d="M0 0 C2 1 2 1 2 1 Z " fill="#999694" transform="translate(339,343)"/>
<path d="M0 0 C2 1 2 1 2 1 Z " fill="#9F9B99" transform="translate(341,342)"/>
<path d="M0 0 C2 1 2 1 2 1 Z " fill="#999694" transform="translate(344,341)"/>
<path d="M0 0 C2 1 2 1 2 1 Z " fill="#9B9896" transform="translate(346,340)"/>
<path d="M0 0 C2 1 2 1 2 1 Z " fill="#9C9997" transform="translate(348,339)"/>
<path d="M0 0 C2 1 2 1 2 1 Z " fill="#9D9997" transform="translate(350,338)"/>
<path d="M0 0 C2 1 2 1 2 1 Z " fill="#9B9795" transform="translate(352,337)"/>
<path d="M0 0 C2 1 2 1 2 1 Z " fill="#9E9B99" transform="translate(357,334)"/>
<path d="M0 0 C2 1 2 1 2 1 Z " fill="#A4A19F" transform="translate(364,329)"/>
<path d="M0 0 C2 1 2 1 2 1 Z " fill="#B3B0AE" transform="translate(371,323)"/>
<path d="" fill="#444AA1" transform="translate(0,0)"/>
<path d="" fill="#B5B2B0" transform="translate(0,0)"/>
<path d="" fill="#464CA3" transform="translate(0,0)"/>
<path d="" fill="#4A50A4" transform="translate(0,0)"/>
<path d="" fill="#4B50A8" transform="translate(0,0)"/>
<path d="" fill="#6064AA" transform="translate(0,0)"/>
<path d="" fill="#BCB9B8" transform="translate(0,0)"/>
<path d="" fill="#C1BEBC" transform="translate(0,0)"/>
<path d="" fill="#A8A6A4" transform="translate(0,0)"/>
<path d="" fill="#BEBBB9" transform="translate(0,0)"/>
<path d="" fill="#C5C1C0" transform="translate(0,0)"/>
<path d="" fill="#A19E9C" transform="translate(0,0)"/>
<path d="" fill="#A29F9D" transform="translate(0,0)"/>
<path d="" fill="#CAC7C5" transform="translate(0,0)"/>
<path d="" fill="#A4A19F" transform="translate(0,0)"/>
<path d="" fill="#C7C4C3" transform="translate(0,0)"/>
<path d="" fill="#A4A19F" transform="translate(0,0)"/>
<path d="" fill="#CAC7C6" transform="translate(0,0)"/>
<path d="" fill="#A6A2A0" transform="translate(0,0)"/>
<path d="" fill="#ABA8A6" transform="translate(0,0)"/>
<path d="" fill="#B4B2B0" transform="translate(0,0)"/>
<path d="" fill="#AEACA9" transform="translate(0,0)"/>
<path d="" fill="#ACA9A7" transform="translate(0,0)"/>
<path d="" fill="#ABA7A5" transform="translate(0,0)"/>
<path d="" fill="#B2AFAD" transform="translate(0,0)"/>
<path d="" fill="#AEABA9" transform="translate(0,0)"/>
<path d="" fill="#B0ADAB" transform="translate(0,0)"/>
<path d="" fill="#B1AEAC" transform="translate(0,0)"/>
<path d="" fill="#E5E3E2" transform="translate(0,0)"/>
<path d="" fill="#E4E3E2" transform="translate(0,0)"/>
<path d="" fill="#EAE9E8" transform="translate(0,0)"/>
<path d="" fill="#E5E3E2" transform="translate(0,0)"/>
<path d="" fill="#E6E4E3" transform="translate(0,0)"/>
<path d="" fill="#E7E5E4" transform="translate(0,0)"/>
<path d="" fill="#E6E4E3" transform="translate(0,0)"/>
<path d="" fill="#E8E7E6" transform="translate(0,0)"/>
<path d="" fill="#EAE9E8" transform="translate(0,0)"/>
<path d="" fill="#E8E7E6" transform="translate(0,0)"/>
<path d="" fill="#ECEBEB" transform="translate(0,0)"/>
<path d="M0 0 C2 1 2 1 2 1 Z " fill="#ECEBEB" transform="translate(362,176)"/>
<path d="M0 0 C2 1 2 1 2 1 Z " fill="#EEEDED" transform="translate(359,174)"/>
<path d="" fill="#D6D3D2" transform="translate(0,0)"/>
<path d="M0 0 C2 1 2 1 2 1 Z " fill="#EDECEC" transform="translate(356,172)"/>
<path d="" fill="#D6D4D2" transform="translate(0,0)"/>
<path d="M0 0 C2 1 2 1 2 1 Z " fill="#ECEBEA" transform="translate(353,170)"/>
<path d="M0 0 C2 1 2 1 2 1 Z " fill="#EDEBEB" transform="translate(351,169)"/>
<path d="" fill="#DAD8D7" transform="translate(0,0)"/>
<path d="M0 0 C2 1 2 1 2 1 Z " fill="#EDECEB" transform="translate(349,168)"/>
<path d="M0 0 C2 1 2 1 2 1 Z " fill="#EDECEB" transform="translate(347,167)"/>
<path d="M0 0 C2 1 2 1 2 1 Z " fill="#ECEBEB" transform="translate(345,166)"/>
<path d="" fill="#D7D5D3" transform="translate(0,0)"/>
<path d="M0 0 C2 1 2 1 2 1 Z " fill="#ECEBEA" transform="translate(343,165)"/>
<path d="M0 0 C2 1 2 1 2 1 Z " fill="#EDECEB" transform="translate(340,164)"/>
<path d="" fill="#D8D6D4" transform="translate(0,0)"/>
<path d="M0 0 C2 1 2 1 2 1 Z " fill="#ECEBEB" transform="translate(335,162)"/>
<path d="" fill="#D8D6D5" transform="translate(0,0)"/>
<path d="M0 0 C2 1 2 1 2 1 Z " fill="#EDECEB" transform="translate(332,161)"/>
<path d="M0 0 C2 1 2 1 2 1 Z " fill="#EDECEB" transform="translate(329,160)"/>
<path d="" fill="#DAD8D7" transform="translate(0,0)"/>
<path d="M0 0 C2 1 2 1 2 1 Z " fill="#EDECEB" transform="translate(326,159)"/>
<path d="M0 0 C2 1 2 1 2 1 Z " fill="#EDECEB" transform="translate(323,158)"/>
<path d="" fill="#D9D7D6" transform="translate(0,0)"/>
<path d="M0 0 C2 1 2 1 2 1 Z " fill="#EEECEC" transform="translate(320,157)"/>
<path d="" fill="#D9D7D6" transform="translate(0,0)"/>
<path d="M0 0 C2 1 2 1 2 1 Z " fill="#ECEBEA" transform="translate(315,155)"/>
<path d="M0 0 C2 1 2 1 2 1 Z " fill="#EEEDEC" transform="translate(312,154)"/>
<path d="M0 0 C2 1 2 1 2 1 Z " fill="#EDECEB" transform="translate(310,153)"/>
<path d="" fill="#E0DFDE" transform="translate(0,0)"/>
<path d="M0 0 C2 1 2 1 2 1 Z " fill="#ECEBEA" transform="translate(308,152)"/>
<path d="M0 0 C2 1 2 1 2 1 Z " fill="#ECEBEB" transform="translate(306,151)"/>
<path d="" fill="#DCD9D8" transform="translate(0,0)"/>
<path d="M0 0 C2 1 2 1 2 1 Z " fill="#ECEBEA" transform="translate(304,150)"/>
<path d="M0 0 C2 1 2 1 2 1 Z " fill="#EDECEB" transform="translate(302,149)"/>
<path d="" fill="#DDDBDA" transform="translate(0,0)"/>
<path d="M0 0 C2 1 2 1 2 1 Z " fill="#EDECEB" transform="translate(296,145)"/>
<path d="" fill="#DEDCDB" transform="translate(0,0)"/>
<path d="" fill="#ECEAEA" transform="translate(0,0)"/>
<path d="" fill="#E2E1DF" transform="translate(0,0)"/>
<path d="" fill="#ECEBEA" transform="translate(0,0)"/>
<path d="" fill="#E3E1E0" transform="translate(0,0)"/>
<path d="M0 0 C2 1 2 1 2 1 Z " fill="#E4E3E1" transform="translate(96,122)"/>
<path d="M0 0 C2 1 2 1 2 1 Z " fill="#EDECEB" transform="translate(273,121)"/>
<path d="M0 0 C2 1 2 1 2 1 Z " fill="#F0EEEE" transform="translate(267,116)"/>
<path d="M0 0 C2 1 2 1 2 1 Z " fill="#E5E3E2" transform="translate(103,116)"/>
<path d="M0 0 C2 1 2 1 2 1 Z " fill="#EEEDEC" transform="translate(259,110)"/>
<path d="M0 0 C2 1 2 1 2 1 Z " fill="#E5E4E3" transform="translate(111,110)"/>
<path d="M0 0 C2 1 2 1 2 1 Z " fill="#EDECEC" transform="translate(256,108)"/>
<path d="M0 0 C2 1 2 1 2 1 Z " fill="#E6E5E3" transform="translate(114,108)"/>
<path d="M0 0 C2 1 2 1 2 1 Z " fill="#EDECEB" transform="translate(253,106)"/>
<path d="M0 0 C2 1 2 1 2 1 Z " fill="#E6E4E4" transform="translate(117,106)"/>
<path d="M0 0 C2 1 2 1 2 1 Z " fill="#EFEEED" transform="translate(251,105)"/>
<path d="M0 0 C2 1 2 1 2 1 Z " fill="#E7E6E5" transform="translate(119,105)"/>
<path d="M0 0 C2 1 2 1 2 1 Z " fill="#EDECEB" transform="translate(246,102)"/>
<path d="M0 0 C2 1 2 1 2 1 Z " fill="#E7E5E4" transform="translate(124,102)"/>
<path d="M0 0 C2 1 2 1 2 1 Z " fill="#EDECEB" transform="translate(244,101)"/>
<path d="M0 0 C2 1 2 1 2 1 Z " fill="#E7E5E4" transform="translate(126,101)"/>
<path d="M0 0 C2 1 2 1 2 1 Z " fill="#EDECEB" transform="translate(242,100)"/>
<path d="M0 0 C2 1 2 1 2 1 Z " fill="#E7E6E5" transform="translate(128,100)"/>
<path d="M0 0 C2 1 2 1 2 1 Z " fill="#EDECEB" transform="translate(240,99)"/>
<path d="M0 0 C2 1 2 1 2 1 Z " fill="#E7E6E5" transform="translate(130,99)"/>
<path d="M0 0 C2 1 2 1 2 1 Z " fill="#EDECEB" transform="translate(238,98)"/>
<path d="M0 0 C2 1 2 1 2 1 Z " fill="#EEEDEC" transform="translate(235,97)"/>
<path d="M0 0 C2 1 2 1 2 1 Z " fill="#E9E8E7" transform="translate(135,97)"/>
<path d="M0 0 C2 1 2 1 2 1 Z " fill="#EDECEB" transform="translate(233,96)"/>
<path d="M0 0 C2 1 2 1 2 1 Z " fill="#E8E7E6" transform="translate(137,96)"/>
<path d="M0 0 C2 1 2 1 2 1 Z " fill="#EEEDEC" transform="translate(230,95)"/>
<path d="M0 0 C2 1 2 1 2 1 Z " fill="#E9E8E7" transform="translate(140,95)"/>
<path d="M0 0 C2 1 2 1 2 1 Z " fill="#EDECEC" transform="translate(221,92)"/>
<path d="" fill="#313697" transform="translate(0,0)"/>
<path d="" fill="#373B8F" transform="translate(0,0)"/>
<path d="" fill="#393F9F" transform="translate(0,0)"/>
<path d="" fill="#3C419C" transform="translate(0,0)"/>
<path d="" fill="#363A8D" transform="translate(0,0)"/>
<path d="" fill="#353B9F" transform="translate(0,0)"/>
<path d="" fill="#3840B7" transform="translate(0,0)"/>
<path d="" fill="#33379F" transform="translate(0,0)"/>
<path d="" fill="#3B3F84" transform="translate(0,0)"/>
<path d="" fill="#3A3E8F" transform="translate(0,0)"/>
<path d="" fill="#3E4490" transform="translate(0,0)"/>
<path d="" fill="#393E8C" transform="translate(0,0)"/>
<path d="" fill="#383C8F" transform="translate(0,0)"/>
<path d="" fill="#3E4399" transform="translate(0,0)"/>
<path d="" fill="#383B89" transform="translate(0,0)"/>
<path d="" fill="#393E93" transform="translate(0,0)"/>
<path d="" fill="#373C93" transform="translate(0,0)"/>
<path d="" fill="#3C429A" transform="translate(0,0)"/>
<path d="" fill="#373B8E" transform="translate(0,0)"/>
<path d="" fill="#3A3F98" transform="translate(0,0)"/>
<path d="" fill="#363B8F" transform="translate(0,0)"/>
<path d="" fill="#3C419C" transform="translate(0,0)"/>
<path d="" fill="#373B93" transform="translate(0,0)"/>
<path d="" fill="#3B409B" transform="translate(0,0)"/>
<path d="" fill="#353A8E" transform="translate(0,0)"/>
<path d="" fill="#3B4097" transform="translate(0,0)"/>
<path d="" fill="#363B93" transform="translate(0,0)"/>
<path d="" fill="#3B4098" transform="translate(0,0)"/>
<path d="" fill="#353A88" transform="translate(0,0)"/>
<path d="" fill="#3C4196" transform="translate(0,0)"/>
<path d="" fill="#373C93" transform="translate(0,0)"/>
<path d="" fill="#3C4194" transform="translate(0,0)"/>
<path d="" fill="#373B89" transform="translate(0,0)"/>
<path d="" fill="#3D4292" transform="translate(0,0)"/>
<path d="" fill="#383C91" transform="translate(0,0)"/>
<path d="" fill="#3D438E" transform="translate(0,0)"/>
<path d="" fill="#393C88" transform="translate(0,0)"/>
<path d="" fill="#3F4491" transform="translate(0,0)"/>
<path d="" fill="#3A3C88" transform="translate(0,0)"/>
<path d="" fill="#3F459F" transform="translate(0,0)"/>
<path d="" fill="#343A90" transform="translate(0,0)"/>
<path d="" fill="#3E449D" transform="translate(0,0)"/>
<path d="" fill="#35398C" transform="translate(0,0)"/>
<path d="" fill="#393D83" transform="translate(0,0)"/>
<path d="" fill="#424899" transform="translate(0,0)"/>
<path d="" fill="#4147A2" transform="translate(0,0)"/>
<path d="" fill="#363B92" transform="translate(0,0)"/>
<path d="" fill="#4248A1" transform="translate(0,0)"/>
<path d="" fill="#373B8C" transform="translate(0,0)"/>
<path d="" fill="#9E9B98" transform="translate(0,0)"/>
<path d="" fill="#9C9996" transform="translate(0,0)"/>
<path d="" fill="#9E9A98" transform="translate(0,0)"/>
<path d="" fill="#A29F9C" transform="translate(0,0)"/>
<path d="" fill="#9F9B99" transform="translate(0,0)"/>
<path d="" fill="#A3A09E" transform="translate(0,0)"/>
<path d="" fill="#A09D9B" transform="translate(0,0)"/>
<path d="" fill="#A3A09E" transform="translate(0,0)"/>
<path d="" fill="#A7A3A1" transform="translate(0,0)"/>
<path d="" fill="#ACA9A7" transform="translate(0,0)"/>
<path d="" fill="#B8B4B2" transform="translate(0,0)"/>
<path d="" fill="#A4A19F" transform="translate(0,0)"/>
<path d="" fill="#A5A2A0" transform="translate(0,0)"/>
<path d="" fill="#A6A3A1" transform="translate(0,0)"/>
<path d="" fill="#A6A3A0" transform="translate(0,0)"/>
<path d="" fill="#B8B5B3" transform="translate(0,0)"/>
<path d="" fill="#B4B1AF" transform="translate(0,0)"/>
<path d="" fill="#B2AFAD" transform="translate(0,0)"/>
<path d="" fill="#B0ACAA" transform="translate(0,0)"/>
<path d="" fill="#AEABA9" transform="translate(0,0)"/>
<path d="" fill="#BBB7B5" transform="translate(0,0)"/>
<path d="" fill="#B5B2AF" transform="translate(0,0)"/>
<path d="" fill="#9F9C9A" transform="translate(0,0)"/>
<path d="" fill="#A09D9B" transform="translate(0,0)"/>
<path d="" fill="#9F9C9A" transform="translate(0,0)"/>
<path d="" fill="#B9B6B4" transform="translate(0,0)"/>
<path d="" fill="#9F9B99" transform="translate(0,0)"/>
<path d="" fill="#BCB9B6" transform="translate(0,0)"/>
<path d="" fill="#A7A4A2" transform="translate(0,0)"/>
<path d="" fill="#A3A09E" transform="translate(0,0)"/>
<path d="" fill="#A09D9B" transform="translate(0,0)"/>
<path d="" fill="#9F9C9A" transform="translate(0,0)"/>
<path d="" fill="#BFBCBA" transform="translate(0,0)"/>
<path d="" fill="#A29F9D" transform="translate(0,0)"/>
<path d="" fill="#C1BEBC" transform="translate(0,0)"/>
<path d="" fill="#A19D9B" transform="translate(0,0)"/>
<path d="" fill="#C3C0BE" transform="translate(0,0)"/>
<path d="" fill="#A39F9E" transform="translate(0,0)"/>
<path d="" fill="#A3A09E" transform="translate(0,0)"/>
<path d="" fill="#A4A09E" transform="translate(0,0)"/>
<path d="" fill="#A6A3A1" transform="translate(0,0)"/>
<path d="" fill="#A8A4A2" transform="translate(0,0)"/>
<path d="" fill="#A8A5A3" transform="translate(0,0)"/>
<path d="" fill="#E7E6E5" transform="translate(0,0)"/>
<path d="" fill="#E7E5E4" transform="translate(0,0)"/>
<path d="" fill="#E8E6E5" transform="translate(0,0)"/>
<path d="" fill="#E8E7E6" transform="translate(0,0)"/>
<path d="" fill="#E9E8E6" transform="translate(0,0)"/>
<path d="" fill="#E9E8E7" transform="translate(0,0)"/>
<path d="" fill="#EAE9E8" transform="translate(0,0)"/>
<path d="" fill="#E9E8E7" transform="translate(0,0)"/>
<path d="" fill="#E9E8E7" transform="translate(0,0)"/>
<path d="" fill="#EAE8E7" transform="translate(0,0)"/>
<path d="" fill="#EAE9E8" transform="translate(0,0)"/>
<path d="" fill="#EAE9E8" transform="translate(0,0)"/>
<path d="" fill="#EBE9E8" transform="translate(0,0)"/>
<path d="" fill="#EBE9E9" transform="translate(0,0)"/>
<path d="" fill="#EAE9E8" transform="translate(0,0)"/>
<path d="" fill="#EBE9E9" transform="translate(0,0)"/>
<path d="" fill="#EAE9E8" transform="translate(0,0)"/>
<path d="" fill="#EAE9E8" transform="translate(0,0)"/>
<path d="" fill="#EAE9E8" transform="translate(0,0)"/>
<path d="" fill="#EDEBEB" transform="translate(0,0)"/>
<path d="" fill="#ECEBEA" transform="translate(0,0)"/>
<path d="" fill="#EBEAE9" transform="translate(0,0)"/>
<path d="" fill="#ECEBEA" transform="translate(0,0)"/>
<path d="" fill="#ECEBEB" transform="translate(0,0)"/>
<path d="" fill="#ECEBEA" transform="translate(0,0)"/>
<path d="" fill="#DBD9D8" transform="translate(0,0)"/>
<path d="" fill="#DBD9D8" transform="translate(0,0)"/>
<path d="" fill="#ECEBEA" transform="translate(0,0)"/>
<path d="" fill="#EDECEB" transform="translate(0,0)"/>
<path d="" fill="#ECEBEA" transform="translate(0,0)"/>
<path d="" fill="#DDDBDA" transform="translate(0,0)"/>
<path d="" fill="#EDECEB" transform="translate(0,0)"/>
<path d="" fill="#ECEBEA" transform="translate(0,0)"/>
<path d="" fill="#DDDBDA" transform="translate(0,0)"/>
<path d="" fill="#ECEBEA" transform="translate(0,0)"/>
<path d="" fill="#E0DFDE" transform="translate(0,0)"/>
<path d="" fill="#EBEAE9" transform="translate(0,0)"/>
<path d="" fill="#ECEBEA" transform="translate(0,0)"/>
<path d="" fill="#DDDBDA" transform="translate(0,0)"/>
<path d="" fill="#ECEBEA" transform="translate(0,0)"/>
<path d="" fill="#DFDDDC" transform="translate(0,0)"/>
<path d="" fill="#E0DFDE" transform="translate(0,0)"/>
<path d="" fill="#EAE9E8" transform="translate(0,0)"/>
<path d="" fill="#EBE9E8" transform="translate(0,0)"/>
<path d="" fill="#DFDDDC" transform="translate(0,0)"/>
<path d="" fill="#EBEAE9" transform="translate(0,0)"/>
<path d="" fill="#E0DEDD" transform="translate(0,0)"/>
<path d="" fill="#ECEAE9" transform="translate(0,0)"/>
<path d="" fill="#E0DFDE" transform="translate(0,0)"/>
<path d="" fill="#ECEBEA" transform="translate(0,0)"/>
<path d="" fill="#E1E0DF" transform="translate(0,0)"/>
<path d="" fill="#E3E2E0" transform="translate(0,0)"/>
<path d="" fill="#EBEAE9" transform="translate(0,0)"/>
<path d="" fill="#EBEAE9" transform="translate(0,0)"/>
<path d="" fill="#DFDDDC" transform="translate(0,0)"/>
<path d="" fill="#EBEAE8" transform="translate(0,0)"/>
<path d="" fill="#E0DEDD" transform="translate(0,0)"/>
<path d="" fill="#EBE9E8" transform="translate(0,0)"/>
<path d="" fill="#E0DEDD" transform="translate(0,0)"/>
<path d="" fill="#EBEAE9" transform="translate(0,0)"/>
<path d="" fill="#E1DFDE" transform="translate(0,0)"/>
<path d="" fill="#EBEAE9" transform="translate(0,0)"/>
<path d="" fill="#E1E0DF" transform="translate(0,0)"/>
<path d="" fill="#EBEAE9" transform="translate(0,0)"/>
<path d="" fill="#E1E0DF" transform="translate(0,0)"/>
<path d="" fill="#EBEAE9" transform="translate(0,0)"/>
<path d="" fill="#E5E4E3" transform="translate(0,0)"/>
<path d="" fill="#EDECEB" transform="translate(0,0)"/>
<path d="" fill="#E4E3E2" transform="translate(0,0)"/>
<path d="" fill="#ECEBEA" transform="translate(0,0)"/>
<path d="" fill="#E3E2E1" transform="translate(0,0)"/>
<path d="" fill="#ECEBEA" transform="translate(0,0)"/>
<path d="" fill="#E3E2E1" transform="translate(0,0)"/>
<path d="" fill="#ECEBEA" transform="translate(0,0)"/>
<path d="" fill="#E3E1E0" transform="translate(0,0)"/>
<path d="" fill="#EEECEC" transform="translate(0,0)"/>
<path d="" fill="#E5E3E2" transform="translate(0,0)"/>
<path d="" fill="#EDEBEB" transform="translate(0,0)"/>
<path d="" fill="#E4E3E2" transform="translate(0,0)"/>
<path d="" fill="#ECEBEA" transform="translate(0,0)"/>
<path d="" fill="#E4E2E2" transform="translate(0,0)"/>
<path d="" fill="#EEEDEC" transform="translate(0,0)"/>
<path d="" fill="#E5E4E3" transform="translate(0,0)"/>
<path d="" fill="#EDECEB" transform="translate(0,0)"/>
<path d="" fill="#E5E3E3" transform="translate(0,0)"/>
<path d="" fill="#EDECEB" transform="translate(0,0)"/>
<path d="" fill="#E5E4E3" transform="translate(0,0)"/>
<path d="" fill="#EDECEB" transform="translate(0,0)"/>
<path d="" fill="#E6E4E3" transform="translate(0,0)"/>
<path d="" fill="#EDECEB" transform="translate(0,0)"/>
<path d="" fill="#E7E5E4" transform="translate(0,0)"/>
<path d="" fill="#EDECEC" transform="translate(0,0)"/>
<path d="" fill="#E7E6E5" transform="translate(0,0)"/>
<path d="" fill="#E8E7E6" transform="translate(0,0)"/>
</svg>
