<?xml version="1.0" encoding="UTF-8"?>
<svg version="1.1" xmlns="http://www.w3.org/2000/svg" width="450" height="450">
<path d="M0 0 C1.03229736 0.24943359 1.03229736 0.24943359 2.08544922 0.50390625 C18.09580208 4.46886408 32.69863914 11.20818187 46 21 C46.80179688 21.57878906 47.60359375 22.15757813 48.4296875 22.75390625 C58.16194125 30.14084639 67.08329107 39.2131091 74.9375 48.5625 C85.90406165 61.31559425 103.2512304 66.02240195 118.66113281 71.18457031 C143.39095035 79.66435866 164.20255724 96.010064 175.98754883 119.62304688 C187.13718868 143.20445847 188.48833796 169.73712732 179.83203125 194.31640625 C169.81798421 219.69180701 151.59691662 237.88476283 126.97216797 249.14697266 C105.93096806 258.24798187 85.3433811 257.11266921 63.52734375 252.37890625 C56.86336633 250.93600238 50.166423 249.78194517 43.4375 248.6875 C42.38997559 248.51637695 41.34245117 248.34525391 40.26318359 248.16894531 C37.84266187 247.77580976 35.42168633 247.38588569 33 247 C32.73517822 247.87076172 32.47035645 248.74152344 32.19750977 249.63867188 C31.01754656 252.95074799 29.59867107 255.74228754 27.83984375 258.78125 C27.21537354 259.86414307 26.59090332 260.94703613 25.94750977 262.06274414 C25.28420654 263.19703857 24.62090332 264.33133301 23.9375 265.5 C23.59919159 266.08103485 23.26088318 266.6620697 22.912323 267.26071167 C4.90928005 298.1763482 4.90928005 298.1763482 -4.1875 304.0625 C-10.97256013 305.73095741 -17.89088621 306.03637126 -24.5625 303.8125 C-28.79228681 300.66727391 -30.7219395 298.56531705 -31.6640625 293.26171875 C-32.31312741 286.47298054 -31.60024934 279.71447767 -31.0625 272.9375 C-30.96083174 271.58143674 -30.85991453 270.22531694 -30.75976562 268.86914062 C-30.51386805 265.57879691 -30.26042187 262.28922062 -30 259 C-32.22568137 257.88715931 -33.64924416 257.79496592 -36.12109375 257.640625 C-65.04445582 255.55453994 -91.93485794 246.24981293 -114 227 C-114.94230469 226.20207031 -115.88460937 225.40414062 -116.85546875 224.58203125 C-129.78249399 213.39728924 -139.27961942 200.18244298 -147 185 C-147.49113281 184.04609375 -147.98226562 183.0921875 -148.48828125 182.109375 C-163.48565744 151.0931295 -163.9234191 115.06646835 -152.95947266 82.80615234 C-141.43474995 50.70535344 -117.41327003 24.48242985 -86.78686523 9.64355469 C-59.73472431 -3.0345435 -29.26361346 -7.33214088 0 0 Z " fill="#EFEADF" transform="translate(216,92)"/>
<path d="M0 0 C0.79409775 -0.0065712 1.5881955 -0.0131424 2.40635681 -0.01991272 C5.02212631 -0.03955191 7.63783885 -0.05128294 10.25366211 -0.0612793 C11.59630033 -0.06739259 11.59630033 -0.06739259 12.96606255 -0.07362938 C17.69742473 -0.09444301 22.42875826 -0.10876899 27.16015625 -0.11816406 C32.0485159 -0.12926124 36.93642446 -0.16371229 41.82462406 -0.20333576 C45.58467977 -0.22944361 49.34462655 -0.23785034 53.10476494 -0.24144554 C54.90732329 -0.24632108 56.70987647 -0.25796253 58.51234627 -0.27648354 C61.03073538 -0.30076728 63.54793653 -0.29993093 66.06640625 -0.29296875 C66.81093048 -0.30577881 67.55545471 -0.31858887 68.32254028 -0.33178711 C71.81214083 -0.29657937 73.64065274 -0.07575279 76.44216919 2.08404541 C78.19818279 4.49194154 78.41286658 5.30796255 77.98803711 8.2121582 C77.05056129 13.97733967 74.87342253 19.23948395 72.65600586 24.61450195 C72.26477539 25.58709961 71.87354492 26.55969727 71.47045898 27.56176758 C70.68982393 29.49976207 69.90439359 31.43583237 69.11401367 33.36987305 C68.01961681 36.0517518 66.94237176 38.73982177 65.87084961 41.4309082 C64.71614681 44.32557412 63.54340711 47.21031759 62.33569336 50.08325195 C59.455226 57.02050319 56.99047186 63.68845799 55.96850586 71.17700195 C54.48350586 70.68200195 54.48350586 70.68200195 52.96850586 70.17700195 C54.28850586 71.49700195 55.60850586 72.81700195 56.96850586 74.17700195 C56.96850586 73.51700195 56.96850586 72.85700195 56.96850586 72.17700195 C61.58850586 72.17700195 66.20850586 72.17700195 70.96850586 72.17700195 C71.29850586 72.83700195 71.62850586 73.49700195 71.96850586 74.17700195 C73.94739547 74.90394099 75.94805143 75.57516446 77.96850586 76.17700195 C77.96850586 76.83700195 77.96850586 77.49700195 77.96850586 78.17700195 C79.61850586 78.83700195 81.26850586 79.49700195 82.96850586 80.17700195 C82.96850586 78.52700195 82.96850586 76.87700195 82.96850586 75.17700195 C84.94850586 75.67200195 84.94850586 75.67200195 86.96850586 76.17700195 C86.45308502 81.44500458 85.20700106 85.29786519 82.78100586 89.98950195 C82.26739502 90.98735718 82.26739502 90.98735718 81.7434082 92.00537109 C80.49974448 94.40386541 79.23559167 96.79079815 77.96850586 99.17700195 C77.44466309 100.16861328 76.92082031 101.16022461 76.38110352 102.18188477 C70.27590168 113.71412688 64.08414509 125.16581339 57.36206055 136.35107422 C54.79486174 140.65939823 52.51191022 145.03185704 50.34350586 149.55200195 C46.6177983 157.25875222 42.31729601 164.62281545 37.96850586 171.98950195 C37.30383301 173.12242676 36.63916016 174.25535156 35.9543457 175.42260742 C21.50054283 199.70655997 21.50054283 199.70655997 10.96850586 203.17700195 C4.33974339 203.81581886 -2.47673414 204.30746452 -8.03149414 200.17700195 C-11.74182197 196.76751152 -12.45115846 193.91798437 -12.921875 188.98120117 C-13.14644227 183.23648025 -12.6122533 177.52562672 -12.15649414 171.80200195 C-12.0649707 170.53227539 -11.97344727 169.26254883 -11.87915039 167.9543457 C-11.17360008 158.60331978 -11.17360008 158.60331978 -10.03149414 155.17700195 C-9.81541068 153.26030437 -9.64277995 151.33855552 -9.49633789 149.4152832 C-9.40932617 148.29702148 -9.32231445 147.17875977 -9.23266602 146.02661133 C-9.1456543 144.85936523 -9.05864258 143.69211914 -8.96899414 142.48950195 C-8.87811523 141.3106543 -8.78723633 140.13180664 -8.69360352 138.91723633 C-8.46951354 136.00406663 -8.24895118 133.09067305 -8.03149414 130.17700195 C-13.44608844 128.84681816 -18.56287103 127.94974063 -24.15649414 127.73950195 C-29.51629482 127.39837117 -33.45155289 127.02674317 -38.03149414 124.17700195 C-41.21742101 120.08939766 -41.46257335 116.43578791 -41.34399414 111.42700195 C-41.3472168 110.7618457 -41.35043945 110.09668945 -41.35375977 109.41137695 C-41.30770622 105.05722361 -40.57883265 101.13482609 -39.60484314 96.88293457 C-38.44920743 91.42888764 -37.65205477 85.91004366 -36.78930664 80.40356445 C-36.57792251 79.07182929 -36.36615292 77.74015526 -36.15402222 76.40853882 C-35.26253877 70.80828935 -34.37747372 65.20703416 -33.49584961 59.60522461 C-29.20194536 32.34964856 -29.20194536 32.34964856 -26.96118164 21.13793945 C-26.75490646 20.04867661 -26.75490646 20.04867661 -26.54446411 18.93740845 C-25.37786354 13.39153808 -23.3873889 8.26592653 -19.06665039 4.43481445 C-18.41567383 4.06098633 -17.76469727 3.6871582 -17.09399414 3.30200195 C-16.4455957 2.91270508 -15.79719727 2.5234082 -15.12915039 2.12231445 C-10.27330042 -0.06598293 -5.23885768 0.0189721 0 0 Z " fill="#FEF32F" transform="translate(197.031494140625,193.822998046875)"/>
<path d="M0 0 C0.66 0.33 1.32 0.66 2 1 C1.69747314 1.69826904 1.39494629 2.39653809 1.08325195 3.1159668 C-0.04694644 6.12498947 -0.71520721 8.99100347 -1.33203125 12.14453125 C-1.57074951 13.36293701 -1.80946777 14.58134277 -2.05541992 15.83666992 C-2.30835443 17.16183709 -2.56069871 18.48711704 -2.8125 19.8125 C-2.94250397 20.48906647 -3.07250793 21.16563293 -3.20645142 21.86270142 C-5.9809827 36.33532511 -8.28308977 50.86996859 -10.46386719 65.44238281 C-10.95491177 68.70080796 -11.46164862 71.95621272 -11.9765625 75.2109375 C-12.2553212 76.99477403 -12.53397641 78.77862674 -12.8125 80.5625 C-12.9364917 81.33489014 -13.0604834 82.10728027 -13.18823242 82.90307617 C-13.86404567 87.31603208 -14.0411374 91.54211045 -14 96 C-13.03956946 89.82936812 -12.07928917 83.65871288 -11.11914062 77.48803711 C-10.79333432 75.39428088 -10.46748887 73.30053074 -10.14160156 71.20678711 C-9.82514646 69.1736116 -9.50876976 67.14042388 -9.19247437 65.10722351 C-8.88227023 63.11385666 -8.57174453 61.12053983 -8.26089478 59.12727356 C-7.46926526 54.04558776 -6.69528904 48.96186045 -5.9375 43.875 C-4.94952771 37.43832338 -3.68036186 31.06631772 -2.375 24.6875 C-2.03082031 22.9869043 -2.03082031 22.9869043 -1.6796875 21.25195312 C-1.12248056 18.50074385 -0.56256078 15.75011857 0 13 C0.33 13.99 0.66 14.98 1 16 C1.66 16 2.32 16 3 16 C3.33 14.35 3.66 12.7 4 11 C5.06702678 14.20108034 4.97828369 14.89374786 4.109375 17.9921875 C3.89410156 18.78109375 3.67882812 19.57 3.45703125 20.3828125 C3.22371094 21.20523438 2.99039063 22.02765625 2.75 22.875 C-0.73696385 35.4198167 -3.48418741 48.02926536 -5.73486328 60.84790039 C-6.1253562 63.06452195 -6.52530623 65.27930349 -6.92578125 67.49414062 C-8.78725084 77.93610343 -10.08926967 88.31590374 -10.25 98.9375 C-10.27578125 99.97777344 -10.3015625 101.01804687 -10.328125 102.08984375 C-9.93194049 105.603623 -9.30621756 107.30630054 -7 110 C-3.69391168 111.3683699 -3.69391168 111.3683699 0.125 112.125 C1.47692939 112.45030191 2.82849447 112.77712167 4.1796875 113.10546875 C5.44039062 113.40066406 6.70109375 113.69585937 8 114 C9.75769011 114.45014015 11.50990871 114.92351264 13.25 115.4375 C13.91515625 115.62183594 14.5803125 115.80617188 15.265625 115.99609375 C17.92504516 117.53544281 18.72860625 119.21953355 20 122 C20.58203125 125.6640625 20.58203125 125.6640625 20.8125 129.625 C20.94591797 131.59339844 20.94591797 131.59339844 21.08203125 133.6015625 C21 137 21 137 19 140 C18.63462068 142.50412248 18.37036885 144.93153222 18.18359375 147.44921875 C18.12220718 148.18066605 18.06082062 148.91211334 17.99757385 149.66572571 C17.80274839 152.00573317 17.61972638 154.34648079 17.4375 156.6875 C17.24929933 159.01041323 17.05864983 161.33310848 16.86671448 163.65571594 C16.74823566 165.09917117 16.63229207 166.54283768 16.51939392 167.98674011 C16.24173747 171.46406657 15.90021292 174.92257093 15.45727539 178.38208008 C14.95820194 181.72291844 14.95820194 181.72291844 15 184 C21.90256034 185.5339023 29.65735561 186.324444 36.3125 183.6875 C39.74389508 180.25610492 42.05275566 176.44976278 44.484375 172.265625 C44.98453125 171.51796875 45.4846875 170.7703125 46 170 C46.66 170 47.32 170 48 170 C48.0825 169.48050781 48.165 168.96101562 48.25 168.42578125 C49.29975172 165.03049052 51.14283326 162.1885541 53 159.1875 C53.81135409 157.85686605 54.62254697 156.52613378 55.43359375 155.1953125 C55.85366699 154.50985352 56.27374023 153.82439453 56.70654297 153.11816406 C58.84711598 149.61276363 60.95326316 146.0868106 63.0625 142.5625 C63.82405836 141.29287253 64.58576213 140.02333226 65.34765625 138.75390625 C65.89292969 137.84511719 66.43820313 136.93632812 67 136 C66.34 135.01 65.68 134.02 65 133 C65.36609375 132.57074219 65.7321875 132.14148438 66.109375 131.69921875 C77.92973325 117.20520804 86.61042803 100.55714771 94.9753418 83.92333984 C96 82 96 82 97 81 C97.07205511 79.31391034 97.08386068 77.62499341 97.0625 75.9375 C97.05347656 75.01839844 97.04445313 74.09929687 97.03515625 73.15234375 C97.02355469 72.44207031 97.01195312 71.73179687 97 71 C95.02 70.34 93.04 69.68 91 69 C91 68.67 91 68.34 91 68 C93.97 68 96.94 68 100 68 C100 68.66 100 69.32 100 70 C101.65 70.66 103.3 71.32 105 72 C105 70.35 105 68.7 105 67 C106.98 67.495 106.98 67.495 109 68 C108.48457916 73.26800262 107.2384952 77.12086323 104.8125 81.8125 C104.29888916 82.81035522 104.29888916 82.81035522 103.77490234 83.82836914 C102.53123862 86.22686346 101.26708581 88.61379619 100 91 C99.47615723 91.99161133 98.95231445 92.98322266 98.41259766 94.00488281 C92.30739582 105.53712493 86.11563924 116.98881144 79.39355469 128.17407227 C76.82635588 132.48239627 74.54340436 136.85485509 72.375 141.375 C68.64929244 149.08175027 64.34879015 156.4458135 60 163.8125 C59.33532715 164.9454248 58.6706543 166.07834961 57.98583984 167.24560547 C43.53203697 191.52955802 43.53203697 191.52955802 33 195 C26.37123753 195.63881691 19.55476 196.13046257 14 192 C10.28967217 188.59050956 9.58033568 185.74098242 9.10961914 180.80419922 C8.88505187 175.05947829 9.41924084 169.34862477 9.875 163.625 C9.96652344 162.35527344 10.05804688 161.08554687 10.15234375 159.77734375 C10.85789406 150.42631782 10.85789406 150.42631782 12 147 C12.21608346 145.08330242 12.3887142 143.16155357 12.53515625 141.23828125 C12.62216797 140.12001953 12.70917969 139.00175781 12.79882812 137.84960938 C12.88583984 136.68236328 12.97285156 135.51511719 13.0625 134.3125 C13.15337891 133.13365234 13.24425781 131.95480469 13.33789062 130.74023438 C13.5619806 127.82706468 13.78254296 124.9136711 14 122 C8.58540571 120.66981621 3.46862311 119.77273868 -2.125 119.5625 C-7.48480068 119.22136921 -11.42005875 118.84974122 -16 116 C-19.18592687 111.91239571 -19.43107921 108.25878596 -19.3125 103.25 C-19.31572266 102.58484375 -19.31894531 101.9196875 -19.32226562 101.234375 C-19.27621208 96.88022166 -18.54733851 92.95782414 -17.573349 88.70593262 C-16.41771329 83.25188568 -15.62056063 77.73304171 -14.7578125 72.2265625 C-14.54642837 70.89482734 -14.33465878 69.56315331 -14.12252808 68.23153687 C-13.23104463 62.63128739 -12.34597958 57.03003221 -11.46435547 51.42822266 C-7.16978127 24.16752656 -7.16978127 24.16752656 -4.8671875 12.8359375 C-4.64834396 11.72153793 -4.64834396 11.72153793 -4.42507935 10.58462524 C-3.56446712 6.54631245 -2.343062 3.4050075 0 0 Z " fill="#FEEC18" transform="translate(175,202)"/>
<path d="M0 0 C1.32 0.33 2.64 0.66 4 1 C3.48457916 6.26800262 2.2384952 10.12086323 -0.1875 14.8125 C-0.52845703 15.47483643 -0.86941406 16.13717285 -1.22070312 16.81958008 C-2.4659786 19.22091486 -3.73176944 21.61070859 -5 24 C-5.53447754 25.01288086 -6.06895508 26.02576172 -6.61962891 27.06933594 C-22.35723209 56.83460391 -22.35723209 56.83460391 -27 63 C-27.66 63 -28.32 63 -29 63 C-29 63.66 -29 64.32 -29 65 C-29.99 65 -30.98 65 -32 65 C-31.938125 65.86625 -31.87625 66.7325 -31.8125 67.625 C-32.02455502 71.44199033 -33.12044307 73.71077536 -35 77 C-35.99 77 -36.98 77 -38 77 C-38.66 78.32 -39.32 79.64 -40 81 C-40.66 81 -41.32 81 -42 81 C-42.27763184 81.72525879 -42.55526367 82.45051758 -42.84130859 83.19775391 C-44.73935022 87.78808719 -47.20149919 92.04517226 -49.625 96.375 C-50.12128906 97.29539062 -50.61757812 98.21578125 -51.12890625 99.1640625 C-54.59300493 105.33421282 -58.35954198 109.72047169 -64 114 C-64 110.63596525 -63.38119947 109.59907083 -61.625 106.8125 C-61.18414062 106.09707031 -60.74328125 105.38164062 -60.2890625 104.64453125 C-59.65097656 103.83048828 -59.65097656 103.83048828 -59 103 C-58.34 103 -57.68 103 -57 103 C-56.9175 102.48050781 -56.835 101.96101563 -56.75 101.42578125 C-55.70024828 98.03049052 -53.85716674 95.1885541 -52 92.1875 C-51.18864591 90.85686605 -50.37745303 89.52613378 -49.56640625 88.1953125 C-49.14633301 87.50985352 -48.72625977 86.82439453 -48.29345703 86.11816406 C-46.15288402 82.61276363 -44.04673684 79.0868106 -41.9375 75.5625 C-41.17594164 74.29287253 -40.41423787 73.02333226 -39.65234375 71.75390625 C-39.10707031 70.84511719 -38.56179687 69.93632812 -38 69 C-38.66 68.01 -39.32 67.02 -40 66 C-39.63390625 65.57074219 -39.2678125 65.14148438 -38.890625 64.69921875 C-27.07026675 50.20520804 -18.38957197 33.55714771 -10.0246582 16.92333984 C-9 15 -9 15 -8 14 C-7.92794489 12.31391034 -7.91613932 10.62499341 -7.9375 8.9375 C-7.94652344 8.01839844 -7.95554687 7.09929687 -7.96484375 6.15234375 C-7.97644531 5.44207031 -7.98804688 4.73179687 -8 4 C-9.98 3.34 -11.96 2.68 -14 2 C-14 1.67 -14 1.34 -14 1 C-11.03 1 -8.06 1 -5 1 C-5 1.66 -5 2.32 -5 3 C-2.525 3.99 -2.525 3.99 0 5 C0 3.35 0 1.7 0 0 Z " fill="#FDE517" transform="translate(280,269)"/>
<path d="M0 0 C0.99 0.495 0.99 0.495 2 1 C-3.68130236 12.21237798 -9.74107332 23.17459965 -16.125 34 C-16.78113281 35.11995361 -17.43726563 36.23990723 -18.11328125 37.39379883 C-32.45074896 61.52388576 -32.45074896 61.52388576 -43 65 C-49.62876247 65.63881691 -56.44524 66.13046257 -62 62 C-65.71032783 58.59050956 -66.41966432 55.74098242 -66.89038086 50.80419922 C-67.11494813 45.05947829 -66.58075916 39.34862477 -66.125 33.625 C-65.98771484 31.72041016 -65.98771484 31.72041016 -65.84765625 29.77734375 C-65.14210594 20.42631782 -65.14210594 20.42631782 -64 17 C-63.77820215 15.10787263 -63.59385985 13.21115528 -63.4375 11.3125 C-63.31181641 9.82169922 -63.31181641 9.82169922 -63.18359375 8.30078125 C-63.12300781 7.54152344 -63.06242188 6.78226562 -63 6 C-62.67 6 -62.34 6 -62 6 C-61.67 21.84 -61.34 37.68 -61 54 C-48.72631656 56.22659476 -48.72631656 56.22659476 -37.5625 51.75 C-36.01917669 50.52787596 -34.49797549 49.27730319 -33 48 C-32.20335937 47.42282227 -31.40671875 46.84564453 -30.5859375 46.25097656 C-27.69646891 43.73578582 -26.22088823 41.40706486 -24.37109375 38.0625 C-23.72849609 36.92039062 -23.08589844 35.77828125 -22.42382812 34.6015625 C-21.7608596 33.4015159 -21.09875757 32.20099023 -20.4375 31 C-19.13172251 28.64113508 -17.81618836 26.28846245 -16.49609375 23.9375 C-15.63262329 22.37322266 -15.63262329 22.37322266 -14.75170898 20.77734375 C-13.04591614 18.07280029 -11.46162331 16.03644771 -9 14 C-8.01 14 -7.02 14 -6 14 C-4.515 8.06 -4.515 8.06 -3 2 C-2.01 2 -1.02 2 0 2 C0 1.34 0 0.68 0 0 Z " fill="#FBD81B" transform="translate(251,332)"/>
<path d="M0 0 C0.66 0 1.32 0 2 0 C-0.16616795 4.75295104 -3.48434287 8.193105 -7 12 C-7.62261719 12.67675781 -8.24523437 13.35351562 -8.88671875 14.05078125 C-25.66445927 31.57722419 -50.17472237 40.88450424 -74.1875 41.4375 C-84.96463006 41.47450302 -95.27042202 38.96207589 -105.74707031 36.68017578 C-111.16199896 35.54793387 -116.60935967 34.61493096 -122.0625 33.6875 C-123.06240967 33.51637695 -124.06231934 33.34525391 -125.0925293 33.16894531 C-127.39455605 32.77646862 -129.69698422 32.38662332 -132 32 C-131.01088094 27.76641647 -129.22583401 24.73365704 -127 21 C-126 23 -126 23 -126.9375 26.125 C-127.288125 27.07375 -127.63875 28.0225 -128 29 C-122.2890539 31.0927097 -116.43047622 32.33544006 -110.5 33.625 C-108.97052734 33.96917969 -108.97052734 33.96917969 -107.41015625 34.3203125 C-102.51793657 35.38909391 -98.03696812 36.25144285 -93 36 C-89.3 36.7 -89.3 36.7 -88 38 C-86.65252916 38.23075082 -85.29622435 38.41153063 -83.9375 38.5625 C-82.638125 38.706875 -81.33875 38.85125 -80 39 C-80 38.34 -80 37.68 -80 37 C-78.56274129 36.83126522 -77.12518162 36.66509263 -75.6875 36.5 C-74.88699219 36.4071875 -74.08648437 36.314375 -73.26171875 36.21875 C-71 36 -71 36 -68 36 C-66.7625 35.7525 -66.7625 35.7525 -65.5 35.5 C-63 35 -63 35 -60 35 C-59.195625 34.649375 -58.39125 34.29875 -57.5625 33.9375 C-55 33 -55 33 -53.0703125 33.54296875 C-50.47372976 34.11617664 -49.6139736 33.63912177 -47.3125 32.375 C-46.61898437 32.00246094 -45.92546875 31.62992187 -45.2109375 31.24609375 C-44.48132813 30.83488281 -43.75171875 30.42367188 -43 30 C-41.47930423 29.14558846 -39.95846994 28.2914234 -38.4375 27.4375 C-37.6846875 27.01210938 -36.931875 26.58671875 -36.15625 26.1484375 C-34 25 -34 25 -30.4375 23.5625 C-26.79986206 21.90902821 -24.02179866 19.9125238 -20.89453125 17.4609375 C-19 16 -19 16 -16.125 14.1875 C-12.18148341 11.42703839 -8.77580512 8.21661586 -5.26953125 4.92578125 C-3 3 -3 3 0 2 C0 1.34 0 0.68 0 0 Z " fill="#B3B0AD" transform="translate(382,307)"/>
<path d="M0 0 C0.66 0.33 1.32 0.66 2 1 C1.69747314 1.69826904 1.39494629 2.39653809 1.08325195 3.1159668 C-0.04694644 6.12498947 -0.71520721 8.99100347 -1.33203125 12.14453125 C-1.57066895 13.36245361 -1.80930664 14.58037598 -2.05517578 15.83520508 C-2.30820596 17.16085781 -2.56063071 18.48662622 -2.8125 19.8125 C-3.00800446 20.83034073 -3.00800446 20.83034073 -3.2074585 21.8687439 C-5.96380725 36.25292817 -8.24339948 50.6982593 -10.41650391 65.18017578 C-10.98697418 68.91472722 -11.58748895 72.64309913 -12.19921875 76.37109375 C-12.48128174 78.11555786 -12.48128174 78.11555786 -12.76904297 79.89526367 C-13.11665912 82.04108289 -13.4705488 84.18590121 -13.83251953 86.3293457 C-16.31976908 100.70560732 -16.31976908 100.70560732 -12 114 C-7.45608041 115.78511127 -3.3392689 116.05238207 1.5 116.375 C6.85569563 116.77088824 10.38699396 118.30182665 15 121 C15 125.29 15 129.58 15 134 C14.67 134 14.34 134 14 134 C14 130.04 14 126.08 14 122 C8.56059868 120.59325828 3.4932159 119.85061364 -2.125 119.5625 C-7.48480068 119.22136921 -11.42005875 118.84974122 -16 116 C-19.18592687 111.91239571 -19.43107921 108.25878596 -19.3125 103.25 C-19.31572266 102.58484375 -19.31894531 101.9196875 -19.32226562 101.234375 C-19.27621208 96.88022166 -18.54733851 92.95782414 -17.573349 88.70593262 C-16.41771329 83.25188568 -15.62056063 77.73304171 -14.7578125 72.2265625 C-14.54642837 70.89482734 -14.33465878 69.56315331 -14.12252808 68.23153687 C-13.23104463 62.63128739 -12.34597958 57.03003221 -11.46435547 51.42822266 C-7.16978127 24.16752656 -7.16978127 24.16752656 -4.8671875 12.8359375 C-4.64834396 11.72153793 -4.64834396 11.72153793 -4.42507935 10.58462524 C-3.56446712 6.54631245 -2.343062 3.4050075 0 0 Z " fill="#F5C312" transform="translate(175,202)"/>
<path d="M0 0 C0.79731033 -0.00335861 1.59462067 -0.00671722 2.41609192 -0.01017761 C5.04148938 -0.01964795 7.66682287 -0.02162827 10.29223633 -0.02270508 C12.11875942 -0.02591868 13.94528226 -0.02928284 15.77180481 -0.03279114 C19.5939697 -0.03877136 23.41611201 -0.040632 27.23828125 -0.04003906 C32.14462962 -0.03993711 37.05083433 -0.05362802 41.95714855 -0.07081127 C45.72569958 -0.08190352 49.49421546 -0.08395918 53.26278114 -0.08342934 C55.07254853 -0.08461216 56.88231675 -0.08905077 58.6920681 -0.0967617 C61.21538932 -0.10651242 63.73839289 -0.10370401 66.26171875 -0.09765625 C67.01343353 -0.10327576 67.76514832 -0.10889526 68.53964233 -0.11468506 C73.70844684 -0.08305706 73.70844684 -0.08305706 75.93676758 2.14526367 C75.69458008 4.30932617 75.69458008 4.30932617 75.06176758 6.77026367 C74.8580957 7.5875293 74.65442383 8.40479492 74.44458008 9.24682617 C74.27700195 9.87331055 74.10942383 10.49979492 73.93676758 11.14526367 C73.27676758 11.14526367 72.61676758 11.14526367 71.93676758 11.14526367 C71.48301758 10.17588867 71.02926758 9.20651367 70.56176758 8.20776367 C69.56078791 6.46023204 69.56078791 6.46023204 67.93676758 5.14526367 C65.41936004 4.55663328 65.41936004 4.55663328 62.53540039 4.46435547 C60.91994324 4.36880875 60.91994324 4.36880875 59.27185059 4.27133179 C54.09047507 4.07547272 48.91864063 3.98280494 43.73364258 3.97729492 C42.61217834 3.97396652 41.49071411 3.97063812 40.33526611 3.96720886 C37.97896734 3.96218191 35.62266155 3.95979921 33.26635742 3.95996094 C29.70975715 3.95777778 26.15346933 3.93958517 22.59692383 3.9206543 C1.73121026 2.63195642 1.73121026 2.63195642 -17.06323242 9.14526367 C-19.81323242 8.83276367 -19.81323242 8.83276367 -22.06323242 8.14526367 C-19.34178294 3.76070617 -15.82022905 1.86610696 -10.87187195 0.5723114 C-7.24254943 0.02048055 -3.6613641 -0.0022253 0 0 Z " fill="#F8D756" transform="translate(197.063232421875,193.854736328125)"/>
<path d="M0 0 C0.99 0.495 0.99 0.495 2 1 C-3.68130236 12.21237798 -9.74107332 23.17459965 -16.125 34 C-16.78113281 35.11995361 -17.43726563 36.23990723 -18.11328125 37.39379883 C-32.45074896 61.52388576 -32.45074896 61.52388576 -43 65 C-49.62876247 65.63881691 -56.44524 66.13046257 -62 62 C-64.375 59.3125 -64.375 59.3125 -66 57 C-65.01 56.505 -65.01 56.505 -64 56 C-63.67 56.66 -63.34 57.32 -63 58 C-56.6091095 61.86425938 -49.29177331 62.0632092 -42 61 C-37.28419616 58.36052865 -34.83874879 55.78430588 -32.16015625 51.125 C-31.83011093 50.55982666 -31.50006561 49.99465332 -31.16001892 49.41235352 C-30.11453834 47.61538021 -29.0882865 45.80827283 -28.0625 44 C-27.37951621 42.81828071 -26.69527952 41.63728462 -26.00976562 40.45703125 C-23.33979878 35.8492663 -20.69280379 31.22899205 -18.07763672 26.58984375 C-17.47322754 25.52894531 -16.86881836 24.46804688 -16.24609375 23.375 C-15.71556396 22.43398438 -15.18503418 21.49296875 -14.63842773 20.5234375 C-12.96727843 17.94960362 -11.35146838 15.97165807 -9 14 C-8.01 14 -7.02 14 -6 14 C-4.515 8.06 -4.515 8.06 -3 2 C-2.01 2 -1.02 2 0 2 C0 1.34 0 0.68 0 0 Z " fill="#F9C906" transform="translate(251,332)"/>
<path d="M0 0 C0.66 0 1.32 0 2 0 C2.53758274 3.60948409 2.80322134 5.8423554 0.67431641 8.91064453 C-0.19700928 9.91780518 -0.19700928 9.91780518 -1.0859375 10.9453125 C-5.58924516 16.51445807 -8.76863131 22.60145359 -12.0625 28.9375 C-18.89104508 41.94103305 -18.89104508 41.94103305 -22.18359375 47.75390625 C-22.6314624 48.55256104 -23.07933105 49.35121582 -23.54077148 50.17407227 C-25.26079564 52.32633271 -26.31319535 52.65439442 -29 53 C-27.71358788 49.61048933 -26.24579446 46.50868479 -24.42578125 43.375 C-23.67603027 42.07719604 -23.67603027 42.07719604 -22.91113281 40.75317383 C-22.38358398 39.84462646 -21.85603516 38.9360791 -21.3125 38 C-20.22990964 36.10839279 -19.14787685 34.21646637 -18.06640625 32.32421875 C-16.28975924 29.22559354 -14.49335989 26.14277161 -12.65234375 23.08203125 C-8.83308444 16.51792438 -6.91329024 11.64146702 -8 4 C-9.98 3.34 -11.96 2.68 -14 2 C-14 1.67 -14 1.34 -14 1 C-11.03 1 -8.06 1 -5 1 C-5 1.66 -5 2.32 -5 3 C-3.35 3.66 -1.7 4.32 0 5 C0 3.35 0 1.7 0 0 Z M-30 53 C-29 56 -29 56 -30.43359375 58.91796875 C-31.09488281 59.99691406 -31.75617188 61.07585937 -32.4375 62.1875 C-33.09621094 63.27417969 -33.75492188 64.36085938 -34.43359375 65.48046875 C-34.95050781 66.31191406 -35.46742188 67.14335937 -36 68 C-37.32 67.67 -38.64 67.34 -40 67 C-36.84577733 62.17403931 -33.71080883 57.42442592 -30 53 Z " fill="#FEEC15" transform="translate(280,269)"/>
<path d="M0 0 C0.66 0.33 1.32 0.66 2 1 C1.48457916 6.26800262 0.2384952 10.12086323 -2.1875 14.8125 C-2.52845703 15.47483643 -2.86941406 16.13717285 -3.22070312 16.81958008 C-4.4659786 19.22091486 -5.73176944 21.61070859 -7 24 C-7.53447754 25.01288086 -8.06895508 26.02576172 -8.61962891 27.06933594 C-23.40752553 55.03837928 -23.40752553 55.03837928 -29 63 C-29.33 63 -29.66 63 -30 63 C-29.79008042 54.61196329 -26.72236801 49.06932557 -22.5 41.9375 C-21.86795654 40.84219971 -21.23591309 39.74689941 -20.5847168 38.6184082 C-19.31913153 36.42527515 -18.04799305 34.23533617 -16.77099609 32.04882812 C-14.02893964 27.3282876 -11.39356109 22.54952687 -8.75390625 17.77124023 C-7.02768942 14.68571328 -5.33683493 11.66596661 -3 9 C-2.34 9 -1.68 9 -1 9 C-0.67 6.03 -0.34 3.06 0 0 Z " fill="#F9D50C" transform="translate(282,269)"/>
<path d="M0 0 C0 0.99 0 1.98 0 3 C-0.66 3 -1.32 3 -2 3 C-4.22068913 10.73171367 -6.01433997 18.4828025 -7.5625 26.375 C-7.87477539 27.92574219 -7.87477539 27.92574219 -8.19335938 29.5078125 C-9.22297288 34.69783918 -10.16131361 39.88844156 -10.95239258 45.12036133 C-11.93235097 51.55834873 -12.93492937 57.9925061 -13.9453125 64.42578125 C-14.12005096 65.53938522 -14.29478943 66.6529892 -14.474823 67.80033875 C-15.02469984 71.30442112 -15.57484491 74.80846131 -16.125 78.3125 C-16.50131995 80.71028365 -16.87762219 83.10807009 -17.25390625 85.50585938 C-18.16906645 91.33727168 -19.08444597 97.16864952 -20 103 C-20.33 103 -20.66 103 -21 103 C-21.37284682 95.43259048 -20.88762544 88.3073505 -19.69921875 80.84765625 C-19.56522675 79.98243851 -19.43123474 79.11722076 -19.29318237 78.2257843 C-18.86696248 75.48307487 -18.43365748 72.74154217 -18 70 C-17.72551297 68.23979551 -17.45133938 66.47954212 -17.17749023 64.71923828 C-16.34215019 59.3728078 -15.48827786 54.02948628 -14.625 48.6875 C-14.47448181 47.75575958 -14.32396362 46.82401917 -14.16888428 45.86404419 C-8.0332471 8.06649419 -8.0332471 8.06649419 -5 2 C-3.35636866 1.27840576 -1.68949614 0.60648579 0 0 Z " fill="#FCE43D" transform="translate(181,201)"/>
<path d="M0 0 C5.875 0.875 5.875 0.875 7 2 C7.29136711 4.46631957 7.5149945 6.90012105 7.6875 9.375 C7.74744141 10.06078125 7.80738281 10.7465625 7.86914062 11.453125 C8.14090397 15.2801485 8.19102544 16.71346184 6 20 C5.64669891 22.56253238 5.39436427 25.05009368 5.21875 27.625 C5.15973511 28.36830566 5.10072021 29.11161133 5.03991699 29.87744141 C4.85166598 32.25107362 4.67449577 34.62531932 4.5 37 C4.27030601 40.12586314 4.02931651 43.25054726 3.78125 46.375 C3.73222534 47.09381348 3.68320068 47.81262695 3.63269043 48.55322266 C3.34646145 52.14499732 3.04380454 53.93429319 1 57 C0.97503241 51.11417947 0.95701498 45.22839068 0.94506836 39.3425293 C0.94008091 37.34577903 0.93328855 35.34903234 0.92456055 33.35229492 C0.87844089 22.51960074 0.86576495 11.78610215 2 1 C1.34 0.67 0.68 0.34 0 0 Z " fill="#FDE209" transform="translate(188,322)"/>
<path d="M0 0 C1 2 1 2 0.0625 5.125 C-0.288125 6.07375 -0.63875 7.0225 -1 8 C4.7109461 10.0927097 10.56952378 11.33544006 16.5 12.625 C17.51964844 12.85445313 18.53929687 13.08390625 19.58984375 13.3203125 C24.48206343 14.38909391 28.96303188 15.25144285 34 15 C37.7 15.7 37.7 15.7 39 17 C57.81559065 18.42438167 74.3056306 16.82860519 91.546875 9.05078125 C94 8 94 8 96.265625 7.48046875 C96.83796875 7.32191406 97.4103125 7.16335938 98 7 C98.33 6.34 98.66 5.68 99 5 C100 3 100 3 101.875 2.3125 C102.57625 2.209375 103.2775 2.10625 104 2 C104.7425 1.814375 105.485 1.62875 106.25 1.4375 C107.11625 1.2209375 107.11625 1.2209375 108 1 C96.17897231 14.13772632 73.92078335 19.03322754 57.13671875 20.2890625 C44.78687107 20.84711063 33.26122984 18.29568225 21.25292969 15.68017578 C15.83800104 14.54793387 10.39064033 13.61493096 4.9375 12.6875 C3.93759033 12.51637695 2.93768066 12.34525391 1.9074707 12.16894531 C-0.39455605 11.77646862 -2.69698422 11.38662332 -5 11 C-4.01088094 6.76641647 -2.22583401 3.73365704 0 0 Z " fill="#ABA298" transform="translate(255,328)"/>
<path d="M0 0 C2.9375 0.8125 2.9375 0.8125 6 2 C6.33 2.99 6.66 3.98 7 5 C9.01508358 5.73323796 9.01508358 5.73323796 11 6 C11.07734375 6.60457031 11.1546875 7.20914062 11.234375 7.83203125 C12.26422087 10.74817644 13.5462144 11.26846021 16.25 12.6875 C17.01828125 13.10386719 17.7865625 13.52023437 18.578125 13.94921875 C21.05501308 15.02386858 23.34129348 15.5710243 26 16 C26.33 16.99 26.66 17.98 27 19 C37.42845888 24.84597152 52.03685281 29.58747768 64 30 C64.99 29.505 64.99 29.505 66 29 C66.495 29.99 66.495 29.99 67 31 C72.8376256 32.41996298 79.02160346 32.5453323 85 33 C85.33 30.36 85.66 27.72 86 25 C86.33 25 86.66 25 87 25 C87 27.97 87 30.94 87 34 C86.34 34 85.68 34 85 34 C84.505 34.99 84.505 34.99 84 36 C83.67 35.67 83.34 35.34 83 35 C81.66394146 34.83275832 80.32046666 34.72395453 78.9765625 34.640625 C50.69991316 32.60894721 22.1799422 23.70849359 1 4 C0.34 3.01 -0.32 2.02 -1 1 C-0.67 0.67 -0.34 0.34 0 0 Z " fill="#A9A196" transform="translate(101,315)"/>
<path d="M0 0 C1.5020224 0.00306563 3.00404766 0.00493563 4.506073 0.00567627 C7.64804048 0.01026291 10.78974936 0.02461519 13.93164062 0.046875 C17.91859742 0.07500846 21.90535029 0.08607487 25.89239693 0.0905571 C29.7407898 0.09576898 33.58913399 0.11026483 37.4375 0.125 C38.15210514 0.12688072 38.86671028 0.12876144 39.60297012 0.13069916 C48.98375307 0.16257001 58.26875634 0.53483603 67.6171875 1.328125 C67.6171875 1.658125 67.6171875 1.988125 67.6171875 2.328125 C66.11834267 2.34025528 66.11834267 2.34025528 64.58921814 2.35263062 C55.15823846 2.43021896 45.7274008 2.51799011 36.29660702 2.61565208 C31.44849937 2.66553223 26.60041264 2.71186291 21.75219727 2.75 C17.07071113 2.78695752 12.38940358 2.83334569 7.70807076 2.88618851 C5.92480169 2.90467692 4.14149441 2.91980524 2.35816765 2.93146896 C-0.14560233 2.94842678 -2.64896826 2.97748408 -5.15258789 3.00927734 C-6.25095222 3.01251762 -6.25095222 3.01251762 -7.37150574 3.01582336 C-13.87052899 3.12079294 -19.44346672 4.80840255 -25.3828125 7.328125 C-24.8828125 5.515625 -24.8828125 5.515625 -23.3828125 3.328125 C-15.90315495 -0.53121506 -8.20534813 -0.07367223 0 0 Z " fill="#F6E5C8" transform="translate(202.3828125,191.671875)"/>
<path d="M0 0 C0.33 0 0.66 0 1 0 C1.01030746 0.56074722 1.02061493 1.12149445 1.03123474 1.69923401 C1.13973955 7.55586373 1.25429933 13.41235319 1.37231445 19.26879883 C1.41552286 21.45203709 1.45720739 23.63530608 1.49731445 25.81860352 C1.55535975 28.96379846 1.6189542 32.10884075 1.68359375 35.25390625 C1.70030624 36.2239711 1.71701874 37.19403595 1.73423767 38.1934967 C1.84310563 43.21750147 2.15855095 48.04413459 3 53 C1.68 52.67 0.36 52.34 -1 52 C-1 51.34 -1 50.68 -1 50 C-1.66 50 -2.32 50 -3 50 C-4.34379979 42.47661383 -3.72508092 35.2742374 -3.125 27.6875 C-3.03347656 26.41326172 -2.94195312 25.13902344 -2.84765625 23.82617188 C-2.14074248 14.42222744 -2.14074248 14.42222744 -1 11 C-0.77820215 9.10787263 -0.59385985 7.21115528 -0.4375 5.3125 C-0.31181641 3.82169922 -0.31181641 3.82169922 -0.18359375 2.30078125 C-0.12300781 1.54152344 -0.06242188 0.78226562 0 0 Z " fill="#F5BA12" transform="translate(188,338)"/>
<path d="M0 0 C0.79731033 -0.00335861 1.59462067 -0.00671722 2.41609192 -0.01017761 C5.04148938 -0.01964795 7.66682287 -0.02162827 10.29223633 -0.02270508 C12.11875942 -0.02591868 13.94528226 -0.02928284 15.77180481 -0.03279114 C19.5939697 -0.03877136 23.41611201 -0.040632 27.23828125 -0.04003906 C32.14462962 -0.03993711 37.05083433 -0.05362802 41.95714855 -0.07081127 C45.72569958 -0.08190352 49.49421546 -0.08395918 53.26278114 -0.08342934 C55.07254853 -0.08461216 56.88231675 -0.08905077 58.6920681 -0.0967617 C61.21538932 -0.10651242 63.73839289 -0.10370401 66.26171875 -0.09765625 C67.01343353 -0.10327576 67.76514832 -0.10889526 68.53964233 -0.11468506 C73.70844684 -0.08305706 73.70844684 -0.08305706 75.93676758 2.14526367 C75.69458008 4.30932617 75.69458008 4.30932617 75.06176758 6.77026367 C74.8580957 7.5875293 74.65442383 8.40479492 74.44458008 9.24682617 C74.27700195 9.87331055 74.10942383 10.49979492 73.93676758 11.14526367 C73.27676758 11.14526367 72.61676758 11.14526367 71.93676758 11.14526367 C70.1904928 8.5258515 69.54954369 7.1070149 68.93676758 4.14526367 C60.07859388 1.76031225 51.29721153 1.88711447 42.21020508 1.94995117 C40.61024148 1.95368864 39.01027556 1.95653214 37.41030884 1.95852661 C33.2313589 1.96610533 29.05255147 1.98570321 24.87365723 2.00793457 C20.59653653 2.02851823 16.31939245 2.03755491 12.04223633 2.04760742 C3.67368188 2.06895546 -4.69475746 2.10302042 -13.06323242 2.14526367 C-13.06323242 1.81526367 -13.06323242 1.48526367 -13.06323242 1.14526367 C-8.7060985 0.07364182 -4.45934725 -0.0027103 0 0 Z " fill="#F4D791" transform="translate(197.063232421875,193.854736328125)"/>
<path d="M0 0 C0.33 0.66 0.66 1.32 1 2 C1.66 2 2.32 2 3 2 C3.33 1.34 3.66 0.68 4 0 C3.40630535 4.77887544 1.95454629 8.8614252 0.0625 13.25 C-2.37454109 19.08576833 -4.14053776 24.70221633 -5 31 C-6.32 30.34 -7.64 29.68 -9 29 C-9.21631876 24.45730614 -8.49630633 21.264982 -7 17 C-6.5978125 15.74703125 -6.195625 14.4940625 -5.78125 13.203125 C-5.35423226 11.88539541 -4.92714815 10.56768732 -4.5 9.25 C-4.18095703 8.24259766 -4.18095703 8.24259766 -3.85546875 7.21484375 C-2.22577195 2.22577195 -2.22577195 2.22577195 0 0 Z " fill="#FDE910" transform="translate(258,234)"/>
<path d="M0 0 C0.495 0.99 0.495 0.99 1 2 C-12.68588617 8.71974771 -25.51977042 13.21281475 -40.875 13.0625 C-41.75414062 13.05798828 -42.63328125 13.05347656 -43.5390625 13.04882812 C-45.69273803 13.03712337 -47.84637817 13.01919069 -50 13 C-50 12.34 -50 11.68 -50 11 C-48.56274129 10.83126522 -47.12518162 10.66509263 -45.6875 10.5 C-44.88699219 10.4071875 -44.08648437 10.314375 -43.26171875 10.21875 C-41 10 -41 10 -38 10 C-37.175 9.835 -36.35 9.67 -35.5 9.5 C-33 9 -33 9 -30 9 C-29.195625 8.649375 -28.39125 8.29875 -27.5625 7.9375 C-25 7 -25 7 -23.0625 7.55078125 C-19.93887564 8.2311161 -18.05034765 6.58354609 -15.36328125 5.12109375 C-11.81463461 3.43768617 -8.12035804 2.56064636 -4.3203125 1.61328125 C-1.99746471 1.08365274 -1.99746471 1.08365274 0 0 Z " fill="#C1B4A3" transform="translate(352,333)"/>
<path d="M0 0 C0.47824219 0.4640625 0.95648438 0.928125 1.44921875 1.40625 C5.06882844 3.66781318 8.62897747 3.94944708 12.8125 4.5 C18.71550845 5.28836551 23.61180748 6.41021454 29 9 C28.01 9.495 28.01 9.495 27 10 C27 11.65 27 13.3 27 15 C25.35 14.34 23.7 13.68 22 13 C22 12.34 22 11.68 22 11 C17.05 10.67 12.1 10.34 7 10 C7 9.67 7 9.34 7 9 C9.64 8.67 12.28 8.34 15 8 C8.07 7.505 8.07 7.505 1 7 C1 7.66 1 8.32 1 9 C-0.32 8.34 -1.64 7.68 -3 7 C-3 6.34 -3 5.68 -3 5 C-2.34 5 -1.68 5 -1 5 C-0.67 3.35 -0.34 1.7 0 0 Z " fill="#FBE7B3" transform="translate(253,259)"/>
<path d="M0 0 C0.495 0.99 0.495 0.99 1 2 C-8.18113027 14.38261949 -8.18113027 14.38261949 -16 17 C-22.62876247 17.63881691 -29.44524 18.13046257 -35 14 C-37.375 11.3125 -37.375 11.3125 -39 9 C-38.34 8.67 -37.68 8.34 -37 8 C-36.67 8.66 -36.34 9.32 -36 10 C-29.4900282 13.93626202 -22.42286517 13.90481878 -15 13 C-10.84003647 11.55604572 -7.06001426 9.95463622 -4.8984375 5.96875 C-4.60195312 5.3190625 -4.30546875 4.669375 -4 4 C-2.70529025 2.62913085 -1.37849103 1.28659163 0 0 Z " fill="#CB7212" transform="translate(224,380)"/>
<path d="M0 0 C0.66 0.33 1.32 0.66 2 1 C-9.88673937 24.10943559 -9.88673937 24.10943559 -16 33 C-16.33 33 -16.66 33 -17 33 C-16.65532373 25.76179827 -14.89785009 21.08409811 -11 15 C-9.68 15 -8.36 15 -7 15 C-6.72414063 14.28457031 -6.44828125 13.56914062 -6.1640625 12.83203125 C-5.01751478 10.04261145 -3.73772885 7.37709642 -2.375 4.6875 C-1.92898438 3.80449219 -1.48296875 2.92148437 -1.0234375 2.01171875 C-0.68570312 1.34785156 -0.34796875 0.68398438 0 0 Z " fill="#F7CB0E" transform="translate(269,299)"/>
<path d="M0 0 C0.66 0.33 1.32 0.66 2 1 C1.69441162 1.70358643 1.38882324 2.40717285 1.07397461 3.13208008 C-0.0236949 6.06327437 -0.63437081 8.80806961 -1.18359375 11.88671875 C-1.38919922 12.98951172 -1.59480469 14.09230469 -1.80664062 15.22851562 C-2.22915763 17.54516459 -2.64577329 19.8628972 -3.05664062 22.18164062 C-3.26353516 23.28056641 -3.47042969 24.37949219 -3.68359375 25.51171875 C-3.86462646 26.51678467 -4.04565918 27.52185059 -4.23217773 28.55737305 C-5 31 -5 31 -8 33 C-7.37573609 26.65544021 -6.42849226 20.48885229 -5.125 14.25 C-4.96386719 13.42628906 -4.80273438 12.60257813 -4.63671875 11.75390625 C-3.7104624 7.29495126 -2.68792035 3.77844803 0 0 Z " fill="#F5C521" transform="translate(175,202)"/>
<path d="M0 0 C0.33 0 0.66 0 1 0 C1.21583531 10.38407674 1.03048694 20.64789602 0.125 31 C0.04652832 31.94891113 -0.03194336 32.89782227 -0.11279297 33.87548828 C-0.19674316 34.76220215 -0.28069336 35.64891602 -0.3671875 36.5625 C-0.44050293 37.34753906 -0.51381836 38.13257813 -0.58935547 38.94140625 C-1 41 -1 41 -3 44 C-3.62030802 29.20450506 -1.74416656 14.67079107 0 0 Z " fill="#FDE41A" transform="translate(192,335)"/>
<path d="M0 0 C2.9375 0.8125 2.9375 0.8125 6 2 C6.33 2.99 6.66 3.98 7 5 C9.01508358 5.73323796 9.01508358 5.73323796 11 6 C11.07734375 6.60457031 11.1546875 7.20914062 11.234375 7.83203125 C12.26422087 10.74817644 13.5462144 11.26846021 16.25 12.6875 C17.01828125 13.10386719 17.7865625 13.52023437 18.578125 13.94921875 C21.05501308 15.02386858 23.34129348 15.5710243 26 16 C25.67 16.99 25.34 17.98 25 19 C19.22394844 17.05344518 14.6451533 14.73138507 9.75 11.125 C9.151875 10.70347656 8.55375 10.28195312 7.9375 9.84765625 C4.3527254 7.25424631 1.62107745 4.62020103 -1 1 C-0.67 0.67 -0.34 0.34 0 0 Z " fill="#AAA49E" transform="translate(101,315)"/>
<path d="M0 0 C0.66 0.33 1.32 0.66 2 1 C-11.32087653 9.71831454 -26.55457429 18.54315167 -43 18 C-39.61198627 15.74132418 -36.46083803 15.05930518 -32.5625 14.1875 C-26.22960412 12.70057744 -20.40028357 10.73364748 -14.453125 8.05078125 C-12 7 -12 7 -9.734375 6.48046875 C-9.16203125 6.32191406 -8.5896875 6.16335938 -8 6 C-7.67 5.34 -7.34 4.68 -7 4 C-6 2 -6 2 -4 1.3125 C-3.34 1.209375 -2.68 1.10625 -2 1 C-1.34 0.67 -0.68 0.34 0 0 Z " fill="#9A9692" transform="translate(361,329)"/>
<path d="M0 0 C0.33 0.66 0.66 1.32 1 2 C-7.88829176 6.42938127 -16.37639247 9.54720648 -26 12 C-26 11.34 -26 10.68 -26 10 C-24.96875 9.566875 -23.9375 9.13375 -22.875 8.6875 C-20.58042054 7.71390354 -18.44442712 6.69696025 -16.25 5.5 C-12.38435308 3.71585527 -8.50860913 2.69481052 -4.390625 1.6484375 C-2.00956873 1.08706446 -2.00956873 1.08706446 0 0 Z " fill="#B7AEA4" transform="translate(352,333)"/>
<path d="M0 0 C9.41002278 -0.3690205 9.41002278 -0.3690205 14 2 C13.01 2.495 13.01 2.495 12 3 C12 4.65 12 6.3 12 8 C10.35 7.34 8.7 6.68 7 6 C7 5.34 7 4.68 7 4 C2.05 3.67 -2.9 3.34 -8 3 C-8 2.67 -8 2.34 -8 2 C-5.36 1.67 -2.72 1.34 0 1 C0 0.67 0 0.34 0 0 Z " fill="#FDEA6D" transform="translate(268,266)"/>
<path d="M0 0 C0.99 0.66 1.98 1.32 3 2 C2.59683309 10.08907228 0.05241933 16.63725214 -3.0625 24.0625 C-3.77116211 25.79016602 -3.77116211 25.79016602 -4.49414062 27.55273438 C-5.65261796 30.37286607 -6.82138836 33.18823772 -8 36 C-9.1759545 32.4721365 -8.82185033 31.97628276 -7.34765625 28.71875 C-6.98293213 27.88134277 -6.61820801 27.04393555 -6.24243164 26.18115234 C-5.8530542 25.29637207 -5.46367676 24.4115918 -5.0625 23.5 C-2.23740257 16.83422772 -0.06096805 11.26686553 -0.81640625 3.8984375 C-1 2 -1 2 0 0 Z " fill="#FBD910" transform="translate(272,196)"/>
<path d="M0 0 C0.66 0.33 1.32 0.66 2 1 C0.44284111 4.00280072 -1.1217155 7.00168925 -2.6875 10 C-3.12255859 10.83917969 -3.55761719 11.67835938 -4.00585938 12.54296875 C-6.78297923 17.85035336 -9.74036858 22.97411338 -13 28 C-14 26 -14 26 -13.51171875 23.94140625 C-13.23972656 23.15636719 -12.96773437 22.37132812 -12.6875 21.5625 C-12.42324219 20.78003906 -12.15898437 19.99757813 -11.88671875 19.19140625 C-11 17 -11 17 -9 14 C-8.01 14 -7.02 14 -6 14 C-5.01 10.04 -4.02 6.08 -3 2 C-2.01 2 -1.02 2 0 2 C0 1.34 0 0.68 0 0 Z " fill="#EDA90F" transform="translate(251,332)"/>
<path d="M0 0 C10.79884849 6.2284697 19.26304511 14.19950362 28 23 C27.67 23.66 27.34 24.32 27 25 C26.45214844 24.40574219 25.90429688 23.81148437 25.33984375 23.19921875 C19.13502234 16.7119014 12.53404896 11.5157746 5.22265625 6.34765625 C2.85975657 4.62631963 0.99333925 3.07728511 -1 1 C-0.67 0.67 -0.34 0.34 0 0 Z " fill="#F2F0F0" transform="translate(254,108)"/>
<path d="M0 0 C0.66 0.33 1.32 0.66 2 1 C0.42335255 3.58762749 -1.16094053 6.17001019 -2.75 8.75 C-3.1934375 9.47960937 -3.636875 10.20921875 -4.09375 10.9609375 C-6.40532325 14.70024717 -8.57042379 18.16687182 -12 21 C-12.66 21 -13.32 21 -14 21 C-14.0825 21.61875 -14.165 22.2375 -14.25 22.875 C-15 25 -15 25 -17.046875 26.1328125 C-17.69140625 26.41898437 -18.3359375 26.70515625 -19 27 C-14.9031477 18.02179177 -14.9031477 18.02179177 -11 15 C-10.01 15 -9.02 15 -8 15 C-7.73445312 14.28457031 -7.46890625 13.56914062 -7.1953125 12.83203125 C-5.97085901 9.93095681 -4.52016937 7.36984136 -2.875 4.6875 C-2.33617187 3.80449219 -1.79734375 2.92148437 -1.2421875 2.01171875 C-0.83226562 1.34785156 -0.42234375 0.68398438 0 0 Z " fill="#E9A410" transform="translate(234,363)"/>
<path d="M0 0 C0.99 0.33 1.98 0.66 3 1 C-13.58345135 14.53914627 -13.58345135 14.53914627 -21 14 C-17.79383525 11.18246128 -14.86566143 9.48669024 -10.91015625 7.921875 C-6.94057756 6.00608651 -3.12078088 3.12078088 0 0 Z " fill="#BFB8B1" transform="translate(364,322)"/>
<path d="M0 0 C0.33 0 0.66 0 1 0 C1.17299283 5.71517056 0.67537016 10.70676304 -0.6875 16.25 C-0.86249023 16.9814624 -1.03748047 17.7129248 -1.21777344 18.46655273 C-2.84205772 24.94739031 -5.15482159 30.9481656 -8 37 C-8.66 36.01 -9.32 35.02 -10 34 C-9.34 33.34 -8.68 32.68 -8 32 C-3.7406035 21.63968575 -1.65989094 11.02545447 0 0 Z " fill="#CECBCA" transform="translate(400,258)"/>
<path d="M0 0 C1.65 0.33 3.3 0.66 5 1 C4.34 4.3 3.68 7.6 3 11 C2.34 11 1.68 11 1 11 C-1 8 -1 8 -2 4 C-5.3 3.34 -8.6 2.68 -12 2 C-12 1.67 -12 1.34 -12 1 C-8.04 1 -4.08 1 0 1 C0 0.67 0 0.34 0 0 Z " fill="#F5D469" transform="translate(268,194)"/>
<path d="M0 0 C1 2 1 2 0.0625 5.125 C-0.288125 6.07375 -0.63875 7.0225 -1 8 C4.87996058 10.1233191 10.93293525 11.52741147 17 13 C13.96143341 13.93979382 11.79304528 13.99875808 8.671875 13.44140625 C7.87265625 13.30283203 7.0734375 13.16425781 6.25 13.02148438 C5.425 12.87001953 4.6 12.71855469 3.75 12.5625 C2.90953125 12.41490234 2.0690625 12.26730469 1.203125 12.11523438 C-0.86588544 11.7508064 -2.93312939 11.37637459 -5 11 C-4.01088094 6.76641647 -2.22583401 3.73365704 0 0 Z " fill="#ABA298" transform="translate(255,328)"/>
<path d="M0 0 C0.66 0.33 1.32 0.66 2 1 C-2.11347166 3.9582652 -5.03678959 4.38237619 -10.0625 4.3125 C-11.27035156 4.30863281 -12.47820312 4.30476563 -13.72265625 4.30078125 C-16.74901074 4.02303477 -18.45976855 3.59002018 -21 2 C-21 1.67 -21 1.34 -21 1 C-20.15236084 1.00785522 -20.15236084 1.00785522 -19.28759766 1.01586914 C-16.7334097 1.03662422 -14.17923947 1.0496554 -11.625 1.0625 C-10.73554688 1.07087891 -9.84609375 1.07925781 -8.9296875 1.08789062 C-8.07890625 1.09111328 -7.228125 1.09433594 -6.3515625 1.09765625 C-5.17327881 1.10551147 -5.17327881 1.10551147 -3.97119141 1.11352539 C-1.92227332 1.12573953 -1.92227332 1.12573953 0 0 Z " fill="#F2B820" transform="translate(212,390)"/>
<path d="M0 0 C12.91348601 -0.57251908 12.91348601 -0.57251908 19 3 C21.1519437 6.22791555 21.20086443 7.28400809 21 11 C20.71125 10.38125 20.4225 9.7625 20.125 9.125 C18.7360539 6.50143514 17.65682074 5.25096076 14.86328125 4.18359375 C9.90425463 2.73309745 5.13917919 1.55860643 0 1 C0 0.67 0 0.34 0 0 Z " fill="#F9EBCA" transform="translate(264,263)"/>
<path d="M0 0 C0.33 0 0.66 0 1 0 C1.34833144 4.87664009 0.41685712 7.77050005 -2 12 C-2.99 12 -3.98 12 -5 12 C-5.66 13.32 -6.32 14.64 -7 16 C-7.33 15.34 -7.66 14.68 -8 14 C-6.75717988 11.54961707 -5.47117661 9.226675 -4.0625 6.875 C-3.48338867 5.88693359 -3.48338867 5.88693359 -2.89257812 4.87890625 C-1.93553422 3.248387 -0.96867185 1.62363816 0 0 Z " fill="#FBD706" transform="translate(247,334)"/>
<path d="M0 0 C0.89203125 0.01804688 1.7840625 0.03609375 2.703125 0.0546875 C3.71632812 0.08949219 3.71632812 0.08949219 4.75 0.125 C4.75 0.455 4.75 0.785 4.75 1.125 C4.13511719 1.13917969 3.52023438 1.15335938 2.88671875 1.16796875 C0.41500527 1.31382744 -1.84677148 1.51993183 -4.25 2.125 C-6.3886077 4.51487933 -6.3886077 4.51487933 -7.25 7.125 C-8.9 6.795 -10.55 6.465 -12.25 6.125 C-8.90888984 1.11333477 -5.97726307 -0.1572964 0 0 Z " fill="#F4CF68" transform="translate(187.25,195.875)"/>
<path d="M0 0 C6.01893759 3.08453491 11.00623769 6.43123874 16 11 C15.67 11.66 15.34 12.32 15 13 C13.26972464 11.75153512 11.54083043 10.50115598 9.8125 9.25 C8.84957031 8.55390625 7.88664062 7.8578125 6.89453125 7.140625 C4.20870786 5.15434805 1.59333207 3.10500812 -1 1 C-0.67 0.67 -0.34 0.34 0 0 Z " fill="#F0EFEE" transform="translate(352,171)"/>
<path d="M0 0 C4.62 0 9.24 0 14 0 C14.33 0.66 14.66 1.32 15 2 C12.87562788 2.19448477 10.75046809 2.38038289 8.625 2.5625 C7.44164062 2.66691406 6.25828125 2.77132813 5.0390625 2.87890625 C2 3 2 3 0 2 C0 1.34 0 0.68 0 0 Z " fill="#FEEC39" transform="translate(254,266)"/>
<path d="M0 0 C1.485 0.99 1.485 0.99 3 2 C2.88541307 3.43836751 2.75790884 4.87570966 2.625 6.3125 C2.55539062 7.11300781 2.48578125 7.91351563 2.4140625 8.73828125 C2 11 2 11 0 14 C-0.19456705 12.04235617 -0.38044247 10.08384679 -0.5625 8.125 C-0.66691406 7.03445312 -0.77132813 5.94390625 -0.87890625 4.8203125 C-1 2 -1 2 0 0 Z " fill="#F5CA18" transform="translate(272,196)"/>
<path d="M0 0 C0.66 0.33 1.32 0.66 2 1 C-0.64 5.95 -3.28 10.9 -6 16 C-6.33 15.34 -6.66 14.68 -7 14 C-6 12 -5 10 -4 8 C-3.29241674 4.7633037 -3.29241674 4.7633037 -3 2 C-2.01 2 -1.02 2 0 2 C0 1.34 0 0.68 0 0 Z " fill="#E7A216" transform="translate(251,332)"/>
<path d="M0 0 C1.92578125 0.26953125 1.92578125 0.26953125 4.3125 0.8125 C5.09238281 0.98394531 5.87226563 1.15539062 6.67578125 1.33203125 C8.966995 1.99051453 10.90892089 2.8659365 13 4 C13 4.66 13 5.32 13 6 C11.22739369 5.54857225 9.4569632 5.08859477 7.6875 4.625 C6.20830078 4.24214844 6.20830078 4.24214844 4.69921875 3.8515625 C2 3 2 3 -1 1 C-0.67 0.67 -0.34 0.34 0 0 Z " fill="#F1F0F0" transform="translate(221,94)"/>
<path d="M0 0 C0.33 0 0.66 0 1 0 C1 8.91 1 17.82 1 27 C0.67 27 0.34 27 0 27 C0 18.09 0 9.18 0 0 Z " fill="#C3C0BF" transform="translate(54,206)"/>
<path d="M0 0 C0.66 0.33 1.32 0.66 2 1 C1.02526874 2.66926454 0.04510211 4.33535642 -0.9375 6 C-1.75541016 7.3921875 -1.75541016 7.3921875 -2.58984375 8.8125 C-3.05519531 9.534375 -3.52054688 10.25625 -4 11 C-4.33 11 -4.66 11 -5 11 C-4.67 8.69 -4.34 6.38 -4 4 C-3.01 4 -2.02 4 -1 4 C-0.67 2.68 -0.34 1.36 0 0 Z " fill="#F3BD0E" transform="translate(257,321)"/>
<path d="M0 0 C3.38818502 1.43605193 5.3186598 3.20466579 7.6875 6 C8.28949219 6.70125 8.89148438 7.4025 9.51171875 8.125 C11 10 11 10 12 12 C8.87142986 10.6118265 6.71810826 8.98898122 4.3125 6.5625 C3.71050781 5.96566406 3.10851562 5.36882812 2.48828125 4.75390625 C1 3 1 3 0 0 Z " fill="#A09D99" transform="translate(88,304)"/>
<path d="M0 0 C0.33 0 0.66 0 1 0 C1 7.92 1 15.84 1 24 C0.67 24 0.34 24 0 24 C0 16.08 0 8.16 0 0 Z " fill="#DCD9D8" transform="translate(402,242)"/>
<path d="M0 0 C0 0.33 0 0.66 0 1 C-1.5778125 1.433125 -1.5778125 1.433125 -3.1875 1.875 C-6.22818711 2.77225193 -9.08712344 3.76423419 -12 5 C-9.28085049 -1.02097391 -6.0998139 -0.0983841 0 0 Z " fill="#F4E2C1" transform="translate(189,194)"/>
<path d="M0 0 C7.26 0 14.52 0 22 0 C22 0.33 22 0.66 22 1 C14.74 1 7.48 1 0 1 C0 0.67 0 0.34 0 0 Z " fill="#ECEBEA" transform="translate(175,87)"/>
<path d="M0 0 C0.33 0.66 0.66 1.32 1 2 C0.33333333 4 -0.33333333 6 -1 8 C-0.67 8.66 -0.34 9.32 0 10 C-1.65 10 -3.3 10 -5 10 C-3.66511872 6.40608886 -2.03977277 3.24509304 0 0 Z " fill="#CDB89B" transform="translate(255,328)"/>
<path d="M0 0 C3.3 0.99 6.6 1.98 10 3 C9.67 3.66 9.34 4.32 9 5 C5.7 4.01 2.4 3.02 -1 2 C-0.67 1.34 -0.34 0.68 0 0 Z " fill="#F1EFEF" transform="translate(318,158)"/>
<path d="M0 0 C2.15377564 2.62198774 3.40072174 4.64404172 4 8 C2.68 7.67 1.36 7.34 0 7 C-0.93423645 3.98968256 -1.04449911 3.13349732 0 0 Z " fill="#F3B105" transform="translate(187,383)"/>
<path d="M0 0 C0.66 0 1.32 0 2 0 C0.60667426 3.36720387 -0.9789286 4.9859524 -4 7 C-4.66 6.67 -5.32 6.34 -6 6 C-4.71034824 4.62437146 -3.37310707 3.29233607 -2 2 C-1.34 2 -0.68 2 0 2 C0 1.34 0 0.68 0 0 Z " fill="#BDBAB8" transform="translate(382,307)"/>
<path d="M0 0 C0.33 0.66 0.66 1.32 1 2 C2.98 2 4.96 2 7 2 C7 2.33 7 2.66 7 3 C5.02 3 3.04 3 1 3 C1 3.66 1 4.32 1 5 C-0.32 4.34 -1.64 3.68 -3 3 C-3 2.34 -3 1.68 -3 1 C-2.01 0.67 -1.02 0.34 0 0 Z " fill="#FDEC81" transform="translate(253,263)"/>
<path d="M0 0 C3.96 1.98 3.96 1.98 8 4 C7.67 4.66 7.34 5.32 7 6 C4.36 4.68 1.72 3.36 -1 2 C-0.67 1.34 -0.34 0.68 0 0 Z " fill="#F1F0EF" transform="translate(303,151)"/>
<path d="M0 0 C1.32 0.33 2.64 0.66 4 1 C4 2.65 4 4.3 4 6 C3.34 6 2.68 6 2 6 C0 3 0 3 0 0 Z " fill="#FBE7AE" transform="translate(267,199)"/>
<path d="M0 0 C1.98 0.66 3.96 1.32 6 2 C5.67 3.32 5.34 4.64 5 6 C3.02 4.68 1.04 3.36 -1 2 C-0.67 1.34 -0.34 0.68 0 0 Z " fill="#B2ACA5" transform="translate(101,315)"/>
<path d="M0 0 C0.66 0.33 1.32 0.66 2 1 C1.34 2.65 0.68 4.3 0 6 C-0.66 6 -1.32 6 -2 6 C-2.33 6.99 -2.66 7.98 -3 9 C-2.25 2.25 -2.25 2.25 0 0 Z " fill="#F1BB27" transform="translate(175,202)"/>
<path d="M0 0 C0.33 0 0.66 0 1 0 C1 4.62 1 9.24 1 14 C0.67 14 0.34 14 0 14 C0 9.38 0 4.76 0 0 Z " fill="#F1AE14" transform="translate(183,364)"/>
<path d="M0 0 C4.62 0 9.24 0 14 0 C14 0.33 14 0.66 14 1 C9.38 1 4.76 1 0 1 C0 0.67 0 0.34 0 0 Z " fill="#A8A097" transform="translate(300,349)"/>
<path d="M0 0 C4.29 0 8.58 0 13 0 C13 0.33 13 0.66 13 1 C8.71 1 4.42 1 0 1 C0 0.67 0 0.34 0 0 Z " fill="#B55C11" transform="translate(195,398)"/>
<path d="M0 0 C0.33 0 0.66 0 1 0 C1 3.63 1 7.26 1 11 C0.67 11 0.34 11 0 11 C0 7.37 0 3.74 0 0 Z " fill="#ECA91E" transform="translate(184,351)"/>
<path d="M0 0 C3.63 0 7.26 0 11 0 C11 0.33 11 0.66 11 1 C7.37 1 3.74 1 0 1 C0 0.67 0 0.34 0 0 Z " fill="#ADA59D" transform="translate(171,350)"/>
<path d="M0 0 C0.33 0 0.66 0 1 0 C1 2.31 1 4.62 1 7 C0.67 7 0.34 7 0 7 C0 4.69 0 2.38 0 0 Z " fill="#CDCAC8" transform="translate(55,198)"/>
<path d="M0 0 C0.33 0 0.66 0 1 0 C1 1.98 1 3.96 1 6 C0.67 6 0.34 6 0 6 C0 4.02 0 2.04 0 0 Z " fill="#E69811" transform="translate(183,383)"/>
<path d="M0 0 C1.98 0 3.96 0 6 0 C6 0.33 6 0.66 6 1 C4.02 1 2.04 1 0 1 C0 0.67 0 0.34 0 0 Z " fill="#A9A199" transform="translate(317,348)"/>
<path d="M0 0 C1.98 0 3.96 0 6 0 C6 0.33 6 0.66 6 1 C4.02 1 2.04 1 0 1 C0 0.67 0 0.34 0 0 Z " fill="#B0A69A" transform="translate(291,348)"/>
<path d="M0 0 C1.98 0 3.96 0 6 0 C6 0.33 6 0.66 6 1 C4.02 1 2.04 1 0 1 C0 0.67 0 0.34 0 0 Z " fill="#B7A691" transform="translate(250,340)"/>
<path d="M0 0 C0.33 0 0.66 0 1 0 C1 1.98 1 3.96 1 6 C0.67 6 0.34 6 0 6 C0 4.02 0 2.04 0 0 Z " fill="#BDBAB8" transform="translate(55,234)"/>
<path d="M0 0 C1.98 0 3.96 0 6 0 C6 0.33 6 0.66 6 1 C4.02 1 2.04 1 0 1 C0 0.67 0 0.34 0 0 Z " fill="#EDECEB" transform="translate(200,88)"/>
<path d="M0 0 C1.98 0 3.96 0 6 0 C6 0.33 6 0.66 6 1 C4.02 1 2.04 1 0 1 C0 0.67 0 0.34 0 0 Z " fill="#EBEAE9" transform="translate(166,88)"/>
<path d="M0 0 C1.65 0 3.3 0 5 0 C5 0.33 5 0.66 5 1 C3.35 1 1.7 1 0 1 C0 0.67 0 0.34 0 0 Z " fill="#AAA39B" transform="translate(164,349)"/>
<path d="M0 0 C1.65 0 3.3 0 5 0 C5 0.33 5 0.66 5 1 C3.35 1 1.7 1 0 1 C0 0.67 0 0.34 0 0 Z " fill="#ACA59E" transform="translate(158,348)"/>
<path d="M0 0 C1.65 0 3.3 0 5 0 C5 0.33 5 0.66 5 1 C3.35 1 1.7 1 0 1 C0 0.67 0 0.34 0 0 Z " fill="#B7AC9F" transform="translate(286,347)"/>
<path d="M0 0 C1.65 0 3.3 0 5 0 C5 0.33 5 0.66 5 1 C3.35 1 1.7 1 0 1 C0 0.67 0 0.34 0 0 Z " fill="#B1A79B" transform="translate(258,341)"/>
<path d="M0 0 C0.33 0 0.66 0 1 0 C1 1.65 1 3.3 1 5 C0.67 5 0.34 5 0 5 C0 3.35 0 1.7 0 0 Z " fill="#D3D1D0" transform="translate(401,267)"/>
<path d="M0 0 C0.33 0 0.66 0 1 0 C1 1.65 1 3.3 1 5 C0.67 5 0.34 5 0 5 C0 3.35 0 1.7 0 0 Z " fill="#E0DEDD" transform="translate(401,236)"/>
<path d="M0 0 C1.65 0 3.3 0 5 0 C5 0.33 5 0.66 5 1 C3.35 1 1.7 1 0 1 C0 0.67 0 0.34 0 0 Z " fill="#EDECEB" transform="translate(207,89)"/>
<path d="M0 0 C1.65 0 3.3 0 5 0 C5 0.33 5 0.66 5 1 C3.35 1 1.7 1 0 1 C0 0.67 0 0.34 0 0 Z " fill="#EBE9E9" transform="translate(160,89)"/>
<path d="M0 0 C4 1 4 1 4 1 Z " fill="#A49D96" transform="translate(324,347)"/>
<path d="M0 0 C4 1 4 1 4 1 Z " fill="#A8A29A" transform="translate(154,347)"/>
<path d="M0 0 C4 1 4 1 4 1 Z " fill="#A8A098" transform="translate(328,346)"/>
<path d="M0 0 C4 1 4 1 4 1 Z " fill="#BAAEA0" transform="translate(282,346)"/>
<path d="M0 0 C4 1 4 1 4 1 Z " fill="#BAAEA0" transform="translate(273,344)"/>
<path d="M0 0 C4 1 4 1 4 1 Z " fill="#B0A69A" transform="translate(268,343)"/>
<path d="M0 0 C4 1 4 1 4 1 Z " fill="#B2A79A" transform="translate(264,342)"/>
<path d="M0 0 C1 4 1 4 1 4 Z " fill="#D3D1D0" transform="translate(400,272)"/>
<path d="M0 0 C1 4 1 4 1 4 Z " fill="#BAB7B6" transform="translate(57,246)"/>
<path d="M0 0 C1 4 1 4 1 4 Z " fill="#BBB8B6" transform="translate(56,241)"/>
<path d="M0 0 C1 4 1 4 1 4 Z " fill="#E1E0DE" transform="translate(400,231)"/>
<path d="M0 0 C1 4 1 4 1 4 Z " fill="#CECBCA" transform="translate(56,193)"/>
<path d="M0 0 C1 4 1 4 1 4 Z " fill="#CFCDCC" transform="translate(57,188)"/>
<path d="M0 0 C4 1 4 1 4 1 Z " fill="#EEEDEC" transform="translate(212,90)"/>
<path d="M0 0 C4 1 4 1 4 1 Z " fill="#EBEAE9" transform="translate(156,90)"/>
<path d="M0 0 C3 1 3 1 3 1 Z " fill="#BA5E0E" transform="translate(208,397)"/>
<path d="M0 0 C3 1 3 1 3 1 Z " fill="#ABA39D" transform="translate(151,346)"/>
<path d="M0 0 C3 1 3 1 3 1 Z " fill="#A8A19A" transform="translate(332,345)"/>
<path d="M0 0 C3 1 3 1 3 1 Z " fill="#B5A99D" transform="translate(278,345)"/>
<path d="M0 0 C3 1 3 1 3 1 Z " fill="#A7A099" transform="translate(147,345)"/>
<path d="M0 0 C3 1 3 1 3 1 Z " fill="#ACA59D" transform="translate(144,344)"/>
<path d="M0 0 C3 1 3 1 3 1 Z " fill="#ABA49E" transform="translate(141,343)"/>
<path d="" fill="#CCCAC8" transform="translate(0,0)"/>
<path d="" fill="#D2D0CE" transform="translate(0,0)"/>
<path d="" fill="#CECBCA" transform="translate(0,0)"/>
<path d="" fill="#B5B2B0" transform="translate(0,0)"/>
<path d="" fill="#B3B0AE" transform="translate(0,0)"/>
<path d="" fill="#E4E3E2" transform="translate(0,0)"/>
<path d="" fill="#E4E2E1" transform="translate(0,0)"/>
<path d="" fill="#D1CFCE" transform="translate(0,0)"/>
<path d="" fill="#D2D0CF" transform="translate(0,0)"/>
<path d="" fill="#D4D2D1" transform="translate(0,0)"/>
<path d="" fill="#D6D4D3" transform="translate(0,0)"/>
<path d="M0 0 C3 1 3 1 3 1 Z " fill="#EFEEED" transform="translate(337,163)"/>
<path d="M0 0 C3 1 3 1 3 1 Z " fill="#EEEDEC" transform="translate(317,156)"/>
<path d="M0 0 C3 1 3 1 3 1 Z " fill="#EEEDEC" transform="translate(227,94)"/>
<path d="M0 0 C3 1 3 1 3 1 Z " fill="#E9E8E7" transform="translate(142,94)"/>
<path d="M0 0 C3 1 3 1 3 1 Z " fill="#EDECEC" transform="translate(224,93)"/>
<path d="M0 0 C3 1 3 1 3 1 Z " fill="#E9E8E7" transform="translate(145,93)"/>
<path d="M0 0 C3 1 3 1 3 1 Z " fill="#EDECEB" transform="translate(149,92)"/>
<path d="M0 0 C3 1 3 1 3 1 Z " fill="#EDECEC" transform="translate(217,91)"/>
<path d="M0 0 C3 1 3 1 3 1 Z " fill="#EAE9E8" transform="translate(152,91)"/>
<path d="M0 0 C2 1 2 1 2 1 Z " fill="#B55D13" transform="translate(192,397)"/>
<path d="M0 0 C2 1 2 1 2 1 Z " fill="#BE620C" transform="translate(211,396)"/>
<path d="M0 0 C2 1 2 1 2 1 Z " fill="#BD610B" transform="translate(190,396)"/>
<path d="M0 0 C2 1 2 1 2 1 Z " fill="#C16610" transform="translate(213,395)"/>
<path d="" fill="#CE7212" transform="translate(0,0)"/>
<path d="" fill="#E89A0E" transform="translate(0,0)"/>
<path d="" fill="#E99C0F" transform="translate(0,0)"/>
<path d="" fill="#E79A11" transform="translate(0,0)"/>
<path d="" fill="#E59615" transform="translate(0,0)"/>
<path d="" fill="#EFB90C" transform="translate(0,0)"/>
<path d="" fill="#E19218" transform="translate(0,0)"/>
<path d="" fill="#E99D11" transform="translate(0,0)"/>
<path d="" fill="#E59716" transform="translate(0,0)"/>
<path d="" fill="#EEA70C" transform="translate(0,0)"/>
<path d="M0 0 C2 1 2 1 2 1 Z " fill="#9F9A95" transform="translate(336,344)"/>
<path d="" fill="#E49615" transform="translate(0,0)"/>
<path d="M0 0 C2 1 2 1 2 1 Z " fill="#9D9994" transform="translate(339,343)"/>
<path d="M0 0 C2 1 2 1 2 1 Z " fill="#A59F99" transform="translate(341,342)"/>
<path d="" fill="#EEA70C" transform="translate(0,0)"/>
<path d="M0 0 C2 1 2 1 2 1 Z " fill="#A8A29B" transform="translate(139,342)"/>
<path d="M0 0 C2 1 2 1 2 1 Z " fill="#9B9794" transform="translate(344,341)"/>
<path d="M0 0 C2 1 2 1 2 1 Z " fill="#A49E98" transform="translate(136,341)"/>
<path d="M0 0 C2 1 2 1 2 1 Z " fill="#9E9A96" transform="translate(346,340)"/>
<path d="M0 0 C2 1 2 1 2 1 Z " fill="#A8A29B" transform="translate(134,340)"/>
<path d="M0 0 C2 1 2 1 2 1 Z " fill="#9E9B98" transform="translate(348,339)"/>
<path d="M0 0 C2 1 2 1 2 1 Z " fill="#B3AAA3" transform="translate(132,339)"/>
<path d="M0 0 C2 1 2 1 2 1 Z " fill="#9F9B98" transform="translate(350,338)"/>
<path d="M0 0 C2 1 2 1 2 1 Z " fill="#9D9997" transform="translate(352,337)"/>
<path d="M0 0 C2 1 2 1 2 1 Z " fill="#9F9B99" transform="translate(357,334)"/>
<path d="M0 0 C2 1 2 1 2 1 Z " fill="#A8A39D" transform="translate(120,333)"/>
<path d="M0 0 C2 1 2 1 2 1 Z " fill="#A29E99" transform="translate(118,332)"/>
<path d="M0 0 C2 1 2 1 2 1 Z " fill="#A7A29D" transform="translate(115,330)"/>
<path d="M0 0 C2 1 2 1 2 1 Z " fill="#A5A19F" transform="translate(364,329)"/>
<path d="M0 0 C2 1 2 1 2 1 Z " fill="#A9A49E" transform="translate(112,328)"/>
<path d="M0 0 C2 1 2 1 2 1 Z " fill="#A6A19D" transform="translate(109,326)"/>
<path d="M0 0 C2 1 2 1 2 1 Z " fill="#B2AFAE" transform="translate(371,323)"/>
<path d="M0 0 C2 1 2 1 2 1 Z " fill="#A6A19D" transform="translate(105,323)"/>
<path d="" fill="#B6B2B1" transform="translate(0,0)"/>
<path d="" fill="#BCB9B8" transform="translate(0,0)"/>
<path d="" fill="#C1BEBC" transform="translate(0,0)"/>
<path d="" fill="#A9A7A4" transform="translate(0,0)"/>
<path d="" fill="#BDBAB8" transform="translate(0,0)"/>
<path d="" fill="#C5C2C0" transform="translate(0,0)"/>
<path d="" fill="#A3A09D" transform="translate(0,0)"/>
<path d="" fill="#A3A09D" transform="translate(0,0)"/>
<path d="" fill="#CBC8C6" transform="translate(0,0)"/>
<path d="" fill="#A5A3A0" transform="translate(0,0)"/>
<path d="" fill="#C8C5C3" transform="translate(0,0)"/>
<path d="" fill="#A4A19F" transform="translate(0,0)"/>
<path d="" fill="#CAC7C6" transform="translate(0,0)"/>
<path d="" fill="#A6A3A1" transform="translate(0,0)"/>
<path d="" fill="#A9A7A5" transform="translate(0,0)"/>
<path d="" fill="#B3B1AF" transform="translate(0,0)"/>
<path d="" fill="#AEABA9" transform="translate(0,0)"/>
<path d="" fill="#ACAAA7" transform="translate(0,0)"/>
<path d="" fill="#ABA8A6" transform="translate(0,0)"/>
<path d="" fill="#B1AFAD" transform="translate(0,0)"/>
<path d="" fill="#ADAAA8" transform="translate(0,0)"/>
<path d="" fill="#B0ADAB" transform="translate(0,0)"/>
<path d="" fill="#B1AEAC" transform="translate(0,0)"/>
<path d="" fill="#E4E3E2" transform="translate(0,0)"/>
<path d="" fill="#E4E3E1" transform="translate(0,0)"/>
<path d="" fill="#EBEAE9" transform="translate(0,0)"/>
<path d="" fill="#E5E3E2" transform="translate(0,0)"/>
<path d="" fill="#E6E4E3" transform="translate(0,0)"/>
<path d="" fill="#E7E5E4" transform="translate(0,0)"/>
<path d="" fill="#E6E4E3" transform="translate(0,0)"/>
<path d="" fill="#E8E6E6" transform="translate(0,0)"/>
<path d="" fill="#EAE9E8" transform="translate(0,0)"/>
<path d="" fill="#E8E7E6" transform="translate(0,0)"/>
<path d="" fill="#ECEBEA" transform="translate(0,0)"/>
<path d="M0 0 C2 1 2 1 2 1 Z " fill="#ECEBEA" transform="translate(362,176)"/>
<path d="M0 0 C2 1 2 1 2 1 Z " fill="#EFEEED" transform="translate(359,174)"/>
<path d="" fill="#D5D3D2" transform="translate(0,0)"/>
<path d="M0 0 C2 1 2 1 2 1 Z " fill="#EDECEC" transform="translate(356,172)"/>
<path d="" fill="#D6D4D2" transform="translate(0,0)"/>
<path d="M0 0 C2 1 2 1 2 1 Z " fill="#ECEBEA" transform="translate(353,170)"/>
<path d="M0 0 C2 1 2 1 2 1 Z " fill="#ECEBEA" transform="translate(351,169)"/>
<path d="" fill="#DAD8D7" transform="translate(0,0)"/>
<path d="M0 0 C2 1 2 1 2 1 Z " fill="#EDECEB" transform="translate(349,168)"/>
<path d="M0 0 C2 1 2 1 2 1 Z " fill="#EDECEB" transform="translate(347,167)"/>
<path d="M0 0 C2 1 2 1 2 1 Z " fill="#ECEBEA" transform="translate(345,166)"/>
<path d="" fill="#D6D4D3" transform="translate(0,0)"/>
<path d="M0 0 C2 1 2 1 2 1 Z " fill="#ECEBEA" transform="translate(343,165)"/>
<path d="M0 0 C2 1 2 1 2 1 Z " fill="#EDECEC" transform="translate(340,164)"/>
<path d="" fill="#D8D6D5" transform="translate(0,0)"/>
<path d="M0 0 C2 1 2 1 2 1 Z " fill="#ECEBEB" transform="translate(335,162)"/>
<path d="" fill="#D8D6D5" transform="translate(0,0)"/>
<path d="M0 0 C2 1 2 1 2 1 Z " fill="#EDECEB" transform="translate(332,161)"/>
<path d="M0 0 C2 1 2 1 2 1 Z " fill="#EDECEB" transform="translate(329,160)"/>
<path d="" fill="#DAD8D7" transform="translate(0,0)"/>
<path d="M0 0 C2 1 2 1 2 1 Z " fill="#EDECEB" transform="translate(326,159)"/>
<path d="M0 0 C2 1 2 1 2 1 Z " fill="#EDECEB" transform="translate(323,158)"/>
<path d="" fill="#D9D7D6" transform="translate(0,0)"/>
<path d="M0 0 C2 1 2 1 2 1 Z " fill="#EEECEC" transform="translate(320,157)"/>
<path d="" fill="#D9D7D6" transform="translate(0,0)"/>
<path d="M0 0 C2 1 2 1 2 1 Z " fill="#ECEBEB" transform="translate(315,155)"/>
<path d="M0 0 C2 1 2 1 2 1 Z " fill="#EEECEC" transform="translate(312,154)"/>
<path d="M0 0 C2 1 2 1 2 1 Z " fill="#EDECEB" transform="translate(310,153)"/>
<path d="" fill="#E1DFDE" transform="translate(0,0)"/>
<path d="M0 0 C2 1 2 1 2 1 Z " fill="#ECEBEA" transform="translate(308,152)"/>
<path d="M0 0 C2 1 2 1 2 1 Z " fill="#ECEBEB" transform="translate(306,151)"/>
<path d="" fill="#DBD9D8" transform="translate(0,0)"/>
<path d="M0 0 C2 1 2 1 2 1 Z " fill="#ECEBEA" transform="translate(304,150)"/>
<path d="M0 0 C2 1 2 1 2 1 Z " fill="#EDEBEB" transform="translate(302,149)"/>
<path d="" fill="#DDDBDA" transform="translate(0,0)"/>
<path d="M0 0 C2 1 2 1 2 1 Z " fill="#EDECEB" transform="translate(296,145)"/>
<path d="" fill="#DDDBDA" transform="translate(0,0)"/>
<path d="" fill="#ECEAE9" transform="translate(0,0)"/>
<path d="" fill="#E2E0DF" transform="translate(0,0)"/>
<path d="" fill="#ECEBEA" transform="translate(0,0)"/>
<path d="" fill="#E3E1E0" transform="translate(0,0)"/>
<path d="M0 0 C2 1 2 1 2 1 Z " fill="#E4E2E2" transform="translate(96,122)"/>
<path d="M0 0 C2 1 2 1 2 1 Z " fill="#EDEBEB" transform="translate(273,121)"/>
<path d="M0 0 C2 1 2 1 2 1 Z " fill="#EFEEEE" transform="translate(267,116)"/>
<path d="M0 0 C2 1 2 1 2 1 Z " fill="#E5E3E2" transform="translate(103,116)"/>
<path d="M0 0 C2 1 2 1 2 1 Z " fill="#EEEDEC" transform="translate(259,110)"/>
<path d="M0 0 C2 1 2 1 2 1 Z " fill="#E5E4E3" transform="translate(111,110)"/>
<path d="M0 0 C2 1 2 1 2 1 Z " fill="#EDECEC" transform="translate(256,108)"/>
<path d="M0 0 C2 1 2 1 2 1 Z " fill="#E6E4E3" transform="translate(114,108)"/>
<path d="M0 0 C2 1 2 1 2 1 Z " fill="#EDECEB" transform="translate(253,106)"/>
<path d="M0 0 C2 1 2 1 2 1 Z " fill="#E6E4E3" transform="translate(117,106)"/>
<path d="M0 0 C2 1 2 1 2 1 Z " fill="#EFEEED" transform="translate(251,105)"/>
<path d="M0 0 C2 1 2 1 2 1 Z " fill="#E7E6E5" transform="translate(119,105)"/>
<path d="M0 0 C2 1 2 1 2 1 Z " fill="#EDECEB" transform="translate(246,102)"/>
<path d="M0 0 C2 1 2 1 2 1 Z " fill="#E6E5E4" transform="translate(124,102)"/>
<path d="M0 0 C2 1 2 1 2 1 Z " fill="#EDECEB" transform="translate(244,101)"/>
<path d="M0 0 C2 1 2 1 2 1 Z " fill="#E7E5E4" transform="translate(126,101)"/>
<path d="M0 0 C2 1 2 1 2 1 Z " fill="#EDECEC" transform="translate(242,100)"/>
<path d="M0 0 C2 1 2 1 2 1 Z " fill="#E7E6E5" transform="translate(128,100)"/>
<path d="M0 0 C2 1 2 1 2 1 Z " fill="#EDEBEB" transform="translate(240,99)"/>
<path d="M0 0 C2 1 2 1 2 1 Z " fill="#E7E6E5" transform="translate(130,99)"/>
<path d="M0 0 C2 1 2 1 2 1 Z " fill="#ECEBEB" transform="translate(238,98)"/>
<path d="M0 0 C2 1 2 1 2 1 Z " fill="#EEEDEC" transform="translate(235,97)"/>
<path d="M0 0 C2 1 2 1 2 1 Z " fill="#E9E7E6" transform="translate(135,97)"/>
<path d="M0 0 C2 1 2 1 2 1 Z " fill="#EDECEB" transform="translate(233,96)"/>
<path d="M0 0 C2 1 2 1 2 1 Z " fill="#E8E7E6" transform="translate(137,96)"/>
<path d="M0 0 C2 1 2 1 2 1 Z " fill="#EEEDEC" transform="translate(230,95)"/>
<path d="M0 0 C2 1 2 1 2 1 Z " fill="#E9E8E7" transform="translate(140,95)"/>
<path d="M0 0 C2 1 2 1 2 1 Z " fill="#EDECEC" transform="translate(221,92)"/>
<path d="" fill="#BB600F" transform="translate(0,0)"/>
<path d="" fill="#BE6615" transform="translate(0,0)"/>
<path d="" fill="#AF5C1D" transform="translate(0,0)"/>
<path d="" fill="#D0740C" transform="translate(0,0)"/>
<path d="" fill="#AE5B1D" transform="translate(0,0)"/>
<path d="" fill="#F29000" transform="translate(0,0)"/>
<path d="" fill="#FC9E00" transform="translate(0,0)"/>
<path d="" fill="#C86A10" transform="translate(0,0)"/>
<path d="" fill="#ED9301" transform="translate(0,0)"/>
<path d="" fill="#DD860E" transform="translate(0,0)"/>
<path d="" fill="#D67F17" transform="translate(0,0)"/>
<path d="" fill="#D27B1B" transform="translate(0,0)"/>
<path d="" fill="#E39110" transform="translate(0,0)"/>
<path d="" fill="#DA8519" transform="translate(0,0)"/>
<path d="" fill="#E29112" transform="translate(0,0)"/>
<path d="" fill="#DA861A" transform="translate(0,0)"/>
<path d="" fill="#E39114" transform="translate(0,0)"/>
<path d="" fill="#DF8D17" transform="translate(0,0)"/>
<path d="" fill="#E49512" transform="translate(0,0)"/>
<path d="" fill="#E18F17" transform="translate(0,0)"/>
<path d="" fill="#E69713" transform="translate(0,0)"/>
<path d="" fill="#E18F17" transform="translate(0,0)"/>
<path d="" fill="#E59614" transform="translate(0,0)"/>
<path d="" fill="#E39416" transform="translate(0,0)"/>
<path d="" fill="#E29218" transform="translate(0,0)"/>
<path d="" fill="#E69715" transform="translate(0,0)"/>
<path d="" fill="#E39417" transform="translate(0,0)"/>
<path d="" fill="#E59815" transform="translate(0,0)"/>
<path d="" fill="#A6A09A" transform="translate(0,0)"/>
<path d="" fill="#A59F9A" transform="translate(0,0)"/>
<path d="" fill="#9E9B98" transform="translate(0,0)"/>
<path d="" fill="#A5A09A" transform="translate(0,0)"/>
<path d="" fill="#9D9A97" transform="translate(0,0)"/>
<path d="" fill="#A49F9A" transform="translate(0,0)"/>
<path d="" fill="#A39E99" transform="translate(0,0)"/>
<path d="" fill="#9E9A98" transform="translate(0,0)"/>
<path d="" fill="#A5A29F" transform="translate(0,0)"/>
<path d="" fill="#9E9B99" transform="translate(0,0)"/>
<path d="" fill="#A29E99" transform="translate(0,0)"/>
<path d="" fill="#A29F9D" transform="translate(0,0)"/>
<path d="" fill="#A39F9A" transform="translate(0,0)"/>
<path d="" fill="#A09D9B" transform="translate(0,0)"/>
<path d="" fill="#A4A19E" transform="translate(0,0)"/>
<path d="" fill="#A39F9A" transform="translate(0,0)"/>
<path d="" fill="#A7A4A2" transform="translate(0,0)"/>
<path d="" fill="#AFACAA" transform="translate(0,0)"/>
<path d="" fill="#A19D99" transform="translate(0,0)"/>
<path d="" fill="#B9B5B4" transform="translate(0,0)"/>
<path d="" fill="#A4A09C" transform="translate(0,0)"/>
<path d="" fill="#A3A09E" transform="translate(0,0)"/>
<path d="" fill="#A09D99" transform="translate(0,0)"/>
<path d="" fill="#A5A29F" transform="translate(0,0)"/>
<path d="" fill="#A19E9A" transform="translate(0,0)"/>
<path d="" fill="#A5A2A0" transform="translate(0,0)"/>
<path d="" fill="#A39F9B" transform="translate(0,0)"/>
<path d="" fill="#A5A2A0" transform="translate(0,0)"/>
<path d="" fill="#A9A4A0" transform="translate(0,0)"/>
<path d="" fill="#9E9B98" transform="translate(0,0)"/>
<path d="" fill="#9F9C99" transform="translate(0,0)"/>
<path d="" fill="#B8B5B3" transform="translate(0,0)"/>
<path d="" fill="#9F9C99" transform="translate(0,0)"/>
<path d="" fill="#B4B0AE" transform="translate(0,0)"/>
<path d="" fill="#A09C99" transform="translate(0,0)"/>
<path d="" fill="#B2AFAD" transform="translate(0,0)"/>
<path d="" fill="#A09D9A" transform="translate(0,0)"/>
<path d="" fill="#AFACA9" transform="translate(0,0)"/>
<path d="" fill="#A19E9B" transform="translate(0,0)"/>
<path d="" fill="#ADABA8" transform="translate(0,0)"/>
<path d="" fill="#A19E9B" transform="translate(0,0)"/>
<path d="" fill="#A19E9B" transform="translate(0,0)"/>
<path d="" fill="#B9B5B3" transform="translate(0,0)"/>
<path d="" fill="#A19E9B" transform="translate(0,0)"/>
<path d="" fill="#B5B2AF" transform="translate(0,0)"/>
<path d="" fill="#A19E9B" transform="translate(0,0)"/>
<path d="" fill="#A19E9B" transform="translate(0,0)"/>
<path d="" fill="#A09C9A" transform="translate(0,0)"/>
<path d="" fill="#BBB8B6" transform="translate(0,0)"/>
<path d="" fill="#9F9B98" transform="translate(0,0)"/>
<path d="" fill="#BDBAB8" transform="translate(0,0)"/>
<path d="" fill="#A7A4A2" transform="translate(0,0)"/>
<path d="" fill="#A3A19E" transform="translate(0,0)"/>
<path d="" fill="#A19E9C" transform="translate(0,0)"/>
<path d="" fill="#A09D9A" transform="translate(0,0)"/>
<path d="" fill="#BFBCBA" transform="translate(0,0)"/>
<path d="" fill="#A3A09E" transform="translate(0,0)"/>
<path d="" fill="#C0BEBC" transform="translate(0,0)"/>
<path d="" fill="#A19E9B" transform="translate(0,0)"/>
<path d="" fill="#C3C0BF" transform="translate(0,0)"/>
<path d="" fill="#A3A09E" transform="translate(0,0)"/>
<path d="" fill="#A5A29F" transform="translate(0,0)"/>
<path d="" fill="#A4A19E" transform="translate(0,0)"/>
<path d="" fill="#A6A3A1" transform="translate(0,0)"/>
<path d="" fill="#A8A5A3" transform="translate(0,0)"/>
<path d="" fill="#A8A5A3" transform="translate(0,0)"/>
<path d="" fill="#E7E6E5" transform="translate(0,0)"/>
<path d="" fill="#E6E5E4" transform="translate(0,0)"/>
<path d="" fill="#E8E6E5" transform="translate(0,0)"/>
<path d="" fill="#E8E7E6" transform="translate(0,0)"/>
<path d="" fill="#E8E7E6" transform="translate(0,0)"/>
<path d="" fill="#E9E8E7" transform="translate(0,0)"/>
<path d="" fill="#EAE9E8" transform="translate(0,0)"/>
<path d="" fill="#E9E7E6" transform="translate(0,0)"/>
<path d="" fill="#E9E8E7" transform="translate(0,0)"/>
<path d="" fill="#EAE8E7" transform="translate(0,0)"/>
<path d="" fill="#EAE9E8" transform="translate(0,0)"/>
<path d="" fill="#EAE9E8" transform="translate(0,0)"/>
<path d="" fill="#EBE9E8" transform="translate(0,0)"/>
<path d="" fill="#EAE9E8" transform="translate(0,0)"/>
<path d="" fill="#EAE9E8" transform="translate(0,0)"/>
<path d="" fill="#EBEAE9" transform="translate(0,0)"/>
<path d="" fill="#EAE9E8" transform="translate(0,0)"/>
<path d="" fill="#EAE9E8" transform="translate(0,0)"/>
<path d="" fill="#EAE9E8" transform="translate(0,0)"/>
<path d="" fill="#EDECEB" transform="translate(0,0)"/>
<path d="" fill="#ECEAEA" transform="translate(0,0)"/>
<path d="" fill="#EBEAE9" transform="translate(0,0)"/>
<path d="" fill="#ECEBEA" transform="translate(0,0)"/>
<path d="" fill="#ECEBEB" transform="translate(0,0)"/>
<path d="" fill="#ECEBEA" transform="translate(0,0)"/>
<path d="" fill="#DBD9D8" transform="translate(0,0)"/>
<path d="" fill="#DBD9D8" transform="translate(0,0)"/>
<path d="" fill="#ECEBEA" transform="translate(0,0)"/>
<path d="" fill="#EDECEB" transform="translate(0,0)"/>
<path d="" fill="#ECEAEA" transform="translate(0,0)"/>
<path d="" fill="#DDDBDA" transform="translate(0,0)"/>
<path d="" fill="#EDECEB" transform="translate(0,0)"/>
<path d="" fill="#ECEBEA" transform="translate(0,0)"/>
<path d="" fill="#DDDBDA" transform="translate(0,0)"/>
<path d="" fill="#ECEAEA" transform="translate(0,0)"/>
<path d="" fill="#E0DFDE" transform="translate(0,0)"/>
<path d="" fill="#EBEAE9" transform="translate(0,0)"/>
<path d="" fill="#ECEBEA" transform="translate(0,0)"/>
<path d="" fill="#DDDBDA" transform="translate(0,0)"/>
<path d="" fill="#ECEBEA" transform="translate(0,0)"/>
<path d="" fill="#DFDDDC" transform="translate(0,0)"/>
<path d="" fill="#E0DEDD" transform="translate(0,0)"/>
<path d="" fill="#EAE9E8" transform="translate(0,0)"/>
<path d="" fill="#EAE9E8" transform="translate(0,0)"/>
<path d="" fill="#DEDCDB" transform="translate(0,0)"/>
<path d="" fill="#EBEAE9" transform="translate(0,0)"/>
<path d="" fill="#E0DEDD" transform="translate(0,0)"/>
<path d="" fill="#ECEBEA" transform="translate(0,0)"/>
<path d="" fill="#E1DFDE" transform="translate(0,0)"/>
<path d="" fill="#EDECEB" transform="translate(0,0)"/>
<path d="" fill="#E1E0DF" transform="translate(0,0)"/>
<path d="" fill="#E3E1E0" transform="translate(0,0)"/>
<path d="" fill="#EBEAE9" transform="translate(0,0)"/>
<path d="" fill="#EBEAE9" transform="translate(0,0)"/>
<path d="" fill="#DFDDDC" transform="translate(0,0)"/>
<path d="" fill="#EBE9E8" transform="translate(0,0)"/>
<path d="" fill="#E0DEDD" transform="translate(0,0)"/>
<path d="" fill="#EAE9E8" transform="translate(0,0)"/>
<path d="" fill="#E0DEDD" transform="translate(0,0)"/>
<path d="" fill="#EBEAE9" transform="translate(0,0)"/>
<path d="" fill="#E0DFDE" transform="translate(0,0)"/>
<path d="" fill="#EBEAE9" transform="translate(0,0)"/>
<path d="" fill="#E1DFDE" transform="translate(0,0)"/>
<path d="" fill="#EBEAE9" transform="translate(0,0)"/>
<path d="" fill="#E0DFDE" transform="translate(0,0)"/>
<path d="" fill="#EBE9E9" transform="translate(0,0)"/>
<path d="" fill="#E5E4E3" transform="translate(0,0)"/>
<path d="" fill="#EDECEB" transform="translate(0,0)"/>
<path d="" fill="#E4E3E2" transform="translate(0,0)"/>
<path d="" fill="#ECEBEA" transform="translate(0,0)"/>
<path d="" fill="#E3E2E1" transform="translate(0,0)"/>
<path d="" fill="#ECEBEA" transform="translate(0,0)"/>
<path d="" fill="#E3E2E1" transform="translate(0,0)"/>
<path d="" fill="#ECEBEA" transform="translate(0,0)"/>
<path d="" fill="#E3E1E0" transform="translate(0,0)"/>
<path d="" fill="#EDECEC" transform="translate(0,0)"/>
<path d="" fill="#E5E3E2" transform="translate(0,0)"/>
<path d="" fill="#ECEBEB" transform="translate(0,0)"/>
<path d="" fill="#E4E3E2" transform="translate(0,0)"/>
<path d="" fill="#ECEAEA" transform="translate(0,0)"/>
<path d="" fill="#E3E2E1" transform="translate(0,0)"/>
<path d="" fill="#EEEDEC" transform="translate(0,0)"/>
<path d="" fill="#E5E4E3" transform="translate(0,0)"/>
<path d="" fill="#EDECEB" transform="translate(0,0)"/>
<path d="" fill="#E5E3E2" transform="translate(0,0)"/>
<path d="" fill="#EDEBEB" transform="translate(0,0)"/>
<path d="" fill="#E5E4E3" transform="translate(0,0)"/>
<path d="" fill="#EDECEB" transform="translate(0,0)"/>
<path d="" fill="#E6E4E3" transform="translate(0,0)"/>
<path d="" fill="#EDECEB" transform="translate(0,0)"/>
<path d="" fill="#E7E5E4" transform="translate(0,0)"/>
<path d="" fill="#EDECEC" transform="translate(0,0)"/>
<path d="" fill="#E7E6E5" transform="translate(0,0)"/>
<path d="" fill="#E8E7E6" transform="translate(0,0)"/>
</svg>
